<svg xmlns="http://www.w3.org/2000/svg" width="58.032" height="8.875" viewBox="0 0 58.032 8.875">
  <metadata><?xpacket begin="﻿" id="W5M0MpCehiHzreSzNTczkc9d"?>
<x:xmpmeta xmlns:x="adobe:ns:meta/" x:xmptk="Adobe XMP Core 5.6-c140 79.160451, 2017/05/06-01:08:21        ">
   <rdf:RDF xmlns:rdf="http://www.w3.org/1999/02/22-rdf-syntax-ns#">
      <rdf:Description rdf:about=""/>
   </rdf:RDF>
</x:xmpmeta>
                                                                                                    
                                                                                                    
                                                                                                    
                                                                                                    
                                                                                                    
                                                                                                    
                                                                                                    
                                                                                                    
                                                                                                    
                                                                                                    
                                                                                                    
                                                                                                    
                                                                                                    
                                                                                                    
                                                                                                    
                                                                                                    
                                                                                                    
                                                                                                    
                                                                                                    
                                                                                                    
                           
<?xpacket end="w"?></metadata>
<defs>
    <style>
      .cls-1 {
        fill-rule: evenodd;
      }
    </style>
  </defs>
  <path id="_2018_Civic" data-name="2018 Civic" class="cls-1" d="M842.857,136.948a1.054,1.054,0,0,0-.12.442,0.657,0.657,0,0,0,.683.669,0.822,0.822,0,0,0,.719-0.537,1.386,1.386,0,0,1,1.306-.92,1.275,1.275,0,0,1,1.354,1.3,2.281,2.281,0,0,1-.863,1.661l-2.887,2.867a1.2,1.2,0,0,0-.492.9,0.777,0.777,0,0,0,.971.752h4.158a0.661,0.661,0,1,0,0-1.314h-3.2l2.444-2.33a3.491,3.491,0,0,0,1.366-2.557,2.556,2.556,0,0,0-2.828-2.473A2.836,2.836,0,0,0,842.857,136.948Zm12.954,2.9c0-2.737-1.066-4.445-2.983-4.445s-3.008,1.708-3.008,4.445,1.079,4.444,3.008,4.444S855.811,142.588,855.811,139.852Zm-1.473,0c0,1.182-.228,3.226-1.51,3.226s-1.534-2.044-1.534-3.226,0.24-3.25,1.534-3.25S854.338,138.669,854.338,139.852Zm5.489,3.536a0.723,0.723,0,1,0,1.438,0V136.47a0.819,0.819,0,0,0-.851-0.956,1.154,1.154,0,0,0-.719.311l-1.869,1.506a0.756,0.756,0,0,0-.336.585,0.614,0.614,0,0,0,.623.633,0.835,0.835,0,0,0,.492-0.179l1.222-1v6.022Zm10.318-5.687a2.4,2.4,0,0,0-2.684-2.294,2.448,2.448,0,0,0-2.684,2.354,1.872,1.872,0,0,0,1.318,1.852v0.024a2.1,2.1,0,0,0-1.594,2.055c0,1.684,1.331,2.6,2.96,2.6s2.96-.92,2.96-2.6a2.093,2.093,0,0,0-1.594-2.055v-0.024A1.912,1.912,0,0,0,870.145,137.7Zm-1.45.084a1.23,1.23,0,0,1-1.234,1.23,1.184,1.184,0,0,1-1.222-1.23,1.149,1.149,0,0,1,1.222-1.195A1.192,1.192,0,0,1,868.7,137.785Zm0.228,3.9a1.469,1.469,0,0,1-2.936,0A1.468,1.468,0,0,1,868.923,141.68Zm10.264,2.616a3.906,3.906,0,0,0,2.708-.956,0.922,0.922,0,0,0,.312-0.645,0.638,0.638,0,0,0-.671-0.657,0.8,0.8,0,0,0-.564.251,2.538,2.538,0,0,1-1.773.657,2.841,2.841,0,0,1-2.876-3.118,2.918,2.918,0,0,1,2.936-3.095,2.431,2.431,0,0,1,1.534.526,0.942,0.942,0,0,0,.575.239,0.69,0.69,0,0,0,.707-0.693,0.783,0.783,0,0,0-.336-0.621,3.986,3.986,0,0,0-2.48-.777A4.446,4.446,0,1,0,879.187,144.3Zm5.827-7.9a0.925,0.925,0,1,0-.935.86A0.884,0.884,0,0,0,885.014,136.4Zm-0.2,6.989v-4.349a0.723,0.723,0,1,0-1.438,0v4.349A0.723,0.723,0,1,0,884.81,143.388Zm5.027,0.012,1.749-4.1a1.019,1.019,0,0,0,.1-0.406,0.661,0.661,0,0,0-.707-0.657,0.729,0.729,0,0,0-.7.573l-1.474,3.716h-0.024l-1.438-3.7a0.73,0.73,0,0,0-.707-0.585,0.686,0.686,0,0,0-.731.681,1.023,1.023,0,0,0,.1.406l1.75,4.074A1.083,1.083,0,0,0,889.837,143.4Zm4.552-7a0.925,0.925,0,1,0-.934.86A0.884,0.884,0,0,0,894.389,136.4Zm-0.2,6.989v-4.349a0.723,0.723,0,1,0-1.438,0v4.349A0.723,0.723,0,1,0,894.186,143.388Zm5.35-.585a1.507,1.507,0,0,1-.851.239,1.652,1.652,0,0,1-1.582-1.828,1.678,1.678,0,0,1,1.582-1.84,1.348,1.348,0,0,1,.815.263,0.776,0.776,0,0,0,.479.191,0.611,0.611,0,0,0,.623-0.622,0.753,0.753,0,0,0-.407-0.621,2.746,2.746,0,0,0-1.51-.406,2.95,2.95,0,0,0-3.08,3.035,3.057,3.057,0,0,0,4.6,2.616,0.719,0.719,0,0,0,.383-0.633,0.562,0.562,0,0,0-.587-0.573A0.879,0.879,0,0,0,899.536,142.8Z" transform="translate(-842.562 -135.406)"/>
</svg>
