<svg xmlns="http://www.w3.org/2000/svg" viewBox="0 0 342.02 43.89"><defs><style>.cls-1{fill:#e31937;}.cls-2{fill:#fff;}</style></defs><title>Asset 6</title><g id="Layer_2" data-name="Layer 2"><g id="Layer_1-2" data-name="Layer 1"><rect class="cls-1" width="342.02" height="43.89" rx="7.68" ry="7.68"/><path class="cls-2" d="M29.94,14.35a8,8,0,0,1,5.16,2,.41.41,0,0,1,0,.59l-1.31,1.38a.36.36,0,0,1-.55,0,4.79,4.79,0,0,0-3.19-1.23,4.88,4.88,0,0,0,0,9.75,6.63,6.63,0,0,0,2.52-.53v-1.8H30.91a.38.38,0,0,1-.4-.38V22.43a.39.39,0,0,1,.4-.4H35a.4.4,0,0,1,.38.4v5.41a.4.4,0,0,1-.17.34,10.68,10.68,0,0,1-5.25,1.38,7.6,7.6,0,0,1,0-15.21Z"/><path class="cls-2" d="M39,15a.4.4,0,0,1,.4-.4H48a.4.4,0,0,1,.4.4V16.7a.4.4,0,0,1-.4.4H41.74v3.47H47a.42.42,0,0,1,.4.4v1.76a.4.4,0,0,1-.4.4H41.74v3.7H48a.4.4,0,0,1,.4.4V29a.4.4,0,0,1-.4.4H39.39A.4.4,0,0,1,39,29Z"/><path class="cls-2" d="M53.94,17.1H50.71a.4.4,0,0,1-.4-.4V15a.4.4,0,0,1,.4-.4h9.24a.4.4,0,0,1,.4.4V16.7a.4.4,0,0,1-.4.4H56.71V29a.42.42,0,0,1-.4.4h-2a.42.42,0,0,1-.4-.4Z"/><path class="cls-2" d="M70.27,17.1H67a.4.4,0,0,1-.4-.4V15a.4.4,0,0,1,.4-.4h9.24a.4.4,0,0,1,.4.4V16.7a.4.4,0,0,1-.4.4H73V29a.42.42,0,0,1-.4.4h-2a.42.42,0,0,1-.4-.4Z"/><path class="cls-2" d="M79.41,15a.42.42,0,0,1,.4-.4h2a.42.42,0,0,1,.4.4V29a.42.42,0,0,1-.4.4h-2a.42.42,0,0,1-.4-.4Z"/><path class="cls-2" d="M93.11,14.35a7.16,7.16,0,0,1,5.12,2,.39.39,0,0,1,0,.59L97,18.24a.34.34,0,0,1-.53,0A5,5,0,0,0,93.17,17a4.8,4.8,0,0,0-4.72,4.93,4.79,4.79,0,0,0,4.74,4.89,5.08,5.08,0,0,0,3.24-1.21.39.39,0,0,1,.53,0L98.27,27a.4.4,0,0,1,0,.57,7.26,7.26,0,0,1-5.14,2.05,7.61,7.61,0,1,1,0-15.23Z"/><path class="cls-2" d="M101.55,15.07a.5.5,0,0,1,.51-.51h1.86a.51.51,0,0,1,.51.51v5.71l5.33-6a.51.51,0,0,1,.4-.21h2.11a.45.45,0,0,1,.34.76l-5.52,6.22L113,28.62a.46.46,0,0,1-.38.74h-2.31a.46.46,0,0,1-.38-.15l-5.52-6.81v6.45a.51.51,0,0,1-.51.51h-1.86a.5.5,0,0,1-.51-.51Z"/><path class="cls-2" d="M115.87,15a.4.4,0,0,1,.4-.4h8.61a.4.4,0,0,1,.4.4V16.7a.4.4,0,0,1-.4.4h-6.26v3.47h5.22a.42.42,0,0,1,.4.4v1.76a.4.4,0,0,1-.4.4h-5.22v3.7h6.26a.4.4,0,0,1,.4.4V29a.4.4,0,0,1-.4.4h-8.61a.4.4,0,0,1-.4-.4Z"/><path class="cls-2" d="M130.82,17.1h-3.24a.4.4,0,0,1-.4-.4V15a.4.4,0,0,1,.4-.4h9.24a.4.4,0,0,1,.4.4V16.7a.4.4,0,0,1-.4.4h-3.24V29a.42.42,0,0,1-.4.4h-2a.42.42,0,0,1-.4-.4Z"/><path class="cls-2" d="M139.09,27.29l.76-1.31a.49.49,0,0,1,.72-.15,7,7,0,0,0,3.19,1.31,1.77,1.77,0,0,0,1.92-1.63c0-1.08-.91-1.82-2.69-2.54-2-.8-4-2.07-4-4.57,0-1.88,1.4-4.06,4.76-4.06A7.46,7.46,0,0,1,148,15.76a.53.53,0,0,1,.13.7l-.8,1.21a.56.56,0,0,1-.74.25,7,7,0,0,0-2.94-1.16,1.68,1.68,0,0,0-1.86,1.48c0,1,.78,1.67,2.5,2.37,2.05.82,4.42,2.05,4.42,4.78,0,2.18-1.88,4.19-4.86,4.19a6.8,6.8,0,0,1-4.65-1.65C139,27.73,138.9,27.63,139.09,27.29Z"/><path class="cls-2" d="M157.15,15a.4.4,0,0,1,.4-.4h8.61a.4.4,0,0,1,.4.4V16.7a.4.4,0,0,1-.4.4H159.9v4h5.22a.42.42,0,0,1,.4.4v1.73a.42.42,0,0,1-.4.4H159.9V29a.42.42,0,0,1-.4.4h-1.95a.4.4,0,0,1-.4-.4Z"/><path class="cls-2" d="M169.61,15a.4.4,0,0,1,.4-.4h6a4.58,4.58,0,0,1,4.61,4.55,4.67,4.67,0,0,1-3.13,4.27l2.9,5.37a.4.4,0,0,1-.36.61h-2.22a.36.36,0,0,1-.34-.19l-2.81-5.6h-2.35V29a.42.42,0,0,1-.4.4H170a.4.4,0,0,1-.4-.4Zm6.22,6.34a2.15,2.15,0,0,0,2.09-2.16,2.11,2.11,0,0,0-2.09-2.05h-3.45V21.3Z"/><path class="cls-2" d="M184.22,15a.42.42,0,0,1,.4-.4h2a.42.42,0,0,1,.4.4V29a.42.42,0,0,1-.4.4h-2a.42.42,0,0,1-.4-.4Z"/><path class="cls-2" d="M191.37,15a.4.4,0,0,1,.38-.4h5a7.4,7.4,0,1,1,0,14.8h-5a.4.4,0,0,1-.38-.4Zm5.14,11.82a4.67,4.67,0,0,0,4.76-4.84,4.66,4.66,0,0,0-4.76-4.82h-2.41v9.67Z"/><path class="cls-2" d="M205.45,28.81,212,14.58a.38.38,0,0,1,.36-.23h.21a.36.36,0,0,1,.36.23l6.51,14.23a.37.37,0,0,1-.36.55h-1.84a.61.61,0,0,1-.61-.42l-1-2.28H209.3l-1,2.28a.64.64,0,0,1-.61.42h-1.84A.37.37,0,0,1,205.45,28.81Zm9.14-4.5-2.11-4.65h-.06l-2.07,4.65Z"/><path class="cls-2" d="M223.66,22.24l-4.82-7.06a.39.39,0,0,1,.34-.61h2.16a.42.42,0,0,1,.34.19l3.38,4.86,3.38-4.86a.42.42,0,0,1,.34-.19H231a.39.39,0,0,1,.34.61l-4.89,7V29a.42.42,0,0,1-.4.4h-1.95a.4.4,0,0,1-.4-.4Z"/><path class="cls-2" d="M233.67,26.11c.91,0,2.14.68,2.14,2.77a5.39,5.39,0,0,1-2.41,4.57.36.36,0,0,1-.53,0l-.32-.34a.38.38,0,0,1,.08-.57,4.21,4.21,0,0,0,1.69-3.09,2.23,2.23,0,0,1-.8.17,1.73,1.73,0,0,1-1.71-1.71A1.79,1.79,0,0,1,233.67,26.11Z"/><path class="cls-2" d="M242.25,28.81l6.58-14.23a.38.38,0,0,1,.36-.23h.21a.36.36,0,0,1,.36.23l6.51,14.23a.37.37,0,0,1-.36.55h-1.84a.61.61,0,0,1-.61-.42l-1-2.28H246.1l-1,2.28a.64.64,0,0,1-.61.42h-1.84A.37.37,0,0,1,242.25,28.81Zm9.14-4.5-2.12-4.65h-.06l-2.07,4.65Z"/><path class="cls-2" d="M258.73,15a.4.4,0,0,1,.4-.4h5a4.72,4.72,0,1,1,0,9.43h-2.64v5a.42.42,0,0,1-.4.4h-1.95a.4.4,0,0,1-.4-.4Zm5.2,6.45a2.18,2.18,0,0,0,2.18-2.2,2.11,2.11,0,0,0-2.18-2.05h-2.45v4.25Z"/><path class="cls-2" d="M271.78,15a.4.4,0,0,1,.4-.4h6a4.58,4.58,0,0,1,4.61,4.55,4.67,4.67,0,0,1-3.13,4.27l2.9,5.37a.4.4,0,0,1-.36.61H280a.36.36,0,0,1-.34-.19l-2.81-5.6h-2.35V29a.42.42,0,0,1-.4.4h-1.95a.4.4,0,0,1-.4-.4ZM278,21.3a2.15,2.15,0,0,0,2.09-2.16A2.11,2.11,0,0,0,278,17.1h-3.45V21.3Z"/><path class="cls-2" d="M286.39,15a.42.42,0,0,1,.4-.4h2a.42.42,0,0,1,.4.4V29a.42.42,0,0,1-.4.4h-2a.42.42,0,0,1-.4-.4Z"/><path class="cls-2" d="M293.54,15a.4.4,0,0,1,.4-.4h1.95a.42.42,0,0,1,.4.4V26.82h5.39a.4.4,0,0,1,.4.4V29a.4.4,0,0,1-.4.4h-7.74a.4.4,0,0,1-.4-.4Z"/><path class="cls-2" d="M311.58,22v-.06a4,4,0,0,1-2.18-3.28c0-2.35,2-3.87,4.59-3.87s4.67,1.52,4.67,3.87a4.06,4.06,0,0,1-2.18,3.26V22c1,.49,2.56,1.71,2.56,3.53,0,2.3-1.95,4.06-5.05,4.06s-5-1.76-5-4.06C309,23.67,311,22.28,311.58,22ZM314,27.42a2.06,2.06,0,0,0,2.2-1.95,2.2,2.2,0,1,0-4.4,0A2.07,2.07,0,0,0,314,27.42ZM316,18.75a1.86,1.86,0,0,0-2-1.8,1.84,1.84,0,0,0-1.88,1.8c0,1,.59,1.69,1.92,2C315.34,20.46,316,19.66,316,18.75Z"/></g></g></svg>