<?xml version="1.0" encoding="utf-8"?>
<!-- Generator: Adobe Illustrator 22.0.0, SVG Export Plug-In . SVG Version: 6.00 Build 0)  -->
<svg version="1.1" id="CTA" xmlns="http://www.w3.org/2000/svg" xmlns:xlink="http://www.w3.org/1999/xlink" x="0px" y="0px"
	 viewBox="0 0 104 32" style="enable-background:new 0 0 104 32;" xml:space="preserve">
<style type="text/css">
	.st0{fill:#2364BC;}
	.st1{fill:#FFFFFF;}
</style>
<path id="Round_btn" class="st0" d="M6,0h92c3.3,0,6,2.7,6,6v20c0,3.3-2.7,6-6,6H6c-3.3,0-6-2.7-6-6V6C0,2.7,2.7,0,6,0z"/>
<path id="SEE_OFFERS" class="st1" d="M16.5,10.7c-0.5-0.4-1-0.8-1.6-1c-0.6-0.2-1.2-0.3-1.8-0.3c-0.5,0-1,0.1-1.4,0.2
	c-0.5,0.1-0.9,0.3-1.3,0.6c-0.8,0.6-1.3,1.5-1.3,2.5c0,0.4,0.1,0.8,0.2,1.2c0.1,0.3,0.3,0.6,0.6,0.9c0.2,0.2,0.5,0.4,0.8,0.6
	c0.3,0.2,0.6,0.3,1,0.4c0.3,0.1,0.6,0.2,0.9,0.3c0.2,0.1,0.5,0.2,0.7,0.3c0.2,0.1,0.3,0.2,0.4,0.4c0.1,0.1,0.2,0.3,0.2,0.5
	c0,0.2,0,0.4-0.1,0.5c-0.1,0.1-0.2,0.3-0.3,0.4c-0.1,0.1-0.3,0.2-0.5,0.2c-0.2,0-0.4,0.1-0.5,0.1c-0.4,0-0.9-0.1-1.2-0.3
	c-0.4-0.2-0.7-0.5-1-0.8L8.6,19c0.5,0.5,1.1,0.9,1.7,1.1c0.7,0.3,1.4,0.4,2.1,0.4c0.5,0,1-0.1,1.5-0.2c0.5-0.1,0.9-0.3,1.3-0.6
	c0.4-0.3,0.7-0.7,0.9-1.1c0.2-0.5,0.4-1,0.3-1.6c0-0.5-0.1-0.9-0.3-1.3c-0.2-0.3-0.5-0.6-0.8-0.9c-0.3-0.2-0.7-0.4-1-0.6
	c-0.4-0.1-0.7-0.3-1.1-0.4c-0.2-0.1-0.5-0.2-0.7-0.2c-0.2-0.1-0.3-0.1-0.5-0.2c-0.1-0.1-0.2-0.2-0.3-0.3c-0.1-0.1-0.1-0.3-0.1-0.4
	c0-0.2,0-0.4,0.1-0.5c0.1-0.1,0.2-0.2,0.3-0.3c0.1-0.1,0.3-0.1,0.5-0.2c0.2,0,0.3,0,0.5,0c0.3,0,0.7,0.1,1,0.2
	c0.3,0.2,0.6,0.4,0.8,0.7L16.5,10.7z M25.4,20.3v-2.2h-4.8v-2.2h4.3v-2h-4.3v-2h4.5V9.7h-6.9v10.6L25.4,20.3L25.4,20.3z M34.4,20.3
	v-2.2h-4.8v-2.2h4.3v-2h-4.3v-2h4.5V9.7h-6.9v10.6L34.4,20.3L34.4,20.3z M50.3,12.7c-0.3-0.7-0.7-1.3-1.2-1.7
	c-0.5-0.5-1.1-0.9-1.8-1.1c-1.4-0.5-3-0.5-4.5,0c-0.7,0.2-1.3,0.6-1.8,1.1c-0.5,0.5-0.9,1.1-1.2,1.7c-0.3,0.7-0.4,1.5-0.4,2.3
	c0,0.8,0.1,1.6,0.4,2.3c0.3,0.7,0.7,1.3,1.2,1.8c0.5,0.5,1.1,0.9,1.8,1.1c1.4,0.5,3,0.5,4.5,0c0.7-0.3,1.3-0.6,1.8-1.1
	c0.5-0.5,0.9-1.1,1.2-1.8c0.3-0.7,0.4-1.5,0.4-2.3C50.7,14.2,50.6,13.4,50.3,12.7z M47.8,16.3c-0.1,0.4-0.3,0.7-0.6,1
	c-0.5,0.6-1.3,0.9-2.1,0.9c-0.4,0-0.8-0.1-1.2-0.2c-0.3-0.2-0.7-0.4-0.9-0.7c-0.3-0.3-0.5-0.7-0.6-1c-0.1-0.4-0.2-0.9-0.2-1.3
	c0-0.4,0.1-0.9,0.2-1.3c0.1-0.4,0.3-0.7,0.6-1c0.3-0.3,0.6-0.5,0.9-0.7c0.8-0.3,1.6-0.3,2.4,0c0.4,0.2,0.7,0.4,0.9,0.7
	c0.3,0.3,0.5,0.6,0.6,1c0.2,0.4,0.2,0.8,0.2,1.3C48.1,15.4,48,15.9,47.8,16.3z M59.3,11.9V9.7h-6.8v10.6H55v-4.1h4v-2.1h-4v-2.2
	H59.3z M67.8,11.9V9.7H61v10.6h2.5v-4.1h4v-2.1h-4v-2.2H67.8z M76.8,20.3v-2.2H72v-2.2h4.3v-2H72v-2h4.5V9.7h-6.9v10.6L76.8,20.3
	L76.8,20.3z M87,20.3l-2.7-4.5c0.6-0.2,1.2-0.5,1.6-1c0.4-0.5,0.6-1.2,0.6-1.8c0-0.5-0.1-1.1-0.3-1.5c-0.2-0.4-0.5-0.7-0.9-1
	c-0.4-0.3-0.8-0.4-1.3-0.5c-0.5-0.1-1-0.2-1.4-0.2h-3.9v10.6H81v-4.2h0.8l2.2,4.2L87,20.3L87,20.3z M83.8,13.6
	c-0.1,0.2-0.3,0.3-0.4,0.4c-0.2,0.1-0.4,0.2-0.6,0.2c-0.2,0-0.4,0.1-0.6,0.1H81v-2.5h1.3c0.2,0,0.4,0,0.6,0c0.2,0,0.4,0.1,0.5,0.2
	c0.2,0.1,0.3,0.2,0.4,0.4c0.1,0.2,0.2,0.4,0.2,0.6C84,13.2,83.9,13.4,83.8,13.6L83.8,13.6z M95.4,10.7c-0.5-0.4-1-0.8-1.6-1
	c-0.6-0.2-1.2-0.3-1.8-0.3c-0.5,0-1,0.1-1.4,0.2c-0.5,0.1-0.9,0.3-1.3,0.6c-0.8,0.6-1.3,1.5-1.3,2.5c0,0.4,0.1,0.8,0.2,1.2
	c0.1,0.3,0.3,0.6,0.6,0.9c0.2,0.2,0.5,0.4,0.8,0.6c0.3,0.1,0.6,0.3,1,0.4c0.3,0.1,0.6,0.2,0.9,0.3c0.2,0.1,0.5,0.2,0.7,0.3
	c0.2,0.1,0.3,0.2,0.4,0.4c0.1,0.2,0.1,0.3,0.1,0.5c0,0.2,0,0.4-0.1,0.5c-0.1,0.1-0.2,0.3-0.3,0.4c-0.1,0.1-0.3,0.2-0.4,0.2
	c-0.2,0-0.4,0.1-0.5,0.1c-0.4,0-0.9-0.1-1.2-0.3c-0.4-0.2-0.7-0.5-1-0.8L87.5,19c0.5,0.5,1.1,0.9,1.7,1.1c0.7,0.3,1.4,0.4,2.1,0.4
	c0.5,0,1-0.1,1.5-0.2c0.5-0.1,0.9-0.4,1.3-0.6c0.4-0.3,0.7-0.7,0.9-1.1c0.2-0.5,0.3-1,0.3-1.6c0-0.5-0.1-0.9-0.3-1.3
	c-0.2-0.3-0.5-0.6-0.8-0.9c-0.3-0.2-0.7-0.4-1-0.6c-0.4-0.1-0.7-0.3-1.1-0.4c-0.2-0.1-0.5-0.2-0.7-0.2c-0.2-0.1-0.3-0.2-0.5-0.2
	c-0.1-0.1-0.2-0.2-0.3-0.3c-0.1-0.1-0.1-0.3-0.1-0.4c0-0.2,0-0.4,0.1-0.5c0.1-0.1,0.2-0.2,0.3-0.3c0.1-0.1,0.3-0.1,0.5-0.2
	c0.2,0,0.3,0,0.5,0c0.3,0,0.7,0.1,1,0.2c0.3,0.1,0.6,0.4,0.8,0.7L95.4,10.7z"/>
</svg>
