<svg xmlns="http://www.w3.org/2000/svg" viewBox="0 0 323 60.04"><defs><style>.cls-1{fill:#fff;}.cls-2{fill:#e31937;}</style></defs><title>Asset 5</title><g id="Layer_2" data-name="Layer 2"><g id="Layer_1-2" data-name="Layer 1"><path d="M314.95,0H8A8.12,8.12,0,0,0,0,8.17V51.87A8.12,8.12,0,0,0,8,60h306.9A8.12,8.12,0,0,0,323,51.87V8.17A8.12,8.12,0,0,0,314.95,0Z"/><path class="cls-1" d="M2.7,51.87V8.18A5.42,5.42,0,0,1,8,2.69h306.9a5.42,5.42,0,0,1,5.35,5.48V51.87a5.42,5.42,0,0,1-5.35,5.47H8A5.42,5.42,0,0,1,2.7,51.87Z"/><polygon class="cls-2" points="19.64 38.87 19.64 21.2 15.88 21.2 15.88 38.87 15.88 42.63 15.88 42.63 35.76 42.63 35.76 38.87 19.64 38.87"/><path d="M155.77,23a6.11,6.11,0,0,0-4.51-1.77H132.75V42.63h3.76V25h14.76a2.33,2.33,0,0,1,2.52,2.51V42.63h3.76V27.51A6.14,6.14,0,0,0,155.77,23Z"/><path d="M234.92,42.63h-3.76V21.17h3.76Z"/><path class="cls-2" d="M80.33,21.2,71,41a3,3,0,0,1-5.39,0L56.19,21.2h4.16L67.5,36.08a.86.86,0,0,0,1.52,0L76.17,21.2Z"/><path class="cls-2" d="M110.37,42.63H92.15a6.06,6.06,0,0,1-4.5-1.79,6.14,6.14,0,0,1-1.78-4.52V27.51a6,6,0,0,1,6.28-6.3h18.23V25H92.14a2.22,2.22,0,0,0-2.51,2.51V30h20.75v3.8H89.63v2.51a2.33,2.33,0,0,0,2.51,2.51h18.23Z"/><path d="M191.71,42.63h-3.76V36.88H171v5.75H167.2V27.51a6,6,0,0,1,6.28-6.3h11.95a6.08,6.08,0,0,1,6.28,6.3Zm-3.76-9.55V27.51A2.22,2.22,0,0,0,185.43,25h-12A2.22,2.22,0,0,0,171,27.51v5.58Z"/><path d="M222.8,25H212.41V42.63h-3.76V25H198.29V21.2H222.8Z"/><path d="M267.92,36.33a5.95,5.95,0,0,1-6.28,6.31H249.69a6,6,0,0,1-6.28-6.31V27.51A6.09,6.09,0,0,1,245.24,23a6,6,0,0,1,4.46-1.84h11.95a6.13,6.13,0,0,1,6.28,6.3Zm-3.76,0V27.51A2.37,2.37,0,0,0,261.64,25h-12a2.46,2.46,0,0,0-2.51,2.51v8.82a2.22,2.22,0,0,0,2.51,2.51h12A2.22,2.22,0,0,0,264.16,36.33Z"/><path d="M299.07,23a6.09,6.09,0,0,0-4.5-1.77H276.06V42.63h3.76V25h14.77a2.33,2.33,0,0,1,2.51,2.51V42.63h3.76V27.51A6.12,6.12,0,0,0,299.07,23Z"/><path d="M55.09,11.5l-.63-1.11c-.1-.18-.28,0-.28,0s-.54.4-.82.59a.55.55,0,0,0-.27.54c0,.12-.09.84-.09.84a.67.67,0,0,1-.17.38h0l-4.69,3.64-.58.13-1.45.7.08-1c.1.06.26.21.38.23a1.1,1.1,0,0,0,.35,0,1.07,1.07,0,0,1-.08-.3,2.27,2.27,0,0,1,0-.28,1,1,0,0,0,.38.14.57.57,0,0,0,.35-.11,1.83,1.83,0,0,0,.16-.15,2.53,2.53,0,0,1-.36-.26c-.06-.07-.16-.17-.1-.17s.34-.19.34-.19a2.66,2.66,0,0,1-.25-.18.71.71,0,0,1-.23-.33,2.38,2.38,0,0,1-.07-.24.33.33,0,0,0,.27.11.6.6,0,0,0,.31-.11.9.9,0,0,1-.21-.16.86.86,0,0,1-.2-.34l-.14-.43c0-.07,0-.18-.09-.37a1.08,1.08,0,0,0-.24-.6A3.22,3.22,0,0,0,45,11.48c-.64-.13-1.29.7-1.54,1.55a8.09,8.09,0,0,0-.3,2.77.58.58,0,0,0,.25.41,3.93,3.93,0,0,0,.68.21L44,17.54l-1.34.12-1.84-1.1L37.09,13.8a.49.49,0,0,1-.17-.39s-.09-.72-.09-.84a.54.54,0,0,0-.27-.54c-.29-.19-.82-.59-.82-.59s-.17-.15-.28,0l-.63,1.11.28,1.06a3,3,0,0,0,.28.4l.24.24L37,15.52h0l2.26,2,.65.63a.47.47,0,0,1,0,.21c0,.12,0,.51,0,.51a.25.25,0,0,0,.06.19c.08.07,1.29,1.06,1.29,1.06a.33.33,0,0,1,.08.25l.21,7.29a.11.11,0,0,0,.12.11l.39.15.89,8,1.7,5.26L42,42.48a.34.34,0,0,0-.14.17,2.11,2.11,0,0,0-.16.37.13.13,0,0,0,.08.13h4l-.39,1-.1.28s-.14.54.09.62a5.48,5.48,0,0,0,1.26.09A3.72,3.72,0,0,0,47.94,45c.11-.11.16-.59-.42-3.82l-.35-12.44,1-7.79c.1-.86.21-1,.21-1s1.1-.82,1.2-.91a.34.34,0,0,0,.09-.26v-.87a.63.63,0,0,1,.06-.28l.89-.86.27-.27,2.85-2.74.5-.57h0l.24-.24a2.62,2.62,0,0,0,.28-.4l.28-.69A.57.57,0,0,0,55.09,11.5Z"/><path d="M304.25,24a3.23,3.23,0,0,1,.71-1,3.31,3.31,0,0,1,2.31-.93,3.25,3.25,0,0,1,3,2,3.14,3.14,0,0,1,.26,1.28,3.21,3.21,0,0,1-.26,1.3,3.27,3.27,0,0,1-.71,1,3.15,3.15,0,0,1-1,.68,3.29,3.29,0,0,1-1.26.24,3.32,3.32,0,0,1-1.26-.24,3.21,3.21,0,0,1-1-.68,3.27,3.27,0,0,1-.71-1,3.21,3.21,0,0,1-.26-1.3A3.13,3.13,0,0,1,304.25,24Zm.54,2.39a2.73,2.73,0,0,0,.57.88,2.59,2.59,0,0,0,.85.59,2.63,2.63,0,0,0,1.06.21,2.62,2.62,0,0,0,1.9-.8,2.73,2.73,0,0,0,.57-.88,2.94,2.94,0,0,0,.2-1.11,2.86,2.86,0,0,0-.2-1.09,2.68,2.68,0,0,0-.57-.87,2.64,2.64,0,0,0-.85-.58,2.6,2.6,0,0,0-1.05-.21,2.66,2.66,0,0,0-1.92.8,2.68,2.68,0,0,0-.57.87,2.86,2.86,0,0,0-.2,1.09A2.94,2.94,0,0,0,304.79,26.35Z"/><path d="M308.94,26.67s0-.59,0-.82a.84.84,0,0,0-.23-.57.85.85,0,0,0,.23-.57.82.82,0,0,0-.82-.82h-2.37v2.79h.49v-.5h0v-.65h1.88a.33.33,0,0,1,.33.33s0,.82,0,.82m-.1-1.74a.31.31,0,0,1-.23.1h-1.88v-.65h1.88a.33.33,0,0,1,.23.56Z"/></g></g></svg>