<svg xmlns="http://www.w3.org/2000/svg" width="78.344" height="12.031" viewBox="0 0 78.344 12.031">
  <metadata><?xpacket begin="﻿" id="W5M0MpCehiHzreSzNTczkc9d"?>
<x:xmpmeta xmlns:x="adobe:ns:meta/" x:xmptk="Adobe XMP Core 5.6-c140 79.160451, 2017/05/06-01:08:21        ">
   <rdf:RDF xmlns:rdf="http://www.w3.org/1999/02/22-rdf-syntax-ns#">
      <rdf:Description rdf:about=""/>
   </rdf:RDF>
</x:xmpmeta>
                                                                                                    
                                                                                                    
                                                                                                    
                                                                                                    
                                                                                                    
                                                                                                    
                                                                                                    
                                                                                                    
                                                                                                    
                                                                                                    
                                                                                                    
                                                                                                    
                                                                                                    
                                                                                                    
                                                                                                    
                                                                                                    
                                                                                                    
                                                                                                    
                                                                                                    
                                                                                                    
                           
<?xpacket end="w"?></metadata>
<defs>
    <style>
      .cls-1 {
        fill-rule: evenodd;
      }
    </style>
  </defs>
  <path id="Plug-In_Hybrid" data-name="Plug-In Hybrid" class="cls-1" d="M683.181,137.179h1.1c0.935,0,1.834.179,1.834,1.183s-0.9,1.243-1.882,1.243h-1.054v-2.426Zm-0.611-1.266a0.784,0.784,0,0,0-.9.9v6.822a0.76,0.76,0,1,0,1.51,0v-2.76h1.162c1.8,0,3.3-.645,3.3-2.509,0-1.768-1.258-2.449-3.2-2.449H682.57Zm6.376,7.766a0.723,0.723,0,1,0,1.438,0v-7.647a0.723,0.723,0,1,0-1.438,0v7.647Zm8.441-4.349a0.723,0.723,0,1,0-1.437,0v2.461a1.405,1.405,0,0,1-1.343,1.554c-0.922,0-1.078-.849-1.078-1.53V139.33a0.723,0.723,0,1,0-1.438,0v2.891a2.09,2.09,0,0,0,2.121,2.318A1.956,1.956,0,0,0,696,143.452h0.024v0.275a0.686,0.686,0,1,0,1.366,0v-4.4Zm1.966,7.193a4.2,4.2,0,0,0,2.373.717c2.241,0,3.247-1.315,3.247-3.382v-4.576a0.686,0.686,0,1,0-1.366,0V139.5h-0.024a2.237,2.237,0,0,0-1.977-1.027,3,3,0,0,0,.024,6,2.265,2.265,0,0,0,1.881-.861h0.024v0.419A1.675,1.675,0,0,1,701.714,146a2.693,2.693,0,0,1-1.57-.55,0.859,0.859,0,0,0-.515-0.191,0.638,0.638,0,0,0-.647.657A0.767,0.767,0,0,0,699.353,146.523Zm0.9-5.054a1.665,1.665,0,0,1,1.654-1.828A1.831,1.831,0,1,1,700.252,141.469Zm8.378,0.573a0.613,0.613,0,1,0,0-1.219H706.9a0.613,0.613,0,1,0,0,1.219h1.726Zm3.506-5.388a0.76,0.76,0,1,0-1.51,0v6.977a0.76,0.76,0,1,0,1.51,0v-6.977Zm1.8,7.025a0.723,0.723,0,1,0,1.438,0v-2.461a1.4,1.4,0,0,1,1.342-1.554c0.923,0,1.079.849,1.079,1.53v2.485a0.723,0.723,0,1,0,1.437,0v-2.891a2.09,2.09,0,0,0-2.12-2.318,1.959,1.959,0,0,0-1.786,1.087h-0.024v-0.275a0.686,0.686,0,1,0-1.366,0v4.4Zm15.536-.048a0.76,0.76,0,1,0,1.51,0v-6.977a0.76,0.76,0,1,0-1.51,0v2.676h-3.966v-2.676a0.76,0.76,0,1,0-1.51,0v6.977a0.76,0.76,0,1,0,1.51,0V140.62h3.966v3.011Zm8.356-4.062a1.082,1.082,0,0,0,.084-0.394,0.653,0.653,0,0,0-.707-0.646,0.743,0.743,0,0,0-.707.6l-1.342,3.68h-0.024l-1.558-3.716a0.756,0.756,0,0,0-.719-0.562,0.682,0.682,0,0,0-.719.669,1.123,1.123,0,0,0,.1.419l2.169,4.755-0.287.729a1.149,1.149,0,0,1-1.019.9,1.307,1.307,0,0,0-.228.012,0.581,0.581,0,0,0-.479.585,0.668,0.668,0,0,0,.791.646,2.123,2.123,0,0,0,2.181-1.637Zm5.883,1.912a1.716,1.716,0,0,1-1.654,1.864,1.763,1.763,0,0,1-1.689-1.841,1.784,1.784,0,0,1,1.689-1.863A1.7,1.7,0,0,1,743.714,141.481Zm-4.733,2.246a0.686,0.686,0,1,0,1.366,0v-0.215h0.024a2.289,2.289,0,0,0,1.977,1.027,3.044,3.044,0,0,0,.036-6.069,2.353,2.353,0,0,0-1.929.9h-0.036v-3.334a0.723,0.723,0,1,0-1.438,0v7.695Zm9.037-.048v-2.246a1.44,1.44,0,0,1,1.425-1.637,0.679,0.679,0,0,0,.779-0.693,0.642,0.642,0,0,0-.743-0.633,1.646,1.646,0,0,0-1.5,1.123h-0.024v-0.3a0.693,0.693,0,1,0-1.378,0v4.385A0.723,0.723,0,1,0,748.018,143.679Zm4.6-6.99a0.925,0.925,0,1,0-.935.861A0.884,0.884,0,0,0,752.615,136.689Zm-0.2,6.99V139.33a0.723,0.723,0,1,0-1.438,0v4.349A0.723,0.723,0,1,0,752.411,143.679Zm2.87-2.2a1.7,1.7,0,0,1,1.653-1.84,1.784,1.784,0,0,1,1.69,1.863,1.764,1.764,0,0,1-1.69,1.841A1.716,1.716,0,0,1,755.281,141.481Zm4.733,2.246v-7.695a0.723,0.723,0,1,0-1.438,0v3.334H758.54a2.355,2.355,0,0,0-1.929-.9,3.044,3.044,0,0,0,.036,6.069,2.289,2.289,0,0,0,1.977-1.027h0.024v0.215A0.686,0.686,0,1,0,760.014,143.727Z" transform="translate(-681.656 -135.219)"/>
</svg>
