<?xml version="1.0" encoding="utf-8"?>
<!-- Generator: Adobe Illustrator 22.0.0, SVG Export Plug-In . SVG Version: 6.00 Build 0)  -->
<svg version="1.1" id="Layer_1" xmlns="http://www.w3.org/2000/svg" xmlns:xlink="http://www.w3.org/1999/xlink" x="0px" y="0px"
	 viewBox="0 0 316 205" style="enable-background:new 0 0 316 205;" xml:space="preserve">
<style type="text/css">
	.st0{fill:#B6006A;}
	.st1{enable-background:new    ;}
	.st2{clip-path:url(#SVGID_2_);}
	.st3{fill:#FFFFFF;}
</style>
<title>honda_summer_logo</title>
<g id="Layer_2_1_">
	<g id="Layer_1-2">
		<g>
			<polyline class="st0" points="0.6,172.2 316,123.9 316,62.3 0.6,110.6 0.6,172.2 			"/>
		</g>
		<g class="st1">
			<path d="M24.2,78.1L9.7,80.3v11.1c0,2.6-1.8,3.4-2.8,3.5s-2.8-0.1-2.8-2.7V66.5c0-2.6,1.8-3.4,2.8-3.5s2.8,0.1,2.8,2.7v9.9
				l14.6-2.2v-9.9c0-2.6,1.8-3.4,2.8-3.5c0.9-0.1,2.8,0.1,2.8,2.7v25.7c0,2.6-1.8,3.4-2.8,3.5c-0.9,0.1-2.8-0.1-2.8-2.7V78.1z"/>
			<path d="M46.2,89.3c-6.4,1-11.5-2.9-11.5-9.5s5.1-11.9,11.5-12.8c6.4-1,11.5,2.7,11.5,9.4S52.6,88.3,46.2,89.3z M46.2,71.2
				c-4.2,0.6-6.1,4.4-6.1,7.7s1.9,6.6,6.1,5.9c4.2-0.6,6.1-4.5,6.1-7.8S50.4,70.6,46.2,71.2z"/>
			<path d="M62.4,67.5c0-2.4,1.7-3,2.5-3.1c0.8-0.1,2.5,0,2.5,2.4v1l0.1,0c0.9-2.3,3.4-4.5,6.6-5c5.5-0.8,7.8,3.1,7.8,7.4v10.7
				c0,2.5-1.8,3.2-2.6,3.3c-0.9,0.1-2.6,0-2.6-2.6v-9.2c0-2.5-0.6-5.5-4-5c-3.3,0.5-4.9,3.6-4.9,6.5v9.1c0,2.5-1.8,3.2-2.6,3.3
				c-0.9,0.1-2.6,0-2.6-2.6V67.5z"/>
			<path d="M106.5,80c-0.8,0.1-2.5,0-2.5-2.4v-0.8l-0.1,0c-1.5,2.6-4.3,4.4-7.3,4.9c-6.4,1-10.4-3.5-10.4-9.7
				c0-6.3,4.2-11.7,10.3-12.6c3.9-0.6,6,1,7.1,2.2l0.1,0V49.3c0-2.5,1.8-3.2,2.6-3.3c0.9-0.1,2.6,0,2.6,2.6v28.4
				C109,79.2,107.3,79.9,106.5,80z M97.7,77.1c3.9-0.6,6.2-4.4,6.2-7.7s-2.3-6.5-6.2-5.9c-4.1,0.6-6.1,4.4-6.1,7.7
				S93.6,77.7,97.7,77.1z"/>
		</g>
		<g class="st1">
			<path d="M130.8,76.4c-0.8,0.1-2.5,0-2.5-2.4v-0.3l-0.1,0c-1.1,2-3.6,3.7-6.6,4.2c-3.4,0.5-7.9-0.4-7.9-5.4
				c0-6.3,7.9-8.4,14.5-9.4v-0.5c0-2.6-2.2-3.5-4.8-3.1c-1.6,0.2-3.1,1.1-4.6,2.3c-0.5,0.4-1,0.6-1.4,0.7c-1.1,0.2-2-0.6-2-1.7
				c0-0.7,0.3-1.4,1.2-2.2c2-1.7,4.5-2.8,7.2-3.2c7.6-1.1,9.4,3.3,9.4,7.5v10.5C133.2,75.6,131.6,76.2,130.8,76.4z M127,66.9
				c-3.3,0.5-8.1,1.6-8.1,4.7c0,2,1.9,2.4,3.7,2.1c3.6-0.5,5.5-2.9,5.5-6.2v-0.7L127,66.9z"/>
		</g>
		<g class="st1">
			<path d="M159.4,69.3c3.2-0.5,6.9-3.1,6.9-7.1c0-4.4-3.7-4.9-7.6-5.5c-4.1-0.7-8.4-1.8-8.4-7.5c0-6,5.4-9.4,9.9-10.1
				c3.3-0.5,6.1,0.2,7.7,1.6c0.4,0.4,0.5,0.8,0.5,1.1c0,0.8-0.6,1.5-1.5,1.7c-0.3,0-0.7,0.1-1.4-0.4c-1.5-1.1-3.1-1.6-5.5-1.2
				c-3.1,0.5-6.6,2.8-6.6,6.9c0,4,3.3,4.5,6.8,5.1c4.4,0.8,9.2,1.5,9.2,7.7c0,6.3-5.2,9.8-10.2,10.5c-3.2,0.5-6.3-0.1-8.5-2
				c-0.5-0.4-0.7-0.9-0.7-1.3c0-0.8,0.6-1.6,1.5-1.8c0.4-0.1,0.7,0,1.2,0.4C154.9,69.1,157,69.6,159.4,69.3z"/>
			<path d="M192.9,61.7c0,0.8,0,2.6,0.1,3.3c0,1.3-1,1.7-1.4,1.8c-0.5,0.1-1.4,0-1.5-1.3c0-0.8-0.1-1.7-0.1-2.3l-0.1,0
				c-1.1,2.5-4.1,4.7-7,5.1c-5.2,0.8-7.8-2.2-7.8-7.3V49.6c0-1.4,1-1.8,1.5-1.9c0.5-0.1,1.5,0,1.5,1.4v10.1c0,4.3,1.3,7,5.6,6.4
				c3.2-0.5,6.2-3.5,6.2-9v-9.2c0-1.4,1-1.8,1.5-1.9c0.5-0.1,1.5,0,1.5,1.4V61.7z"/>
			<path d="M199.9,49.1c0-0.8,0-2.1-0.1-3.3c0-1.3,1-1.7,1.4-1.8c0.5-0.1,1.4,0,1.5,1.3l0.1,2.3l0.1,0c1.2-2.6,3.8-4.6,6.8-5.1
				c2.2-0.3,5,0.1,6.3,3.4c1.4-3,3.9-4.9,7.2-5.4c5.2-0.8,7.8,2.2,7.8,7.3v11.3c0,1.4-1,1.8-1.5,1.9c-0.5,0.1-1.5,0-1.5-1.4V49.5
				c0-4.3-1.5-7-5.3-6.4c-4.3,0.6-5.9,4.7-5.9,8.5v9.6c0,1.4-1,1.8-1.5,1.9c-0.5,0.1-1.5,0-1.5-1.4V51c0-4-1-6.5-5-5.9
				c-2.9,0.4-6,3.5-6,9v9.2c0,1.4-1,1.8-1.5,1.9c-0.5,0.1-1.5,0-1.5-1.4V49.1z"/>
			<path d="M237.9,43.4c0-0.8,0-2.1-0.1-3.3c0-1.3,1-1.7,1.4-1.8c0.5-0.1,1.4,0,1.5,1.3l0.1,2.3l0.1,0c1.2-2.6,3.8-4.6,6.8-5.1
				c2.2-0.3,5,0.1,6.3,3.4c1.4-3,3.9-4.9,7.2-5.4c5.2-0.8,7.8,2.2,7.8,7.3v11.3c0,1.4-1,1.8-1.5,1.9c-0.5,0.1-1.5,0-1.5-1.4V43.8
				c0-4.3-1.5-7-5.3-6.4c-4.3,0.6-5.9,4.7-5.9,8.5v9.6c0,1.4-1,1.8-1.5,1.9c-0.5,0.1-1.5,0-1.5-1.4V45.3c0-4-1-6.5-5-5.9
				c-2.9,0.4-6,3.5-6,9v9.2c0,1.4-1,1.8-1.5,1.9c-0.5,0.1-1.5,0-1.5-1.4V43.4z"/>
			<path d="M277.5,44c0.1,4.1,3.3,7,7.5,6.4c2.9-0.4,4.8-2.1,5.9-3.6c0.4-0.5,0.8-0.7,1.1-0.7c0.7-0.1,1.4,0.3,1.4,1.1
				c0,0.3-0.1,0.7-0.4,1.1c-2.1,2.6-4.8,4.2-8,4.6c-6.1,0.9-10.7-3-10.7-9.2s4.5-11.5,10.4-12.4c5.9-0.9,9.9,2.5,9.9,8.6
				c0,1-0.5,1.6-1.6,1.8L277.5,44z M291.6,39.5c-0.2-3.8-2.6-6.4-6.8-5.7c-4,0.6-7,4.3-7.2,7.8L291.6,39.5z"/>
		</g>
		<g class="st1">
			<path d="M302.3,50.1c-0.5,0.1-1.5,0-1.5-1.4V33.9c0-0.8,0-2.6-0.1-3.3c0-1.3,1-1.7,1.4-1.8c0.5-0.1,1.4,0,1.5,1.3l0.1,2.3l0.1,0
				c1.1-2.5,3.7-4.6,6.6-5c0.5-0.1,1-0.1,1.3,0c0.7,0.2,0.8,0.7,0.8,1.1c0,1-0.7,1.6-1.6,1.7c-0.4,0.1-0.7,0.1-1,0.1
				c-3.2,0.5-6,3.2-6,8.7v9.2C303.8,49.6,302.8,50,302.3,50.1z"/>
		</g>
		<g class="st1">
			<path d="M205.7,171.7v13l16.7-2.5c1.4-0.2,1.7,0.8,1.7,1.3s-0.2,1.6-1.7,1.8l-18,2.7c-1.4,0.2-2-0.4-2-1.7v-29.5
				c0-1.4,0.7-2.1,2-2.3l17.5-2.6c1.4-0.2,1.7,0.8,1.7,1.3c0,0.5-0.2,1.6-1.7,1.8l-16.1,2.4v11.6l15-2.2c1.4-0.2,1.7,0.8,1.7,1.2
				c0,0.5-0.2,1.6-1.7,1.8L205.7,171.7z"/>
		</g>
		<g class="st1">
			<path d="M236.8,183.4c-0.8,0.1-1.8,0-2.4-1.4l-7.8-17.4c-0.1-0.4-0.2-0.6-0.2-0.9c0-0.9,0.7-1.7,1.7-1.8c0.5-0.1,1.2,0,1.6,1
				l7.1,16.8l0.1,0l7.1-18.9c0.4-1.1,1-1.4,1.6-1.5c1-0.2,1.7,0.4,1.7,1.3c0,0.2,0,0.5-0.2,0.9l-7.9,19.9
				C238.5,182.9,237.5,183.3,236.8,183.4z"/>
		</g>
		<g class="st1">
			<path d="M253.3,170.3c0.1,4.4,3.6,7.5,8.1,6.9c3.1-0.5,5.1-2.2,6.4-3.9c0.4-0.5,0.9-0.7,1.2-0.8c0.8-0.1,1.5,0.3,1.5,1.2
				c0,0.3-0.1,0.7-0.5,1.2c-2.2,2.8-5.2,4.5-8.6,5c-6.6,1-11.5-3.3-11.5-10s4.9-12.4,11.2-13.4c6.4-1,10.6,2.7,10.6,9.3
				c0,1.1-0.6,1.7-1.8,1.9L253.3,170.3z M268.5,165.5c-0.2-4.2-2.8-6.9-7.4-6.2c-4.3,0.6-7.5,4.6-7.8,8.4L268.5,165.5z"/>
			<path d="M280.8,158L280.8,158c1.3-2.8,4.6-5.1,7.7-5.5c5.6-0.8,8.4,2.4,8.4,7.9v12.2c0,1.5-1.1,1.9-1.6,2c-0.5,0.1-1.6,0-1.6-1.5
				v-10.9c0-4.7-1.4-7.6-6-6.9c-3.4,0.5-6.7,3.8-6.7,9.7v10c0,1.5-1.1,1.9-1.6,2c-0.5,0.1-1.6,0-1.6-1.5v-15.9c0-0.9,0-2.8-0.1-3.5
				c0-1.4,1-1.8,1.5-1.9c0.5-0.1,1.5,0,1.6,1.4L280.8,158z"/>
		</g>
		<g class="st1">
			<path d="M310.9,172.2c-2.4,0.4-5.7-0.2-5.7-5.1v-13.9l-3.4,0.5c-1.3,0.2-1.5-0.7-1.5-1.1c0-0.5,0.2-1.4,1.5-1.6l3.4-0.5v-4.8
				c0-1.5,1.1-1.9,1.6-2c0.5-0.1,1.6,0,1.6,1.5v4.8l5.1-0.8c1.3-0.2,1.5,0.7,1.5,1.2c0,0.4-0.2,1.4-1.5,1.6l-5.1,0.8v13
				c0,3.2,1.3,3.9,3.2,3.6c0.4-0.1,0.9-0.2,1.4-0.5c0.3-0.1,0.5-0.2,0.7-0.2c0.8-0.1,1.3,0.3,1.3,1.1c0,0.4-0.2,1-1.1,1.5
				C313.3,171.7,312.1,172.1,310.9,172.2z"/>
		</g>
		<g>
			<defs>
				<rect id="SVGID_1_" x="0.1" width="315.9" height="205"/>
			</defs>
			<clipPath id="SVGID_2_">
				<use xlink:href="#SVGID_1_"  style="overflow:visible;"/>
			</clipPath>
			<g class="st2">
				<g>
					<polyline class="st0" points="315.4,0 0,48.3 0,54 315.4,5.7 315.4,0 					"/>
				</g>
				<g>
					<polyline class="st0" points="191.8,169.9 0,199.3 0,205 191.8,175.7 191.8,169.9 					"/>
				</g>
			</g>
		</g>
		<g>
			<path class="st3" d="M22.9,150.4c2.5-0.4,5.4-2,5.4-5.2s-3.1-3.5-6.8-4.1s-7.5-1.7-7.5-7.3c0-6,5.5-9.6,10.8-10.4
				c2.2-0.4,4.5-0.1,6.5,0.9c0.8,0.3,1.3,1.1,1.3,2c0,1.3-1,2.4-2.3,2.7c-0.6,0.1-1.2,0-1.8-0.4c-1.2-0.7-2.6-1-4-0.8
				c-2.4,0.4-5.2,2-5.2,4.9c0,2.7,2.3,3.2,5.7,3.7c3.8,0.6,8.7,1.5,8.7,7.3c0,6.4-5,10.2-10.8,11.1c-3.1,0.5-6.1,0-8.1-1.4
				c-0.7-0.4-1.2-1.2-1.2-2c0.1-1.4,1.1-2.6,2.5-2.8c0.7-0.1,1.4,0.1,1.9,0.5C19.3,150.2,21.1,150.6,22.9,150.4"/>
		</g>
		<g>
			<path class="st3" d="M48.7,120.5c6.8-1,11.2,0.7,11.2,6.9c0,6.5-5.2,9.6-11.5,10.6l-4.1,0.6v9.7c0.2,1.6-1,3.1-2.6,3.4
				c-0.9,0.1-2.6,0-2.6-2.6v-23.9c-0.2-1.8,1.1-3.4,2.9-3.6c0.1,0,0.2,0,0.3,0L48.7,120.5 M44.3,134.1l3.7-0.6
				c3.4-0.5,6.6-1.8,6.6-5.4s-3.1-3.7-6.4-3.2l-3.8,0.6V134.1z"/>
		</g>
		<g>
			<path class="st3" d="M68.9,134v8.4l13-2c2.2-0.3,2.6,1.2,2.6,2c0,1.4-1.1,2.7-2.6,2.7l-15.1,2.3c-2.1,0.3-3.1-0.5-3.1-2.7v-23.4
				c-0.2-1.8,1.1-3.4,2.9-3.6c0.1,0,0.2,0,0.3,0l14.3-2.2c2.3-0.3,2.6,1.2,2.6,1.9c0,1.5-1.2,2.6-2.6,2.7L68.9,122v7.5l11.5-1.8
				c2.2-0.3,2.5,1.2,2.5,1.8c0,1.4-1.1,2.6-2.5,2.6L68.9,134"/>
		</g>
		<g>
			<path class="st3" d="M87.3,129.3c0-9.5,7-16.6,16.1-18c3.4-0.5,6.7,0,8.7,1.4c0.7,0.4,1.2,1.2,1.2,2c0,1.6-1.2,2.8-2.8,2.8
				c-0.6,0-1.2-0.2-1.7-0.6c-1.6-1-3.5-1.3-5.4-1c-6,1-10.4,6.3-10.3,12.4c0,6.4,3.9,10.3,10,9.4c2.4-0.3,4.6-1.5,6.2-3.2
				c0.5-0.6,1.2-1,2-1.2c1-0.3,2,0.3,2.3,1.3c0.1,0.2,0.1,0.4,0.1,0.6c-0.1,0.9-0.4,1.8-1.1,2.4c-2.5,2.6-5.9,4.3-9.5,4.8
				C93.8,144,87.3,138.6,87.3,129.3"/>
		</g>
		<g>
			<path class="st3" d="M137.4,106.9c2.3-0.3,2.6,1.2,2.6,1.9c0,1.5-1.2,2.6-2.6,2.7l-6.9,1V135c0.2,1.6-1,3.1-2.6,3.4
				c-0.9,0.1-2.6-0.1-2.6-2.6v-22.4l-6.9,1c-2.3,0.3-2.6-1.2-2.6-1.9c0-1.5,1.2-2.6,2.6-2.7L137.4,106.9"/>
		</g>
		<g>
			<path class="st3" d="M158.2,126.6l-13.6,2.1l-2.1,5.5c-0.3,1.3-1.4,2.2-2.6,2.4c-1.1,0.3-2.3-0.4-2.6-1.5
				c-0.1-0.2-0.1-0.4-0.1-0.7c0-0.6,0.1-1.1,0.4-1.6l10.7-25.4c1-2.4,2.3-2.9,3.3-3s2.3-0.1,3.3,2l10.6,22c0.2,0.5,0.3,1,0.3,1.5
				c0,1.6-1.2,2.9-2.8,3.1c-1.2,0.2-2.3-0.5-2.7-1.6L158.2,126.6 M146.4,123.8l9.9-1.5l-4.9-11.1L146.4,123.8z"/>
		</g>
		<g>
			<path class="st3" d="M167.2,117.1c0-9.5,7-16.6,16.1-18c3.4-0.5,6.7,0,8.7,1.4c0.7,0.4,1.2,1.2,1.2,2c0,1.4-1.1,2.6-2.5,2.8
				c-0.7,0.1-1.4-0.1-2-0.5c-1.6-1-3.5-1.3-5.4-1c-6,1-10.4,6.3-10.3,12.4c0,6.4,3.9,10.3,10,9.4c2.4-0.3,4.6-1.5,6.2-3.3
				c0.5-0.6,1.2-1,2-1.2c1-0.3,2,0.3,2.3,1.3c0.1,0.2,0.1,0.4,0.1,0.6c-0.1,0.9-0.4,1.8-1.1,2.4c-2.5,2.6-5.9,4.3-9.5,4.8
				C173.8,131.7,167.2,126.3,167.2,117.1"/>
		</g>
		<g>
			<path class="st3" d="M216.2,97.5c-0.2-1.6,1-3.1,2.6-3.4c0.9-0.1,2.6,0,2.6,2.6v16.2c0,7.2-5.1,12.4-11.9,13.5
				s-11.9-2.7-11.9-9.8v-16.2c-0.2-1.6,1-3.1,2.6-3.4c0.9-0.1,2.6,0,2.6,2.6v16c0,3.4,1.6,6.9,6.7,6.1s6.7-4.7,6.7-8.1V97.5"/>
		</g>
		<g>
			<path class="st3" d="M227.8,95.7c-0.1-1.6,1-3.1,2.6-3.4c0.9-0.1,2.6,0.1,2.6,2.6v22.4l10.4-1.6c2.2-0.3,2.6,1.2,2.6,2
				c0,1.4-1.1,2.7-2.6,2.7l-12.6,1.9c-2.1,0.3-3.1-0.5-3.1-2.7V95.7"/>
		</g>
		<g>
			<path class="st3" d="M269.3,109.6l-13.6,2.1l-2.1,5.5c-0.3,1.3-1.4,2.2-2.6,2.4c-1.1,0.3-2.3-0.4-2.6-1.5
				c-0.1-0.2-0.1-0.4-0.1-0.7c0-0.6,0.1-1.1,0.4-1.6l10.7-25.4c1-2.4,2.3-2.9,3.3-3s2.3-0.1,3.3,2l10.6,22c0.2,0.5,0.3,1,0.3,1.5
				c0,1.6-1.2,2.9-2.7,3.1c-1.2,0.2-2.3-0.5-2.7-1.7L269.3,109.6 M257.6,106.8l9.9-1.5l-4.9-11.1L257.6,106.8z"/>
		</g>
		<g>
			<path class="st3" d="M289.8,100.7l-3.9,0.6v10c0.1,1.6-1,3.1-2.6,3.4c-0.9,0.1-2.6-0.1-2.6-2.6V88.1c-0.2-1.8,1.1-3.4,2.9-3.6
				c0.1,0,0.2,0,0.3,0l7.2-1.1c5.6-0.8,10.9,0.5,10.9,6.8c0,4.3-2.6,7.5-6.8,9l6.2,8.2c0.4,0.5,0.6,1.1,0.6,1.7
				c0,1.5-1.1,2.8-2.6,2.9c-0.9,0.1-1.8-0.3-2.3-1.1L289.8,100.7 M286,96.9l4.3-0.7c3-0.5,6.4-1.7,6.4-5.3c0-3.2-3.2-3.5-5.9-3.1
				l-4.8,0.7V96.9z"/>
		</g>
	</g>
</g>
</svg>
