<svg xmlns="http://www.w3.org/2000/svg" width="69.81" height="9.343" viewBox="0 0 69.81 9.343">
  <metadata><?xpacket begin="﻿" id="W5M0MpCehiHzreSzNTczkc9d"?>
<x:xmpmeta xmlns:x="adobe:ns:meta/" x:xmptk="Adobe XMP Core 5.6-c140 79.160451, 2017/05/06-01:08:21        ">
   <rdf:RDF xmlns:rdf="http://www.w3.org/1999/02/22-rdf-syntax-ns#">
      <rdf:Description rdf:about=""/>
   </rdf:RDF>
</x:xmpmeta>
                                                                                                    
                                                                                                    
                                                                                                    
                                                                                                    
                                                                                                    
                                                                                                    
                                                                                                    
                                                                                                    
                                                                                                    
                                                                                                    
                                                                                                    
                                                                                                    
                                                                                                    
                                                                                                    
                                                                                                    
                                                                                                    
                                                                                                    
                                                                                                    
                                                                                                    
                                                                                                    
                           
<?xpacket end="w"?></metadata>
<defs>
    <style>
      .cls-1 {
        fill-rule: evenodd;
      }
    </style>
  </defs>
  <path id="_2018_Accord" data-name="2018 Accord" class="cls-1" d="M1002.49,137.684a1.054,1.054,0,0,0-.12.442,0.656,0.656,0,0,0,.68.669,0.817,0.817,0,0,0,.72-0.537,1.393,1.393,0,0,1,1.31-.92,1.276,1.276,0,0,1,1.35,1.3,2.27,2.27,0,0,1-.86,1.661l-2.89,2.867a1.191,1.191,0,0,0-.49.9,0.778,0.778,0,0,0,.97.752h4.16a0.661,0.661,0,1,0,0-1.314h-3.2l2.44-2.33a3.479,3.479,0,0,0,1.37-2.557,2.554,2.554,0,0,0-2.83-2.473A2.836,2.836,0,0,0,1002.49,137.684Zm12.95,2.9c0-2.736-1.06-4.445-2.98-4.445s-3.01,1.709-3.01,4.445,1.08,4.444,3.01,4.444S1015.44,143.324,1015.44,140.588Zm-1.47,0c0,1.183-.23,3.226-1.51,3.226s-1.53-2.043-1.53-3.226,0.24-3.25,1.53-3.25S1013.97,139.405,1013.97,140.588Zm5.49,3.536a0.724,0.724,0,1,0,1.44,0v-6.918a0.818,0.818,0,0,0-.85-0.956,1.161,1.161,0,0,0-.72.311l-1.87,1.506a0.768,0.768,0,0,0-.34.585,0.618,0.618,0,0,0,.63.633,0.832,0.832,0,0,0,.49-0.179l1.22-1v6.022Zm10.32-5.687a2.408,2.408,0,0,0-2.69-2.294,2.448,2.448,0,0,0-2.68,2.354,1.868,1.868,0,0,0,1.32,1.852v0.024a2.107,2.107,0,0,0-1.6,2.055c0,1.684,1.33,2.6,2.96,2.6s2.96-.92,2.96-2.6a2.087,2.087,0,0,0-1.59-2.055v-0.024A1.91,1.91,0,0,0,1029.78,138.437Zm-1.45.084a1.231,1.231,0,0,1-1.24,1.23,1.184,1.184,0,0,1-1.22-1.23,1.151,1.151,0,0,1,1.22-1.195A1.2,1.2,0,0,1,1028.33,138.521Zm0.23,3.9a1.471,1.471,0,0,1-2.94,0,1.415,1.415,0,0,1,1.47-1.446A1.429,1.429,0,0,1,1028.56,142.416Zm11.76,1.923a0.788,0.788,0,0,0,.76.586,0.754,0.754,0,0,0,.78-0.777,1.07,1.07,0,0,0-.09-0.43l-3.03-6.751a0.986,0.986,0,0,0-.95-0.717,0.976,0.976,0,0,0-.94.717l-3.05,6.775a0.98,0.98,0,0,0-.11.442,0.722,0.722,0,0,0,.76.741,0.771,0.771,0,0,0,.75-0.574l0.61-1.469h3.9Zm-2.54-6.141,1.4,3.393h-2.83Zm8.7,5.341a1.5,1.5,0,0,1-.85.239,1.65,1.65,0,0,1-1.58-1.828,1.673,1.673,0,0,1,1.58-1.84,1.321,1.321,0,0,1,.81.263,0.792,0.792,0,0,0,.48.191,0.612,0.612,0,0,0,.63-0.622,0.77,0.77,0,0,0-.41-0.621,2.754,2.754,0,0,0-1.51-.406,2.95,2.95,0,0,0-3.08,3.035,3.056,3.056,0,0,0,4.6,2.616,0.721,0.721,0,0,0,.38-0.633,0.557,0.557,0,0,0-.58-0.573A0.9,0.9,0,0,0,1046.48,143.539Zm5.86,0a1.5,1.5,0,0,1-.85.239,1.65,1.65,0,0,1-1.58-1.828,1.673,1.673,0,0,1,1.58-1.84,1.344,1.344,0,0,1,.81.263,0.792,0.792,0,0,0,.48.191,0.61,0.61,0,0,0,.62-0.622,0.753,0.753,0,0,0-.4-0.621,2.754,2.754,0,0,0-1.51-.406,2.95,2.95,0,0,0-3.08,3.035,3.056,3.056,0,0,0,4.6,2.616,0.721,0.721,0,0,0,.38-0.633,0.557,0.557,0,0,0-.58-0.573A0.868,0.868,0,0,0,1052.34,143.539Zm8.18-1.613a3.127,3.127,0,0,0-6.25,0A3.126,3.126,0,0,0,1060.52,141.926Zm-1.46,0a1.676,1.676,0,1,1-3.33,0A1.673,1.673,0,1,1,1059.06,141.926Zm4.3,2.2v-2.246a1.443,1.443,0,0,1,1.43-1.637,0.68,0.68,0,0,0,.78-0.693,0.644,0.644,0,0,0-.75-0.633,1.636,1.636,0,0,0-1.49,1.123h-0.03v-0.3a0.694,0.694,0,1,0-1.38,0v4.385A0.724,0.724,0,1,0,1063.36,144.124Zm3.9-2.2a1.7,1.7,0,0,1,1.66-1.84,1.788,1.788,0,0,1,1.69,1.864,1.767,1.767,0,0,1-1.69,1.84A1.718,1.718,0,0,1,1067.26,141.926Zm4.74,2.246v-7.695a0.724,0.724,0,1,0-1.44,0v3.334h-0.04a2.352,2.352,0,0,0-1.93-.9,3.044,3.044,0,0,0,.04,6.07,2.305,2.305,0,0,0,1.98-1.028h0.02v0.215A0.688,0.688,0,1,0,1072,144.172Z" transform="translate(-1002.19 -135.688)"/>
</svg>
