<svg xmlns="http://www.w3.org/2000/svg" width="90.5" height="16.062" viewBox="0 0 90.5 16.062">
  <metadata><?xpacket begin="﻿" id="W5M0MpCehiHzreSzNTczkc9d"?>
<x:xmpmeta xmlns:x="adobe:ns:meta/" x:xmptk="Adobe XMP Core 5.6-c140 79.160451, 2017/05/06-01:08:21        ">
   <rdf:RDF xmlns:rdf="http://www.w3.org/1999/02/22-rdf-syntax-ns#">
      <rdf:Description rdf:about=""/>
   </rdf:RDF>
</x:xmpmeta>
                                                                                                    
                                                                                                    
                                                                                                    
                                                                                                    
                                                                                                    
                                                                                                    
                                                                                                    
                                                                                                    
                                                                                                    
                                                                                                    
                                                                                                    
                                                                                                    
                                                                                                    
                                                                                                    
                                                                                                    
                                                                                                    
                                                                                                    
                                                                                                    
                                                                                                    
                                                                                                    
                           
<?xpacket end="w"?></metadata>
<defs>
    <style>
      .cls-1 {
        fill-rule: evenodd;
      }
    </style>
  </defs>
  <path id="_2018_Clarity" data-name="2018 Clarity" class="cls-1" d="M243.187,234.626a1.412,1.412,0,0,0-.161.591,0.881,0.881,0,0,0,.917.895,1.1,1.1,0,0,0,.966-0.719,1.861,1.861,0,0,1,1.753-1.23,1.71,1.71,0,0,1,1.818,1.741,3.047,3.047,0,0,1-1.158,2.22l-3.877,3.833a1.6,1.6,0,0,0-.66,1.2c0,0.351.145,1.006,1.3,1.006h5.583a0.884,0.884,0,1,0,0-1.757h-4.3l3.282-3.114a4.659,4.659,0,0,0,1.834-3.418c0-2.172-1.818-3.306-3.8-3.306A3.813,3.813,0,0,0,243.187,234.626Zm17.393,3.881c0-3.657-1.432-5.941-4.006-5.941-2.59,0-4.038,2.284-4.038,5.941s1.448,5.941,4.038,5.941C259.148,244.448,260.58,242.164,260.58,238.507Zm-1.979,0c0,1.581-.305,4.312-2.027,4.312-1.737,0-2.059-2.731-2.059-4.312s0.322-4.344,2.059-4.344C258.3,234.163,258.6,236.926,258.6,238.507Zm7.37,4.727a0.971,0.971,0,1,0,1.931,0v-9.246a1.1,1.1,0,0,0-1.142-1.278,1.556,1.556,0,0,0-.966.415l-2.509,2.012a1.011,1.011,0,0,0-.451.783,0.822,0.822,0,0,0,.837.846,1.113,1.113,0,0,0,.659-0.239l1.641-1.342v8.049Zm13.854-7.6c0-1.917-1.609-3.067-3.6-3.067s-3.6,1.23-3.6,3.146a2.5,2.5,0,0,0,1.769,2.476v0.032a2.817,2.817,0,0,0-2.14,2.747c0,2.251,1.786,3.481,3.974,3.481s3.974-1.23,3.974-3.481a2.8,2.8,0,0,0-2.14-2.747v-0.032A2.557,2.557,0,0,0,279.825,235.633Zm-1.947.111a1.648,1.648,0,0,1-1.657,1.645,1.586,1.586,0,0,1-1.641-1.645,1.54,1.54,0,0,1,1.641-1.6A1.6,1.6,0,0,1,277.878,235.744Zm0.306,5.207a1.973,1.973,0,0,1-3.942,0A1.971,1.971,0,0,1,278.184,240.951Zm13.78,3.5a5.263,5.263,0,0,0,3.636-1.277,1.233,1.233,0,0,0,.419-0.863,0.854,0.854,0,0,0-.9-0.878,1.077,1.077,0,0,0-.756.335,3.42,3.42,0,0,1-2.381.879c-2.349,0-3.862-1.709-3.862-4.169a3.909,3.909,0,0,1,3.942-4.136,3.265,3.265,0,0,1,2.059.7,1.271,1.271,0,0,0,.772.319,0.925,0.925,0,0,0,.95-0.926,1.049,1.049,0,0,0-.451-0.831,5.373,5.373,0,0,0-3.33-1.038c-3.507,0-6.178,2.284-6.178,5.909A5.774,5.774,0,0,0,291.964,244.448Zm5.62-1.214a0.97,0.97,0,1,0,1.93,0V233.013a0.97,0.97,0,1,0-1.93,0v10.221Zm9.049-2.571v0.272a1.819,1.819,0,0,1-2.027,1.964,1.115,1.115,0,0,1-1.351-.958c0-1.134,1.721-1.278,2.944-1.278h0.434Zm1.834,2.635v-3.8c0-1.533-.676-3.226-3.443-3.226a4.682,4.682,0,0,0-2.622.767,0.86,0.86,0,0,0-.451.735,0.722,0.722,0,0,0,.724.734,1.059,1.059,0,0,0,.515-0.159,3.19,3.19,0,0,1,1.673-.575,1.52,1.52,0,0,1,1.77,1.405v0.192c-2.413,0-5.309.319-5.309,2.6,0,1.788,1.657,2.379,2.9,2.379a2.746,2.746,0,0,0,2.4-1.165h0.048V243.3A0.906,0.906,0,1,0,308.467,243.3Zm4.2-.064v-3a1.928,1.928,0,0,1,1.915-2.188,0.909,0.909,0,0,0,1.045-.926,0.862,0.862,0,0,0-1-.847,2.211,2.211,0,0,0-2.011,1.5h-0.032v-0.4a0.93,0.93,0,1,0-1.85,0v5.861A0.97,0.97,0,1,0,312.666,243.234Zm6.173-9.342a1.242,1.242,0,1,0-1.255,1.15A1.184,1.184,0,0,0,318.839,233.892Zm-0.274,9.342v-5.813a0.971,0.971,0,1,0-1.931,0v5.813A0.971,0.971,0,1,0,318.565,243.234Zm6.041,0.879a0.782,0.782,0,0,0,.466-0.7,0.7,0.7,0,0,0-.74-0.719,1.425,1.425,0,0,0-.225.016,2.493,2.493,0,0,1-.306.032c-0.482,0-.74-0.4-0.74-1.15v-3.561h1.207a0.773,0.773,0,1,0,0-1.533h-1.207v-1.326a0.953,0.953,0,1,0-1.9,0V236.5h-0.627a0.773,0.773,0,1,0,0,1.533h0.627v3.577c0,1.47.45,2.715,2.494,2.715A2.183,2.183,0,0,0,324.606,244.113Zm8.553-6.372a1.454,1.454,0,0,0,.112-0.527,0.874,0.874,0,0,0-.949-0.863,1,1,0,0,0-.949.8l-1.8,4.919h-0.032l-2.092-4.967a1.015,1.015,0,0,0-.965-0.751,0.912,0.912,0,0,0-.965.9,1.5,1.5,0,0,0,.128.559l2.912,6.356-0.386.974a1.539,1.539,0,0,1-1.367,1.2,1.766,1.766,0,0,0-.306.016,0.776,0.776,0,0,0-.643.782,0.9,0.9,0,0,0,1.061.863c1.657,0,2.349-.783,2.928-2.188Z" transform="translate(-242.781 -231.938)"/>
</svg>
