<svg xmlns="http://www.w3.org/2000/svg" viewBox="0 0 225.96 108.45"><defs><style>.cls-1{fill:#e31937;}</style></defs><title>Asset 3</title><g id="Layer_2" data-name="Layer 2"><g id="Layer_1-2" data-name="Layer 1"><path class="cls-1" d="M2.72,108.45a.72.72,0,0,1-.49-.19l-.59-.55-.93-.05a.72.72,0,0,1-.66-.55,2.2,2.2,0,0,1,.82-2.22l.09-.08a15.51,15.51,0,0,0,2.75-2.89,1.71,1.71,0,0,1,1-.62l.16,0a8.33,8.33,0,0,1,3.5-2.78l.16-.05a.72.72,0,0,1,.08-.48,1.58,1.58,0,0,1,1.43-.85,3.79,3.79,0,0,1,.74.09.79.79,0,0,1,.62.6h.23a1.57,1.57,0,0,0,.31,0,.72.72,0,0,1,.64-.42l.17,0h0a.89.89,0,0,0,.41-.19,2.38,2.38,0,0,1,1-.44,2.22,2.22,0,0,0,.69-.34,6.1,6.1,0,0,1,.59-.34,4.09,4.09,0,0,1,.55-.2,1.59,1.59,0,0,0,.42-.17,2.08,2.08,0,0,1,1.45-.47.53.53,0,0,0,.14-.08l.23-.14.21-.14a1.66,1.66,0,0,1,1-.39l.27,0a2.34,2.34,0,0,0,1.1-.4c.19-.11.39-.21.59-.3a24.75,24.75,0,0,1,2.62-1l1.06-.35.24-.06a7,7,0,0,1,2.44-.81A9.62,9.62,0,0,0,29,91.28a5.93,5.93,0,0,1,.82-.2,4,4,0,0,0,.85-.23,1.68,1.68,0,0,1,.7-.14l.45,0h.11a1.55,1.55,0,0,1,1-.47h.28a2.16,2.16,0,0,0,1-.38,6,6,0,0,1,.71-.36,3.7,3.7,0,0,1,1.21-.28l.21-.32a.72.72,0,0,1,.6-.32.71.71,0,0,1,.24,0,1.54,1.54,0,0,0,.51.09,3.25,3.25,0,0,0,1.1-.28,5.43,5.43,0,0,1,1.06-.31,3.44,3.44,0,0,0,1.77-.82,3.36,3.36,0,0,1,1.92-.86,3.55,3.55,0,0,0,.89-.22A4.37,4.37,0,0,1,45.8,86l.28,0a.66.66,0,0,0,.29-.11,7.89,7.89,0,0,1,3.1-1.14,11.34,11.34,0,0,0,1.64-.42,1.17,1.17,0,0,1,.41-.07h.21L52,84a.72.72,0,0,1,.33-.17l.32-.06.24,0a3,3,0,0,1,.39,0l.21,0a1.69,1.69,0,0,1,1-.29,1.3,1.3,0,0,1,.89.3.44.44,0,0,0,.33.15,2.21,2.21,0,0,0,.68-.19l.1,0a4,4,0,0,1,1.44-.24l.59,0,1.88-1a.72.72,0,0,1,.31-.08h0c.25,0,.44,0,.63,0l.48,0a.88.88,0,0,0,.75-.27A.72.72,0,0,1,63.1,82l1.25.07.41-.36a.72.72,0,0,1,.47-.18l.15,0a1.39,1.39,0,0,0,.29,0,1.58,1.58,0,0,0,1.09-.5.72.72,0,0,1,.39-.2c.58-.1,1.15-.16,1.72-.21a15.2,15.2,0,0,0,2.46-.38c.41-.11.82-.2,1.24-.29a12.1,12.1,0,0,0,2.25-.64,1.84,1.84,0,0,1,.73-.13h.13a4.44,4.44,0,0,1,.55.06,2.84,2.84,0,0,0,.38,0,2.4,2.4,0,0,1,1-.19h.23c.22,0,.44-.05.66-.07a2.17,2.17,0,0,0,1-.22,2.5,2.5,0,0,1,1.12-.29,1.59,1.59,0,0,0,.63-.13A3.13,3.13,0,0,1,82.81,78H83l.32,0a7.07,7.07,0,0,0,1.6-.26,10,10,0,0,1,1.57-.28l1.34-.08a15.76,15.76,0,0,0,4.31-.62,5.14,5.14,0,0,1,1.67-.19,6.9,6.9,0,0,0,.87,0A11.79,11.79,0,0,0,96,76.29l.31-.08C97,75,97.29,74.9,99,74a.71.71,0,0,1,.33-.08.72.72,0,0,1,.56.26l.05.06.18-.09a2.63,2.63,0,0,1,1.36-.39l.53,0h0L103.8,72a.72.72,0,0,1,.52-.22.7.7,0,0,1,.21,0,.72.72,0,0,1,.5.56,3.12,3.12,0,0,1-.49,2.51l.57,0a.72.72,0,0,1,.67.84h.18l1-.07c.54,0,1.08-.14,1.64-.24s1.21-.21,1.84-.26l1.82-.17c.81-.08,1.61-.16,2.43-.21.44,0,.88-.09,1.33-.14a15.08,15.08,0,0,1,2-.17,6.91,6.91,0,0,1,.74,0l.21,0a4.4,4.4,0,0,1,1.7.41A.82.82,0,0,0,121,75a4,4,0,0,0,1-.21l.3-.09a5.43,5.43,0,0,1,1.45-.17h.89l.39-.34a.72.72,0,0,1,.47-.18h.05c.32,0,.63,0,1,0a33.1,33.1,0,0,0,4.09-.35l.7-.09h.09a.73.73,0,0,1,.22,0l.19.09.06,0a8.51,8.51,0,0,1,2.4-.31,12.17,12.17,0,0,0,1.24-.08,11.35,11.35,0,0,1,1.51-.09c.68,0,1.35,0,2,.09s1.27.09,1.89.09h.36l1.08,0c.63,0,1.25-.06,1.88-.06a15.2,15.2,0,0,1,1.57.07,2.75,2.75,0,0,1,1.17-.24,7.13,7.13,0,0,1,.85.07c.19,0,.38,0,.56.05h.19a6.55,6.55,0,0,0,2.26-.45,13.39,13.39,0,0,1,1.94-.51,10,10,0,0,0,2-.56,1.61,1.61,0,0,1,.67-.12l.15.72v-.72h.12a3.81,3.81,0,0,1,.63,0,10.54,10.54,0,0,0,1.71.12c.54,0,1.07,0,1.6,0s1.11-.05,1.67-.05a13.22,13.22,0,0,1,1.39.07l.42,0a2.61,2.61,0,0,1,1.77.51s0,0,0,0h.11a2.18,2.18,0,0,1,1.06-.25h.5a2.57,2.57,0,0,1,1-.2h.57a2,2,0,0,1,1.08-.28l.42,0,.3,0a1.47,1.47,0,0,0,.4-.09,2.57,2.57,0,0,1,.8-.16,1.65,1.65,0,0,1,1.1.43h.27a2.07,2.07,0,0,1,1.24.36h.44l.31,0h.37a1.62,1.62,0,0,1,1.09.35,1.92,1.92,0,0,1,1-.26,4.4,4.4,0,0,1,.69.07l.39,0c1.38.06,2.77.15,4.15.23l3.41.2.41,0a1.87,1.87,0,0,0,.3,0c.07,0,.08,0,.11,0a.85.85,0,0,1,.65-.27,2,2,0,0,1,.5.08,4.72,4.72,0,0,1,.48.17,1.76,1.76,0,0,0,.45.14,1.31,1.31,0,0,0,.24-.07,2.21,2.21,0,0,1,.75-.15,1.58,1.58,0,0,1,.33,0l.73.14a6.86,6.86,0,0,1,1.74.45,2.17,2.17,0,0,0,.57.14l.38.07a2.17,2.17,0,0,0,.39,0,2.57,2.57,0,0,1,1.15.23,1.88,1.88,0,0,0,.27,0,3.21,3.21,0,0,1,.6-.08c.36,0,.73,0,1.09.05l1.49.09a2.94,2.94,0,0,1,1.38-.43,3.29,3.29,0,0,0,.5-.09,3.91,3.91,0,0,1,1.08-.19,2,2,0,0,1,1.21.4v0h.31c.41.05.82.09,1.24.12a11.39,11.39,0,0,1,3.05.53,4.5,4.5,0,0,0,1.35.19,4.82,4.82,0,0,1,2,.4,3.14,3.14,0,0,1,1-.16,7.48,7.48,0,0,1,1,.09,6.6,6.6,0,0,0,.79.08H214a2.62,2.62,0,0,1,1.63.46h.32a1.88,1.88,0,0,0,.37-.1,2.59,2.59,0,0,1,.83-.17,1.5,1.5,0,0,1,.91.3,1.06,1.06,0,0,0,.64.11,3.35,3.35,0,0,1,.79.08l.2.08a2.64,2.64,0,0,1,1.22-.31,2.81,2.81,0,0,1,.81.12.72.72,0,0,1,.51.73v.13l.12,0c.6.11,1.21.23,1.82.39a4.75,4.75,0,0,1,1,.43l.3.15a.72.72,0,0,1,.39.45,1.9,1.9,0,0,1-.7,2.35.72.72,0,0,1-.4.12l-1.85-.1c-1.56-.09-3.18-.18-4.79-.31a6.59,6.59,0,0,1-1.16-.23,4.87,4.87,0,0,0-1-.2h-.46l-.46,0a2.45,2.45,0,0,1-1.22-.28,1.78,1.78,0,0,1-.58.1,3,3,0,0,1-1.11-.27,2,2,0,0,0-.63-.18,6.83,6.83,0,0,1-.94.07,14.27,14.27,0,0,1-1.9-.17l-.24,0a10.24,10.24,0,0,1-1.07-.22,6.57,6.57,0,0,0-1.25-.22h-.16l-.75,0a3.07,3.07,0,0,1-1.32-.25,1.37,1.37,0,0,1-.49.09,2.1,2.1,0,0,1-.88-.24l-.21-.09-.08,0-.23.09-.21,0a.72.72,0,0,1-.22,0l-.3-.11a1.62,1.62,0,0,0-.33-.11l-2.66-.17-2.53-.16a3.79,3.79,0,0,1-.81-.18l-.26-.07a3.36,3.36,0,0,1-.84.13c-.6,0-1.18,0-1.75-.08l-.68,0-.57,0a7,7,0,0,1-1.48-.14h-.13a2.33,2.33,0,0,0-.36,0,3.81,3.81,0,0,1-.59.06,2,2,0,0,1-.74-.14,2.85,2.85,0,0,0-1-.11h-.71l-3.65-.22-.68,0c-.37,0-.73-.06-1.09-.06h-.27a8.7,8.7,0,0,1-1.09-.09,7.64,7.64,0,0,0-.92-.08,2,2,0,0,0-.88.18.72.72,0,0,1-.72-.06.36.36,0,0,0-.23-.06,2.62,2.62,0,0,0-.4,0,4.14,4.14,0,0,1-.64.06H175c-1.3-.14-2.74-.23-4.54-.28-2.08-.06-4.2-.07-6.25-.08L164,76l-.27.12a.71.71,0,0,1-.26,0,.73.73,0,0,1-.3-.06l-.28-.15a1.48,1.48,0,0,0-.22-.11c-2.33-.17-4.26-.28-6-.36h0a3.18,3.18,0,0,0-.64.08,5.87,5.87,0,0,1-.63.1c-.4,0-.79.09-1.18.16a13,13,0,0,1-2.32.15c-.36,0-.71,0-1.07,0h-.17c-.24,0-.48,0-.71,0a5.67,5.67,0,0,0-.58,0,1.5,1.5,0,0,0-.6.1,2.34,2.34,0,0,1-.92.16l-.48,0-.4,0a1.33,1.33,0,0,0-.48.07,4.84,4.84,0,0,1-1.74.23h-.14c-.24,0-.47,0-.71,0a3,3,0,0,0-.44.09,4.55,4.55,0,0,1-.63.13c-1,.1-1.92.17-2.88.23l-2,.14c-.46,0-.93.05-1.39.05s-1.21,0-1.81-.05-1.16-.05-1.74-.05h-.21a2.54,2.54,0,0,0-1.08.39.73.73,0,0,1-.35.09h0c-.25,0-.5,0-.75-.08a6,6,0,0,0-.81-.08,1.41,1.41,0,0,0-.4,0,4.5,4.5,0,0,1-1.32.18l-.68,0-.5,0a8.71,8.71,0,0,1-.89-.08,6.43,6.43,0,0,0-.79-.07,1.78,1.78,0,0,0-.37,0,7.57,7.57,0,0,1-1.56.15c-.5,0-1,0-1.48-.07s-.91-.07-1.37-.07h-.35c-.81,0-1.6.14-2.44.26l-.9.12a1.36,1.36,0,0,1-.84.27,2.94,2.94,0,0,1-.44,0l-.24,0a3.41,3.41,0,0,1-1.91.5,1.63,1.63,0,0,0-.37.16,2.76,2.76,0,0,1-.79.3l-1.17.21c-1,.18-2.08.37-3.14.5-.56.07-1.13.11-1.7.14a12.37,12.37,0,0,0-3.53.57.72.72,0,0,1-.25,0l-.19,0a1,1,0,0,0-.26,0,3.06,3.06,0,0,0-.95.24,4.27,4.27,0,0,1-1.45.32,2.48,2.48,0,0,1-.41,0l-.23.12-.3.15a6.91,6.91,0,0,1-2.84.7,2.41,2.41,0,0,0-.68.2l-.68.24a.71.71,0,0,1-.22,0H93.5a6.53,6.53,0,0,0-1.32.12l-.56.13a7.21,7.21,0,0,1-1.67.27h-.31a1.92,1.92,0,0,0-.58.14,3.05,3.05,0,0,1-1,.22,1.64,1.64,0,0,1-.82-.22,1.54,1.54,0,0,1-.43.06l-.3,0h-.08a1.62,1.62,0,0,1-.89.24l-.4,0-.21,0a1.88,1.88,0,0,1-1,.27l-.35,0h-.43a3.08,3.08,0,0,0-.7.11,9.12,9.12,0,0,1-1.85.31l-.37,0-1.45.13c-.89.07-1.8.15-2.69.29-.35.06-.7.15-1,.24a8.61,8.61,0,0,1-2.15.35,4.53,4.53,0,0,1-.62,0h0a1.8,1.8,0,0,0-.44.1l-.38.1a9.28,9.28,0,0,1-2,.21H69.1a6,6,0,0,0-.88.08,7.32,7.32,0,0,1-1.07.1,9.53,9.53,0,0,0-2.15.36l-.14,0c-.6.15-1.18.34-1.8.55l-.5.17a1.23,1.23,0,0,1-.68.28l-.77,0c-.56,0-1.12.07-1.68.07-.34,0-.67,0-1,0h-.16a4.28,4.28,0,0,0-.77.1,5.42,5.42,0,0,1-1,.12l-.38,0-.37,0a2,2,0,0,0-1.17.36.91.91,0,0,1-.52.15,2.16,2.16,0,0,1-.64-.13l-.2-.06-.06,0a2.67,2.67,0,0,1-1.22.35l-.3,0A16.24,16.24,0,0,1,49,88.5a18.93,18.93,0,0,0-2.68.68.71.71,0,0,1-.24,0h-.23l-.33,0a.9.9,0,0,0-.66.22.71.71,0,0,1-.49.19H44.2a3.58,3.58,0,0,0-1.67.6,8.5,8.5,0,0,1-1.12.54,15.5,15.5,0,0,0-2,1l-1,.54a4.85,4.85,0,0,1-.87.31,1.74,1.74,0,0,0-.9.43.71.71,0,0,1-.4.24,5.87,5.87,0,0,0-1.59.7,6.64,6.64,0,0,1-2.21.9,1.74,1.74,0,0,1-.38.42,6.3,6.3,0,0,1-2.44.95l-.65.16a10,10,0,0,0-2.52,1c-1.59.92-3.23,1.79-4.82,2.64l-.69.37a3,3,0,0,1-.64.23,1.75,1.75,0,0,0-.36.12A2.48,2.48,0,0,1,19,101a.85.85,0,0,0-.41.12,1.89,1.89,0,0,1-1.23.62,1.37,1.37,0,0,0-.32.08l-.45.26a4.73,4.73,0,0,1-1.16.56,4.46,4.46,0,0,0-1.22.66,7.71,7.71,0,0,1-1,.59,9.56,9.56,0,0,0-2,1.3c-.21.17-.43.32-.71.51l-.46.32a.72.72,0,0,1-.41.13L8.23,106l-1.5,1.12a.71.71,0,0,1-.23.11l-1.21.35a.72.72,0,0,1-.81-.3l-.09-.15a.71.71,0,0,1-.17.21l-1,.89A.71.71,0,0,1,2.72,108.45ZM85,80.71a8.92,8.92,0,0,1,1.79-.21,6.24,6.24,0,0,1,.77,0,5.16,5.16,0,0,0,.67,0,9.19,9.19,0,0,0,2.4-.39,10.54,10.54,0,0,1,1.31-.26l-.15,0-.23,0a4.63,4.63,0,0,0-.75.09l-.6.09H89.9a6,6,0,0,1-.62,0,4.19,4.19,0,0,0-.47,0,1.06,1.06,0,0,0-.43.08,4.78,4.78,0,0,1-1.39.28l-.55.06-1.19.21-.27,0Zm7.92-1-.34.14.61-.08-.12-.13Zm3.2-.4a6.37,6.37,0,0,0-1.21.23A8.16,8.16,0,0,0,96.11,79.31ZM79.39,93.14a.72.72,0,0,1-.52-.22l-.59-.62a.72.72,0,0,1-.2-.54l.06-.9a.72.72,0,0,1,.56-.66l2.78-.62.16,0a.72.72,0,0,1,.68,1,3.12,3.12,0,0,1-1.55,1.66,2.13,2.13,0,0,0-.77.62.72.72,0,0,1-.54.34Zm133.44-4.7a.72.72,0,0,1-.42-.13l-.3-.2a1.5,1.5,0,0,1-.53-.47c-.23-.37-.44-.75-.66-1.14l-.06-.11-1.28-.08a.72.72,0,0,1-.68-.67,1.81,1.81,0,0,1,0-.56L207.54,85a.72.72,0,0,1-.46-.2l-.89-.86a.72.72,0,0,1,0-1.05l1-.87a.72.72,0,0,1,.48-.18l1.24.07.45.06a2.24,2.24,0,0,0,.35,0,1.46,1.46,0,0,1,.64-.15A1.77,1.77,0,0,1,211,82l.13,0a4.47,4.47,0,0,0,.57-.14l.41-.12.18,0a.72.72,0,0,1,.61.33l.64,1a.72.72,0,0,1-.21,1,2.49,2.49,0,0,1-.4.21l.27.08a.72.72,0,0,1,.43,1l-.19.35.14,1.95a.72.72,0,0,1-.72.77Zm-17.72-3.16a.72.72,0,0,1-.72-.77l.09-1.48a.72.72,0,0,1,.25-.5l.36-.31a.72.72,0,0,1,.73-.13l.23.09a1.92,1.92,0,0,0,.33.12,3,3,0,0,0,.48,0,2.53,2.53,0,0,1,1.57-.5,4.22,4.22,0,0,1,.7.06.72.72,0,0,1,.6.75l0,.8a.72.72,0,0,1-.72.67h-.11l-.24,0a4,4,0,0,0-1.56.5,7.85,7.85,0,0,1-1.79.65ZM59.63,80H59.5a5.65,5.65,0,0,1-3.22-2.25l-.12-.13-2.11.8a.72.72,0,0,1-1-.72l.08-1.35a.72.72,0,0,1,.3-.54,1,1,0,0,1,0-.26l0-.1A3.87,3.87,0,0,1,54,74l.28-.42a8.21,8.21,0,0,1,1.14-1.48,9.75,9.75,0,0,0,2.05-3.35c.12-.3.23-.6.38-1l.18-.5a2.81,2.81,0,0,1,.44-1.51c.07-.14.14-.27.2-.41l-.16.06a1.77,1.77,0,0,1-1,.93c-.34.15-.46.22-.52.43a.72.72,0,0,1-.66.5h0a.72.72,0,0,1-.67-.45l-.18-.44-.19.07a10.15,10.15,0,0,1-3.58.61l-1.07.06c-.24,0-.47.06-.7.1l-.66.1c-.29,0-.59.05-.88.07l-.42,0a1.07,1.07,0,0,1-.24,0,.74.74,0,0,1-.58-.28h-.44a1.51,1.51,0,0,1-.91-.26.89.89,0,0,0-.34-.12l-1.31-.2c-.61-.09-1.22-.18-1.82-.29a3,3,0,0,1-1.51-.59,3,3,0,0,0-.91-.47,3.52,3.52,0,0,1-1.68-1.09h0l-.19,0a2.77,2.77,0,0,1-.56-.22A18.06,18.06,0,0,1,34,61.43a2.77,2.77,0,0,1-.34-.4,1.19,1.19,0,0,0-.18-.22,1.15,1.15,0,0,1-1-.89,3.31,3.31,0,0,0-.47-1,4.09,4.09,0,0,1-.71-1.71,1.81,1.81,0,0,0-.19-.46c-.06-.12-.11-.23-.16-.34a20.12,20.12,0,0,1-.61-2.79c0-.34,0-.67,0-1,0-.67-.06-1.33-.05-2,0-.42,0-.84.09-1.25a7.32,7.32,0,0,0,.05-1.71,5,5,0,0,1,.38-2.36,6.94,6.94,0,0,0,.28-1,8.27,8.27,0,0,1,.67-2,5.88,5.88,0,0,1,.31-.55,1.41,1.41,0,0,0,.33-.85.83.83,0,0,1,.3-.7l.3-.54c.39-.71.78-1.41,1.15-2.13a12.41,12.41,0,0,1,1.37-2.07A12.15,12.15,0,0,0,37,33.33a.72.72,0,0,1-.39-1,1.27,1.27,0,0,1,.23-.38.78.78,0,0,1,.39-.22l.21-.16a8.25,8.25,0,0,0,.88-.74,2.32,2.32,0,0,1,.74-.47c.24-.11.3-.15.31-.19a.72.72,0,0,1,.29-.41,6.14,6.14,0,0,0,1-1A5.23,5.23,0,0,1,43,27.12a6.9,6.9,0,0,1,.72-.72,5.74,5.74,0,0,0,.54-.54,7,7,0,0,1,1.85-1.43c.27-.17.55-.33.81-.52a.86.86,0,0,1,.43-.16,3.59,3.59,0,0,1,1.78-1.51,3.32,3.32,0,0,0,.59-.33,3.05,3.05,0,0,1,1.68-.61h.13a6.22,6.22,0,0,0,1.23-.69,1.26,1.26,0,0,1,.88-.83l.07,0a.72.72,0,0,1,.9-.14l.58.34.08,0a.72.72,0,0,1,.32-.07.73.73,0,0,1,.38.11c.26.16.53.3.8.45a5.19,5.19,0,0,1,2.17,1.72.7.7,0,0,1,.09.22l.36,1.5,0,0a.72.72,0,0,1,.24.58c0,.25,0,.49-.05.74,0,.53-.08,1-.08,1.54,0,.3,0,.59,0,.89a5.07,5.07,0,0,0,0,1.28,4.18,4.18,0,0,1-.19,1.78c-.05.21-.11.43-.15.64a.73.73,0,0,1-.17.35l-.66.76a1.07,1.07,0,0,1-.88.42,2.58,2.58,0,0,1-1.5-.65.72.72,0,0,1-.26-.6c0-.16,0-.33,0-.49a9.94,9.94,0,0,1,.11-1.3,1,1,0,0,0-.27-.83A8.74,8.74,0,0,1,54,26.73a8.76,8.76,0,0,1-3.61,2.09.72.72,0,0,1-.86-.39L49,27.22a.74.74,0,0,1,0,.21.72.72,0,0,1-.3.51,3.93,3.93,0,0,1-2.31.74h-.13l-2.21,2a.73.73,0,0,1-.33.17.72.72,0,0,1-.48.58l-.47.16,0,.29a.72.72,0,0,1-.71.6l-.64,0a.74.74,0,0,1-.08.19L39.8,35l0,0a.72.72,0,0,1-.09,1l-.89.78a.72.72,0,0,1,0,.7L38,38.75a.72.72,0,0,1-.53.32h-.07l-.16,0,0,0c-.35.42-.71.85-1.07,1.26a9.18,9.18,0,0,0-1.36,2.38c-.15.32-.29.65-.45,1a1.47,1.47,0,0,1-.61,1.21l-.15.14a12.49,12.49,0,0,0-.42,1.52,13.11,13.11,0,0,1-.5,1.75l.23-.33a1.91,1.91,0,0,0,.3-.52,1.41,1.41,0,0,1,1-1.13l.15-.07a1.78,1.78,0,0,1,1.59-.84,5,5,0,0,1,1.17.18.72.72,0,0,1,.26,1.28l-1.18.88.18.43.76-.12h.12a.72.72,0,0,1,.66,1,6.94,6.94,0,0,1-1.2,2.09l0,.23.41-.11.16,0h.07c.15,0,.22,0,.82.38a.72.72,0,0,1,.36.67l0,.52a.86.86,0,0,1-.22.53,1.08,1.08,0,0,1-.6.3.73.73,0,0,1-.29-.06l-.54-.21,0,.32a.72.72,0,0,1-.2.55l.28.71a.72.72,0,0,1-.14.76L35.7,56.9a.72.72,0,0,1-.53.23H35a1.56,1.56,0,0,1-1.16-1.55,1.49,1.49,0,0,0-.32-.54c-.1-.13-.21-.26-.29-.39a.72.72,0,0,1,0-.78,2.33,2.33,0,0,0,.23-1.17,6.65,6.65,0,0,1,.1-1.09.72.72,0,0,1,.45-.53l.12,0,0-.55-.74-.83-.43-.1a.7.7,0,0,1-.27-.12,7.51,7.51,0,0,1-.1,1.18,4.65,4.65,0,0,0-.07,1.17c0,.37.08.75.11,1.12A10.82,10.82,0,0,0,33,55.08l.16.55.08,0a.72.72,0,0,1,.5.73l-.05.86.22.26a3.65,3.65,0,0,1,.82,1.24,1,1,0,0,0,.23.19,2,2,0,0,1,.58.55,1.65,1.65,0,0,1,.87.67,1.43,1.43,0,0,0,.15.18,5.87,5.87,0,0,1,1.42.89l.13.1a2.82,2.82,0,0,1,.48.5c.17.21.24.28.29.28H39a.78.78,0,0,1,.72.45c0,.09.11.13.45.25a3,3,0,0,1,.67.3,3.85,3.85,0,0,0,.57.28,6,6,0,0,1,.72.35h.62a1.56,1.56,0,0,1,1.09.34s.1,0,.29.05a1.55,1.55,0,0,1,1,.39h.42a1.53,1.53,0,0,1,.84.21.4.4,0,0,0,.23.06,1.66,1.66,0,0,0,.3,0,4,4,0,0,1,.71-.09,1.63,1.63,0,0,1,.76.17,1.65,1.65,0,0,1,.64-.12,3.54,3.54,0,0,1,.59.06,2,2,0,0,0,.35,0h.29c.32,0,.64,0,1,.05l.26,0a3.5,3.5,0,0,1,2-.49h.26l-.16-.68a.72.72,0,0,1,.26-.73,1.3,1.3,0,0,1,.81-.29,1.72,1.72,0,0,1,.88.3,1.3,1.3,0,0,0,.21.11,3.41,3.41,0,0,1,1.37-.41h0v-.12a.72.72,0,0,1,.56-.66.94.94,0,0,0,.46-.24.72.72,0,0,1-.53-.74l0-.49a.72.72,0,0,1,.65-.67h.08a1,1,0,0,1,.28,0l.36-.92a.74.74,0,0,1,.16-.25l.67-.66c.67-.66,1.38-1.36,2.08-2.07a1.15,1.15,0,0,0,.26-.32,3,3,0,0,1,.58-1.17,1.63,1.63,0,0,0,.37-.73,2.74,2.74,0,0,1,.42-1.08,1.36,1.36,0,0,0,.27-.71s0-.05,0-.08l-.57,0a.72.72,0,0,1-.5-1.19,2,2,0,0,0,.63-1.47l-.33.1c-.15,0-.23.12-.42.36a3.44,3.44,0,0,1-.38.42,5.47,5.47,0,0,1-.73.53,5.24,5.24,0,0,0-.46.32,4.68,4.68,0,0,0-.43.41,3,3,0,0,1-1.3.92c-.08,0-.16.1-.3.28a1.91,1.91,0,0,1-.85.66,5.58,5.58,0,0,1-1.15,1,6.39,6.39,0,0,0-.66.51c-.37.35-.75.68-1.14,1l-.76.66c0,.09,0,.15-.06.21A.72.72,0,0,1,54,57l-1,.27a1.43,1.43,0,0,1-1.3,1.18.54.54,0,0,0-.31.39.72.72,0,0,1-.44.54l-1.41.57a.72.72,0,0,1-.88-.29l-.36-.58a.72.72,0,0,1,0-.67l.45-1a.72.72,0,0,1,.37-.37c.82-.36,1-.5,1.54-1.59a.72.72,0,0,1,.43-.36,4,4,0,0,0,1.62-1.25l.21-.22a6.7,6.7,0,0,1,1.52-1.12l.49-.3a1.53,1.53,0,0,1,1.28-1.36h.12a.72.72,0,0,1,.4.12l.16.11,0,0c.36-.32.73-.65,1.11-1,.22-.18.45-.34.68-.5s.4-.28.59-.43a3.81,3.81,0,0,0,.35-.34,4.64,4.64,0,0,1,.56-.52,4.26,4.26,0,0,1,.62-.37,1.72,1.72,0,0,0,.47-.29,4.93,4.93,0,0,1,1.58-1.24,3,3,0,0,0,1.25-1,.72.72,0,0,1,.54-.37c.25,0,.4-.21.69-.62a2.75,2.75,0,0,1,1.11-1,8.87,8.87,0,0,0,1.43-.85l.55-.37a.72.72,0,0,1,.68,0l1.74.79A.72.72,0,0,1,71.05,44l-.44.37a5.2,5.2,0,0,1-.53,1.77,5.87,5.87,0,0,0-.44,1.26,1,1,0,0,1-.15.37A8.7,8.7,0,0,1,69.15,50c-.1.42-.2.84-.27,1.29a.72.72,0,0,1-.31.49L68.3,52l0,.33a.72.72,0,0,1-.23.48l-.44.39a2.47,2.47,0,0,0-1,1.2.72.72,0,0,1-.58.54l0,.11a1.4,1.4,0,0,1-.62.85.57.57,0,0,0-.06.26,1.89,1.89,0,0,1-.26.89,10.46,10.46,0,0,0-.91,1.82c-.06.15-.12.29-.19.44l1-.72a3.26,3.26,0,0,0,.55-.62,3.37,3.37,0,0,1,1.36-1.2l.05-.3a.72.72,0,0,1,.71-.59l.61,0a.72.72,0,0,1,.52-.25h.59a.72.72,0,0,1,.72.68v.08a1.5,1.5,0,0,1,.55-.1,2.22,2.22,0,0,1,.67.12.72.72,0,0,1,.5.73s0,.77-.05.79l.3.17a.72.72,0,0,1,.26,1l-.56,1a.72.72,0,0,1-.89.31l-1.32-.53a.72.72,0,0,1-.45-.72,1.4,1.4,0,0,1,.29-.79l-.11-.12a.72.72,0,0,1-.12-.58L68.9,58c-.49.61-.95,1.19-1.45,1.73l-.08.08a2.83,2.83,0,0,1-1.36.93,3.06,3.06,0,0,0-.19.27,4.13,4.13,0,0,1-.33.45,1.39,1.39,0,0,1-1,.62c-.33,0-.55.21-.92.56a4,4,0,0,1-.91.7,2.81,2.81,0,0,0-1.05,1.41c-.24.5-.44,1-.65,1.54l-.14.36.35.45a.72.72,0,0,1,.11.69,6.52,6.52,0,0,1-1.58,2.58l.15.44a.72.72,0,0,1,0,.49l-.19.46c-.14.34-.28.69-.4,1l0,.05a3.88,3.88,0,0,1,.17.36.72.72,0,0,1-.17.8l-.49.46-.05.87a.72.72,0,0,1-.17.42,1,1,0,0,1-.24.83.69.69,0,0,0,.1.17c.14.14.29.29.43.44a2.24,2.24,0,0,0,1.61,1,.72.72,0,0,1,.31,1.34l-.84.49A.72.72,0,0,1,59.63,80Zm-2.51-53.1c0-.07,0-.52,0-.68l-.32.2v.1Zm-33.41,47a.72.72,0,0,1-.72-.77l.11-1.77a.72.72,0,0,1,.59-.67l1.86-.33h.13a.72.72,0,0,1,.58.3,1.51,1.51,0,0,0,.19.19,1.63,1.63,0,0,1,.5,2,.72.72,0,0,1-.66.42l-.95-.05L24,73.85A.73.73,0,0,1,23.71,73.91Zm126-10.22a.72.72,0,0,1-.28-.05l-1-.41a.72.72,0,0,1-.43-.79l.57-3.22-.3-.26a.72.72,0,0,1-.25-.59l0-.68a.72.72,0,0,1,.4-.6l.56-.28,0-.25a4,4,0,0,0,0-1.17,3.21,3.21,0,0,1,.05-1.29c0-.14.05-.27.07-.4l-.21-.15a.72.72,0,0,1-.29-.53,6.88,6.88,0,0,1,1.38-4.3c0-.1,0-.21,0-.33a4.15,4.15,0,0,0-.09-1.1,3.9,3.9,0,0,1,.46-2.53,2.94,2.94,0,0,0,.25-1,1.63,1.63,0,0,0-.46.5,2.2,2.2,0,0,1-1,.9,2.82,2.82,0,0,0-.41.24c-.31.24-.61.51-.91.78l-.4.36a.72.72,0,0,1-.88,0l-1.09-.75a.72.72,0,0,1-.19-1c.09-.13.17-.27.24-.41A2.48,2.48,0,0,1,147.19,43l0,0a1.58,1.58,0,0,1,.48-.37,1.32,1.32,0,0,0,.4-.41,2.57,2.57,0,0,1,1-.89,2.73,2.73,0,0,0,1-1,1.84,1.84,0,0,1,.84-.63.72.72,0,0,1-.14-.47l.07-1a.72.72,0,0,1,.37-.58,1.7,1.7,0,0,0,.28-.25,2.52,2.52,0,0,1,1-.68l0,0a1.8,1.8,0,0,0,.17-.41,8.52,8.52,0,0,1,.61-3.24c.12-.36.24-.72.34-1.08l.08-.31c.09-.32.18-.65.25-1a4.86,4.86,0,0,1,.2-.68,3.45,3.45,0,0,0,.15-.49c.06-.31.14-.61.22-.92a5.15,5.15,0,0,0,.26-1.68,1.18,1.18,0,0,1,.38-1c.21-.17.26-.41.34-.87a3.68,3.68,0,0,1,.3-1.06,3.68,3.68,0,0,0,.25-1,5.7,5.7,0,0,1,.28-1.14,7.21,7.21,0,0,0,.37-2.07l0-.53a.88.88,0,0,1,.09-.31.72.72,0,0,1-.06-.3,1,1,0,0,1,.19-.71,3.73,3.73,0,0,0,.86-2.37,15.82,15.82,0,0,1,.34-2.49l-.11,0a1.79,1.79,0,0,0-.71.48,4.12,4.12,0,0,1-.87.65,4.81,4.81,0,0,1-.83.31,3.32,3.32,0,0,0-.79.32.79.79,0,0,1-.22.31l-2.35,2-.11.09a12.46,12.46,0,0,0-.49,1.28,6.34,6.34,0,0,1-1.48,2.69.73.73,0,0,1-.28.17l-2.26.76a.71.71,0,0,1-.23,0,.72.72,0,0,1-.54-.25l-.72-.83a.72.72,0,0,1-.18-.52l.07-1.14a.72.72,0,0,1,.21-.46l.68-.69c.59-.6,1.2-1.22,1.84-1.81A7.76,7.76,0,0,0,150,15,11.06,11.06,0,0,1,151.69,13a20.84,20.84,0,0,0,2.54-3,4.64,4.64,0,0,1,1.12-1l.29-.21V8.69a.72.72,0,0,1,.27-.52l.21-.18a3.1,3.1,0,0,1,.84-.6,5,5,0,0,0,1.19-.84c.21-.18.42-.36.64-.53a5.69,5.69,0,0,1,1-.57l.31-.15a4,4,0,0,1,.43-.18,1.71,1.71,0,0,0,.33-.14,1.49,1.49,0,0,1,1.13-.5h.14a2.57,2.57,0,0,0,.39-.37l.13-.13A.71.71,0,0,1,163,3.8c.25-.06.49-.09.7-.12a2.16,2.16,0,0,0,.64-.15,10.12,10.12,0,0,1,2.41-1.05,12,12,0,0,0,1.6-.62A3.76,3.76,0,0,1,170,1.42h.25c.37,0,.74.05,1.1.06A7.59,7.59,0,0,1,174,1.9a7.43,7.43,0,0,1,2.34,1.61l.55.49a10.88,10.88,0,0,1,1.32,1.41l.38.45a.73.73,0,0,1,.13.2l.21.48c.13.29.23.52.31.76a2.21,2.21,0,0,0,.26.44A2.27,2.27,0,0,1,180,9.37a8.56,8.56,0,0,0,1,1.13.72.72,0,0,1,.23.66c0,.21-.09.42-.14.62a2.87,2.87,0,0,0-.13,1,2.21,2.21,0,0,0,.37.5c.14.16.29.33.42.52a.72.72,0,0,1-.58,1.14l-.78,0-.06.13a9.78,9.78,0,0,0-.51,1.23,2.17,2.17,0,0,0,0,.49,2.09,2.09,0,0,1-.32,1.26.83.83,0,0,0-.05.29,1.78,1.78,0,0,1-.46,1.18,4,4,0,0,0,0,.43,5,5,0,0,1,0,.56.72.72,0,0,1-.24.5,3.1,3.1,0,0,1-.29.22l-.08.05a8.92,8.92,0,0,1-1.58,3,10.13,10.13,0,0,0-1.16,1.91.71.71,0,0,1-.2.27l-.54.44a6.19,6.19,0,0,0-1,.92,4.65,4.65,0,0,1-1,.86,4.57,4.57,0,0,0-.54.42,8.86,8.86,0,0,1-1.2.92l-.24.17-1.23.83c-.52.35-1,.7-1.56,1.06a13.43,13.43,0,0,1-1.22.74,7.3,7.3,0,0,0-1.65,1.11,2.2,2.2,0,0,1-.67.42,1.8,1.8,0,0,0-.25.13,3,3,0,0,1-.56.31c-.35.16-.35.18-.36.25a.72.72,0,0,1-.47.58,5.74,5.74,0,0,1-.6.17,2.46,2.46,0,0,0-.58.18,3.21,3.21,0,0,1-1.43,1,2.52,2.52,0,0,0-.77.46A6.68,6.68,0,0,1,158,38.45c-.26.15-.53.29-.77.46-.57.38-1.12.78-1.68,1.19l-.33.24.09.23.31.19a12,12,0,0,0,1.16.67l.71.37a4.68,4.68,0,0,0,1.83.7,2.31,2.31,0,0,1,1.09.46,12.62,12.62,0,0,0,1.37.76c.42.22.85.43,1.24.68s1.1.64,1.66.94c.72.39,1.47.79,2.18,1.27a20.65,20.65,0,0,0,2.74,1.6,22.66,22.66,0,0,1,3.32,1.8l5.38-4.7a.72.72,0,0,1,.47-.18h.1l.31,0h.27a1.71,1.71,0,0,1,1.66.88.72.72,0,0,1-.09.81l-.33.39c-.26.31-.53.63-.81.94l-.3.36a3.87,3.87,0,0,1-1.17,1.1,1.35,1.35,0,0,0-.39.4,2.72,2.72,0,0,1-.73.71,6,6,0,0,0-.92.76l-.05.05.65-.14.15,0a.72.72,0,0,1,.72.68l0,.44.59.26a5.68,5.68,0,0,1,1.47.92,1.66,1.66,0,0,0,.73.41.44.44,0,0,0,.28-.13.87.87,0,0,1,.56-.19l.3,0,.24,0a.72.72,0,0,1,.65.52h0a.72.72,0,0,1,.39.69l0,.41.31.46,1.56-.21h.1a.72.72,0,0,1,.48.18,1.77,1.77,0,0,1,.39,2.53,5.33,5.33,0,0,0-.38.75c-.08.17-.16.35-.26.55a.72.72,0,0,1-.14.19l-1.37,1.36a.72.72,0,0,1-.51.21l-.61,0a.72.72,0,0,1-.68-.76l.05-.83-.36-.27-.75.8a.72.72,0,0,1-.53.23h0a.72.72,0,0,1-.53-.26c-.15-.18-.26-.24-.32-.24a.62.62,0,0,0-.33.19.72.72,0,0,1-.48.18h-.13a.72.72,0,0,1-.51-.38,5.92,5.92,0,0,0-1.2-1.45,9.5,9.5,0,0,1-1.17-1.3.72.72,0,0,1,.23-1l1.06-.61a1.46,1.46,0,0,0-1.07-.51,1.76,1.76,0,0,1-1.29-.63c-.26-.36-.46-.36-.54-.36a1.24,1.24,0,0,0-.52.15l-.24.35c-.26.38-.52.77-.78,1.17a3.45,3.45,0,0,1-.78.79c-.3.24-.48.4-.54.61a.72.72,0,0,1-.67.52c-.13,0-.2.07-.46.37a2.67,2.67,0,0,1-.83.72,4.61,4.61,0,0,0-1,.83c-.19.18-.39.38-.6.56a.72.72,0,0,1-.47.18H167a.72.72,0,0,1-.5-.4l-.59-1.27A.72.72,0,0,1,166,58l.28-.38.63-.84,2.25-2.91.07-.08,1.42-1.38a16.81,16.81,0,0,1-1.85-1,10.88,10.88,0,0,0-2.36-1.21,1.43,1.43,0,0,1-.56-.36l-.08-.07-.21-.15a13.79,13.79,0,0,0-3.51-2,3.68,3.68,0,0,1-1.11-.7l-.31-.24a2,2,0,0,1-1.25-.47,6.22,6.22,0,0,0-1.41-.8l-.21-.1c-.36-.17-.73-.31-1.1-.44l-.65-.25-.24-.11-.09,0a5.26,5.26,0,0,0-.69,2.43,5,5,0,0,1-.45,1.89,6.83,6.83,0,0,0-.4,2.53c0,.46,0,.93-.09,1.38a7.91,7.91,0,0,0-.07,1.2,4.87,4.87,0,0,1-.57,2.21A7.15,7.15,0,0,0,153,57a1.14,1.14,0,0,1-.47.61l-.61,3.08a.72.72,0,0,1-.37.5l-.17.09a2.89,2.89,0,0,1-1.27,2.25A.73.73,0,0,1,149.74,63.69Zm1.4-12.15,0-.13-.06.05Zm10.8-42.07a.72.72,0,0,1,.43.74c0,.23,0,.45-.05.67a4.69,4.69,0,0,1-.5,2.17,4.48,4.48,0,0,0-.69,2.54,1.51,1.51,0,0,1-.29.92l-.06.1c-.12.37-.25.75-.39,1.13a10,10,0,0,0-.81,3.6,1.5,1.5,0,0,1-.11.77A6.4,6.4,0,0,0,159,23.8a11.4,11.4,0,0,1-.29,1.29c-.3,1-.56,2-.82,2.94l-.16.61c-.06.24-.13.47-.21.7a6.66,6.66,0,0,0-.34,1.47,7.64,7.64,0,0,1-.4,1.73c-.07.22-.14.45-.2.68-.19.71-.38,1.42-.56,2.13l-.1.42a14.23,14.23,0,0,0,1.84-1.2c.41-.33.82-.68,1.22-1a20.5,20.5,0,0,1,3.4-2.54.72.72,0,0,1,.81.08l.12.1a10.22,10.22,0,0,0,1.83-1.37c.3-.26.6-.53.92-.77a9.76,9.76,0,0,1,1.21-.78l.5-.3a23.87,23.87,0,0,0,4.47-4.1.72.72,0,0,1,.56-.26l1,.06a3.07,3.07,0,0,0,1.07-1.6.72.72,0,0,1,.24-.38,3.42,3.42,0,0,0,.95-1.83,8.83,8.83,0,0,1,.43-1.22,13.94,13.94,0,0,0,.85-3l0-.12-.33,0a.72.72,0,0,1-.62-1.08l.32-.55c-.44-1.15-.67-2.06-.16-2.86.27-.43.17-.77-.07-1.43l0-.12-.63.18-.2,0a.72.72,0,0,1-.58-.3l-.74-1c-.27-.05-.54-.13-.81-.21a4.7,4.7,0,0,0-1.32-.26H172a1.86,1.86,0,0,1-1.09-.47,2.87,2.87,0,0,0-.26-.18.72.72,0,0,1-.15-1.13,2.35,2.35,0,0,1,1.72-.76,4.15,4.15,0,0,1,1.24.24,4.61,4.61,0,0,0,.51.14l.41-.27a4.08,4.08,0,0,0-.94-.67l-.5-.31-3.11-.19-.14.08a7.19,7.19,0,0,1-2.3.9l.06.07a.72.72,0,0,1,.15.66,2.31,2.31,0,0,1-2,1.67c-.76.16-1.51.38-2.23.61l-.63.19a6,6,0,0,1-.9.94ZM14.3,62.86a.72.72,0,0,1-.6-.32l-.2,0-.18,0a.73.73,0,0,1-.48-.41l-.69-1.58a.72.72,0,0,1-.05-.39.72.72,0,0,1-.07-.93.71.71,0,0,1,0-.53l-.13-.2a1,1,0,0,1-.48-.64,1,1,0,0,1,.21-.82,1.46,1.46,0,0,1-.47-1.15,1.15,1.15,0,0,1,.07-.29h0a.74.74,0,0,1-.26,0h0a.72.72,0,0,1-.8.15A2.86,2.86,0,0,0,9,55.53a2.16,2.16,0,0,0-.84.17.72.72,0,0,1-.62,0,2.09,2.09,0,0,0-1-.29A1.37,1.37,0,0,0,6,55.5a.71.71,0,0,1-.29.06.72.72,0,0,1-.54-.24L4.82,55h-.1a.72.72,0,0,1-.52-.24.87.87,0,0,1-.23-.6.78.78,0,0,1,.24-.56l0,0a1.58,1.58,0,0,1,1.11-1.11.72.72,0,0,1,.66.08l.18-.15a.72.72,0,0,1,.85,0l1.53-.51.1-.25a.72.72,0,0,1,.59-.44h.07a.72.72,0,0,1,.6.32l.14.21.15-.15a.72.72,0,0,1-.17-.48c0-.12,0-.6,0-.7a.71.71,0,0,1-.25-.07l0,.06a.72.72,0,0,1-.54.26h0a.72.72,0,0,1-.4-.12l-.2,0-.17,0A.72.72,0,0,1,8,50.12l-.41-.79a.72.72,0,0,1,0-.6l.41-1a.72.72,0,0,1,.4-.4L9.1,47a.73.73,0,0,1,0-.42l0-.08a.7.7,0,0,1-.13-.2l-.31-.71a.72.72,0,0,1,.09-.73A.72.72,0,0,1,9,43.75l1.13-.61a.72.72,0,0,1,.89.16,2.68,2.68,0,0,1,.83,1.37l.06,0a.72.72,0,0,1,.34,1.13l0,.06.19.3h0l.19,0a.72.72,0,0,1,.39.12l.09.06.29-.23a.72.72,0,0,1,.45-.16l.74,0,.21-.37a.72.72,0,0,1-.13-.63l.22-.82a1.09,1.09,0,0,1,.05-1,1.66,1.66,0,0,1,.14-1.87c0-.08,0-.19,0-.28s0-.42-.06-.67a.72.72,0,0,1,.13-.44l.75-1a.72.72,0,0,1,.52-.3h.07a.72.72,0,0,1,.5.2l.93.9a.72.72,0,0,1,0,1l0,.05.08.39a3.82,3.82,0,0,0,.85,2.14.72.72,0,0,1,.13.84l-.17.33a.67.67,0,0,1,.18.39H19a.75.75,0,0,1,.24,0,.73.73,0,0,1,.31-.12l1.76-.26.17,0h0a.72.72,0,0,1,.23,0l.75-.34A.72.72,0,0,1,22.8,44h.12a.72.72,0,0,1,.93-.22l.06,0a2.11,2.11,0,0,1,1.52-.53c.24,0,.48,0,.72,0l.16,0a.72.72,0,0,1,.47.24l.41.45a.72.72,0,0,1,.18.53l-.06.89a.72.72,0,0,1-.44.62,3.3,3.3,0,0,1-.71.19c-.49.09-.52.13-.57.27a.72.72,0,0,1-.52.48l-.16,0a.72.72,0,0,1-.52-.22h0l-.11.07a1.71,1.71,0,0,1-.91.34l-.18,0-.26,0a3.46,3.46,0,0,0-1.32.39l-.28.12a.73.73,0,0,1-.28.06h-.11a.72.72,0,0,1-.34.19l-.17,0a.72.72,0,0,1-.41-.13,4.8,4.8,0,0,1-.49.19l-.11,0a2.21,2.21,0,0,1-.3,1,1.4,1.4,0,0,0-.14.34c.12.39.21.79.29,1.2a.72.72,0,0,1,.94-.24l.32.17,1.57-.31.13-.29a.72.72,0,0,1,.66-.43h.07a.72.72,0,0,1,.63.56l0,.08.06-.05.26-.22a.72.72,0,0,1,.43-.14h0a.72.72,0,0,1,.58-.33h0a.72.72,0,0,1,.61.34l.08.14h.08a.72.72,0,0,1,.43.14l.54.41a.72.72,0,0,1,0,1.13l-1.31,1.07a.72.72,0,0,1-.46.16h0l-.33.25a.72.72,0,0,1-.44.15h0a.72.72,0,0,1-.43.31l-.18,0a.71.71,0,0,1-.37-.1l-.37-.22-.59.15-.11.26a.72.72,0,0,1-.65.43h0a.72.72,0,0,1-.57-.27.87.87,0,0,1-.33.06.82.82,0,0,1-.51-.17l-.39.17v0l.26.28a.72.72,0,0,1,.07.88l-.06.08a.72.72,0,0,1,.13.34.8.8,0,0,1-.05.39l.14.17a.72.72,0,0,1,.17.41.72.72,0,0,1,.25,1.1c-.35.43-.27.65-.09,1.14a3,3,0,0,1,.22.91.72.72,0,0,1-.22.55l-1,.92a.72.72,0,0,1-.5.2H19a.72.72,0,0,1-.52-.32L17.84,60a.72.72,0,0,1-.11-.18l0-.07a.72.72,0,0,1-.4-.65v-.56l-.44-.33A.72.72,0,0,1,16.93,57a.72.72,0,0,1,0-.62l-.08-.09a.72.72,0,0,1-.17-.62,2.71,2.71,0,0,0,0-1.29l-1.79.42s0,.1,0,.15a2.89,2.89,0,0,1-.07.6.72.72,0,0,1,.16.85.72.72,0,0,1,.2,1.06l.31.82a.72.72,0,0,1-.09.68,1.14,1.14,0,0,1,.05.93,1.84,1.84,0,0,1,.17.26,3.65,3.65,0,0,1,.25.46,2,2,0,0,1,.09,1c0,.08,0,.15,0,.22a.72.72,0,0,1-.49.67l-.85.29A.72.72,0,0,1,14.3,62.86Zm.44-11.54a.72.72,0,0,1,.36.1l.08,0h0a2.83,2.83,0,0,1,.58-.26.65.65,0,0,1,0-.21.82.82,0,0,1,.18-.46l-.29-.66a.74.74,0,0,1-.06-.27l-.1-.11h-.12a.72.72,0,0,1-.42-.14l-.19-.13a3.45,3.45,0,0,1-1,.25c-.4.06-.59.1-.69.23h0s0,.05.08.22a2.59,2.59,0,0,1,.12.47,5.14,5.14,0,0,0,.15.65L13.8,51h.14a.72.72,0,0,1,.63.37Zm61.82,8.16a1.08,1.08,0,0,1-.93-.35,1,1,0,0,1-.08-1,.68.68,0,0,1,.06-.16,3,3,0,0,1-.33-.39,1.69,1.69,0,0,0-.2-.24.72.72,0,0,1-.11-1l.09-.13L74.94,56a.79.79,0,0,1,0-.73.73.73,0,0,1,.59-.38l1.5,0a.72.72,0,0,1,.5,1.24l-.17.16A2,2,0,0,1,77.3,58a.7.7,0,0,1-.08.13l0,0a.72.72,0,0,1-.4,1.31ZM71.8,54a1.25,1.25,0,0,1-.59-.15.72.72,0,0,1-1-.58,2.43,2.43,0,0,1,.49-1.86.72.72,0,0,1,.62-.36h.13l.38.07.5-.75a.72.72,0,0,1,.59-.32h0a.72.72,0,0,1,.59.3c.38.53.64.61.84.61l.2,0,.15,0a.72.72,0,0,1,.72.77l0,.46a.77.77,0,0,1-.68.73H74.6c-.74,0-.74,0-1.7.68A2,2,0,0,1,71.8,54Zm28.51-8.08a.72.72,0,0,1-.39-.11l-.85-.54a.72.72,0,0,1-.32-.48c0-.19-.07-.37-.11-.56A12.35,12.35,0,0,1,98.42,43a2.92,2.92,0,0,1,.26-1.35,1.53,1.53,0,0,0,.17-.78.72.72,0,0,1,.29-.72.91.91,0,0,0,0-.32,1.69,1.69,0,0,1,.23-1.09,1.38,1.38,0,0,0,.18-.72,3.28,3.28,0,0,1,.07-.51.73.73,0,0,1,.08-.2l.08-.14-1.14-.07a.72.72,0,0,1-.65-.91c.37-1.34.51-1.63,1.36-2.16l-.1-.78a.72.72,0,0,1,.24-.63c2.23-1.94,2.93-3,3.09-5l-2.24.54-.17,0a.71.71,0,0,1-.39-.11.7.7,0,0,1-.21-.2l-1.4.73-.28.32a6,6,0,0,0-.76,1,3.52,3.52,0,0,1-2.06,1.65.72.72,0,0,1-.66-.09.72.72,0,0,1-.3-.6V29.61a.72.72,0,0,1,.22-.51c2.78-2.65,3.09-2.94,4-3.08l.06-.09a2.22,2.22,0,0,1,.89-.82,5.73,5.73,0,0,0,1.51-1.1,7.69,7.69,0,0,1,1.68-1.25,2.78,2.78,0,0,0,.77-.81l.32-.41.53-2a.72.72,0,0,1,.55-.52,1.57,1.57,0,0,1,.31,0,1.41,1.41,0,0,1,1.17.69.87.87,0,0,0,.1.13.66.66,0,0,1,.34.57v.13a3.12,3.12,0,0,0,1-.57,2.83,2.83,0,0,1,1.1-.63c.43-.16.55-.22.6-.39a.72.72,0,0,1,.68-.49h0a2.91,2.91,0,0,0,1.6-.7,6.82,6.82,0,0,1,1.4-.69,8.49,8.49,0,0,0,.81-.35,11.58,11.58,0,0,1,2.29-.94,3.28,3.28,0,0,0,.6-.27,3.13,3.13,0,0,1,1.49-.46h.08a3.52,3.52,0,0,1,1.27-.62,3.53,3.53,0,0,0,.63-.24,5.92,5.92,0,0,1,1.64-.54c.25-.06.5-.11.73-.18l.73-.19a5.75,5.75,0,0,0,1.47-.49.72.72,0,0,1,1.06.68l-.08,1.22a.72.72,0,0,1-.61.67,5.44,5.44,0,0,0-1.28.45,5.85,5.85,0,0,1-2.41.65h-.18a3,3,0,0,0-1.14.62,5.51,5.51,0,0,1-1.73.76,3.41,3.41,0,0,0-1.46.68.73.73,0,0,1-.4.2,9.76,9.76,0,0,0-3.37,1.38c-.59.33-1.21.68-1.85,1a12.58,12.58,0,0,0-1.51.83l-.59.36a2.91,2.91,0,0,0-1.29,1.91,1,1,0,0,1-.2.72,3.41,3.41,0,0,0-.57,2.25.72.72,0,0,1-.72.71h-.22c0,.29-.05.58-.07.89a10.6,10.6,0,0,1-.14,1.45,2.77,2.77,0,0,0,.5-.22,40.63,40.63,0,0,1,4.66-2.3l1.29-.53,1.76-.73a.74.74,0,0,1,.28-.06.72.72,0,0,1,.36.1l.83.48a.72.72,0,0,1,.36.67l0,.58a.72.72,0,0,1-.38.59L115,29a23.26,23.26,0,0,1-4,1.8l-.06,0a3.14,3.14,0,0,1-1.79.93,2.17,2.17,0,0,0-.84.39,5.7,5.7,0,0,1-.68.38l-.35.15a5.18,5.18,0,0,0-2.69,1.94c-.05.26-.1.52-.15.78a15.33,15.33,0,0,1-1.21,4.21.72.72,0,0,1-.62.4h0a.72.72,0,0,1-.62-.35h0a3,3,0,0,1-.23.57,3.82,3.82,0,0,0-.32,1.74c0,.2,0,.41,0,.61a.74.74,0,0,1,.47.72l-.08,1.35a.72.72,0,0,1-.28.53l-.73.55A.71.71,0,0,1,100.3,45.94ZM75.73,43.68a1.81,1.81,0,0,1-.55-.09.72.72,0,0,1-.46-.45l-.42-1.2a.72.72,0,0,1,.27-.83,1,1,0,0,0,.5-.93,1.67,1.67,0,0,1,.31-.94l.09-.16a10,10,0,0,0,.58-1.54,14.36,14.36,0,0,1,.49-1.37,5.09,5.09,0,0,1,.45-.77l.13-.21c.11-.55.26-1.1.4-1.63a9.47,9.47,0,0,0,.5-3.86.72.72,0,0,1,.14-.55L79,28a4.35,4.35,0,0,1,.71-2.31,8.08,8.08,0,0,0,.44-.9.72.72,0,0,1,.67-.46l1.22.07a.72.72,0,0,1,.68.76L82.65,27a.71.71,0,0,1-.05.23l-.3.71c-.25.59-.47,1.11-.67,1.63a6.35,6.35,0,0,1,.72,3.1l0,.07a3.19,3.19,0,0,1,.19.29.72.72,0,0,1,0,.75,2.91,2.91,0,0,1,.73,1,3.31,3.31,0,0,0,.16.29l.21.28,0-.28a.72.72,0,0,1,.25-.5l.42-.37a8.39,8.39,0,0,1,.48-2,7,7,0,0,0,.44-1.87,21.07,21.07,0,0,0,0-2.11c0-.46-.05-.92-.06-1.39a1.33,1.33,0,0,1-.32,0,1.27,1.27,0,0,1-1-.58.72.72,0,0,1,0-.9l.51-.59-.09-.38a.72.72,0,0,1,0-.41l.33-.92a.72.72,0,0,1,.35-.4l.45-.23.14-2.25a.72.72,0,0,1,.24-.5l.87-.76a.72.72,0,0,1,.95,0l.33.26a3.44,3.44,0,0,1,.94.94,2.55,2.55,0,0,0,.39.44,2.44,2.44,0,0,1,.89,1.59,2.91,2.91,0,0,1,0,.51l0,.18a.72.72,0,0,1-.72.67l-.81,0a.72.72,0,0,1-.61-.41c0,.18,0,.36,0,.54a3.61,3.61,0,0,1-.29,1.88,3,3,0,0,1,.06,1.55c-.08.53-.1.76.06,1a.72.72,0,0,1,.14.55,5.39,5.39,0,0,0,0,.7,4.05,4.05,0,0,1-.3,1.72l0,.2a5.65,5.65,0,0,1,.06,1.19,4.29,4.29,0,0,1-.25,1c0,.14-.09.28-.13.42s-.05.25-.08.37a4.08,4.08,0,0,1-.25.94,6.7,6.7,0,0,0-.38,1.7c0,.25-.07.5-.11.75a3.51,3.51,0,0,1-1.09,2.29.72.72,0,0,1-.75.11c-1.72-.75-2.85-2.13-4.15-5.11a.72.72,0,0,1-.05-.4l-.07-.11a2.2,2.2,0,0,0-.23.53,9,9,0,0,1-.78,1.91c-.14.27-.27.54-.4.83s-.21.5-.32.79l-.19.47a.71.71,0,0,1-.2.28l-.15.13-.6,3.09a.72.72,0,0,1-.27.43l-.17.16A1.83,1.83,0,0,1,75.73,43.68Zm33.74-3.33a.72.72,0,0,1-.72-.77l0-.41-.72,0a.72.72,0,0,1-.68-.76l.07-1.06a.72.72,0,0,1,.34-.57,3,3,0,0,1,1.55-.46,3.16,3.16,0,0,1,1.8.61.72.72,0,0,1,.3.45,2.23,2.23,0,0,1-.89,2.11,2.63,2.63,0,0,0-.46.53A.72.72,0,0,1,109.47,40.35Zm58.25-1.6a.72.72,0,0,1-.36-.1l-1.31-.76a.72.72,0,0,1-.27-1A2.32,2.32,0,0,1,168,35.67a5.29,5.29,0,0,1,.62,0,.72.72,0,0,1,.6.5l.41,1.33a.72.72,0,0,1-.53.91l-1.22.28Zm6.07-.73a.72.72,0,0,1-.47-.18l-.94-.82-.57-.14a.72.72,0,0,1-.46-1,2,2,0,0,1-.59-.21.72.72,0,0,1-.38-.61,1.4,1.4,0,0,1,1.36-1.5h.12l.19,0a.72.72,0,0,1,.5-.2l1.54.09a.72.72,0,0,1,.38.14,1.84,1.84,0,0,1,.56.79c.16.36.18.36.36.36a.72.72,0,0,1,.63,1l-.48,1a.72.72,0,0,1-.65.42h0a.72.72,0,0,1-.21.31l-.39.34A.72.72,0,0,1,173.79,38ZM30.22,37.67a.72.72,0,0,1-.36-.12l-1-.67a.72.72,0,0,1-.18-1l.79-1.09.1-.46a13.43,13.43,0,0,1,.45-1.7,2.16,2.16,0,0,1,.72-.88l.29-.26a.72.72,0,0,1,1,0l1,1a.72.72,0,0,1,.08,1l-.27.37a9.27,9.27,0,0,1-.71.88,8.19,8.19,0,0,1-.73.67l1,1.32a.72.72,0,0,1-.57,1.16Zm95.56-5.38a.72.72,0,0,1-.49-.19l-.89-.83a.72.72,0,0,1,0-1.09l.08-.07,0,0a.72.72,0,0,1-.09-.77l.25-.51c.18-.37.37-.74.54-1.12s.19-.49.28-.74.23-.63.37-.93.27-.54.42-.8a7.59,7.59,0,0,0,.43-.86,5.05,5.05,0,0,0,.19-.6h-.17a1.43,1.43,0,0,1-1-.43.72.72,0,0,1,.07-1.09l1.38-1a.91.91,0,0,1,.41-.85c.12-.07.21-.25.33-.52a2.2,2.2,0,0,1,1.42-1.41l.2,0,.5,0a.72.72,0,0,1,.49.24l.63.7a.72.72,0,0,1,.18.42c0,.28,0,.55.06.81,0,.55.08,1.08.16,1.6s.18,1,.31,1.56l.14.64,1,1,.47,0c.5,0,1,.07,1.44.07a11.57,11.57,0,0,0,1.46-.13l.33,0,.35,0h.7a1.08,1.08,0,0,0,.46-.08,2.11,2.11,0,0,1,.86-.16,5.85,5.85,0,0,1,.92.1l.33,0,.12-.05a2.12,2.12,0,0,1-.08-.46V24.5c0-.25,0-.27-.05-.31a2.7,2.7,0,0,1-.46-.82l-.09-.22a5.92,5.92,0,0,1-1.06,1.39.72.72,0,0,1-1.22-.56l.12-2a.72.72,0,0,1,.35-.58l.2-.12a4.16,4.16,0,0,1,.47-1.55,2.56,2.56,0,0,0,.34-1.1.72.72,0,0,1,.27-.58h0a2.1,2.1,0,0,0-.1-.2,1.63,1.63,0,0,1,0-1.51l-.06-.07a.72.72,0,0,1-.16-.34l-.27-1.57a.72.72,0,0,1,.05-.41,1.38,1.38,0,0,1,1.36-.85,4.57,4.57,0,0,1,.5,0l.22,0a.72.72,0,0,1,.62.46c0,.13.09.26.13.39a2,2,0,0,0,.22.54,2.12,2.12,0,0,0,.49.39l.34.24a.72.72,0,0,1,.28.56l0,1.33c0,1.25,0,2.48,0,3.71a3.12,3.12,0,0,1-.19.94l-.06.18a3.42,3.42,0,0,1,.39,1.95l.3.33a.72.72,0,0,1,.18.52l-.12,1.86a.72.72,0,0,1-.4.6l-.8.4a.72.72,0,0,1-.22.07c-.55.08-1.11.17-1.67.27a25.88,25.88,0,0,1-4.36.49,11.25,11.25,0,0,1-2.3-.22h-.05a.72.72,0,0,1-.6,0l-2.27-.89a.72.72,0,0,1-.29-.21l-.8-1-.15.1-.06.93a.72.72,0,0,1-.32.55l-.1.06-.17.31a9,9,0,0,0-.67,1.41,4.88,4.88,0,0,1-2,2.64A.72.72,0,0,1,125.77,32.3Zm-50.16-.1a2.88,2.88,0,0,1-2.45-1.1.72.72,0,0,1-.06-.77,1.49,1.49,0,0,1,1.43-.82H75c.17,0,.18,0,.22-.08a.72.72,0,0,1,.62-.35h0a.72.72,0,0,1,.62.35l.5.82A.72.72,0,0,1,77,31l-.49.83a.72.72,0,0,1-.58.35Zm-40.7-3.07a.72.72,0,0,1-.58-.36l-.71-1.22a.72.72,0,0,1,0-.71l.34-.63a.72.72,0,0,1,.5-.36l2.95-.54h.13a.71.71,0,0,1,.4.12,1.58,1.58,0,0,1,.48,2.11.72.72,0,0,1-1,.33l-.07,0,0,.72a.72.72,0,0,1-.72.67Zm134.72-4a.71.71,0,0,1-.37-.1.72.72,0,0,1-.33-.78l.58-2.54a.73.73,0,0,1,.23-.38l.45-.39a.72.72,0,0,1,1.19.49l0,.28.11,0a.72.72,0,0,1,.42.6l0,.6a.72.72,0,0,1-.25.6L170.11,25A.72.72,0,0,1,169.63,25.14ZM24.24,23.54a.72.72,0,0,1-.65-.54l-.4-1.5a.72.72,0,0,1,.2-.7l.9-.86a.72.72,0,0,1,.5-.2.73.73,0,0,1,.21,0,.72.72,0,0,1,.49.55,3.42,3.42,0,0,0,.24.66A2.77,2.77,0,0,1,26,23.11a.72.72,0,0,1-.68.49Zm147.88-3.25a.72.72,0,0,1-.72-.77l.07-1a.72.72,0,0,1,.3-.54l-.1-.11a.69.69,0,0,1-.24,0,.72.72,0,0,1-.46-.54l-.3-1.89a.72.72,0,0,1,.36-.74l.87-.49a.72.72,0,0,1,1.07.58l.12,1.91a3,3,0,0,1,.81-.82.72.72,0,0,1,.86.06l.18.16a4.72,4.72,0,0,0,.38.32,2.78,2.78,0,0,0,.32.19l.2.11a.72.72,0,0,1,.36.67l0,.77a.72.72,0,0,1-.15.39l-.85,1.11a.72.72,0,0,1-.94.18l-.58-.34a.72.72,0,0,1-.36.39l-.85.41A.72.72,0,0,1,172.12,20.29ZM116.83,4.95a.72.72,0,0,1-.48-.22l-.49-.51a.72.72,0,0,1-.06-.92L116,3l-.34-1.13a.72.72,0,0,1,.12-.64l.7-.93a.72.72,0,0,1,.58-.29h0a1.46,1.46,0,0,1,1.35,1.07,1.27,1.27,0,0,0,.08.18.7.7,0,0,1,.1.92h.17l.91-.83a.72.72,0,0,1,.49-.19h.11a.72.72,0,0,1,.51.35l.74,1.28a.72.72,0,0,1-.13.89l-.45.43a.72.72,0,0,1-.49.2h-.12a.73.73,0,0,1-.16.21l-.47.41a.72.72,0,0,1-.47.18Zm8-2.44a3.31,3.31,0,0,1-1-.16.72.72,0,0,1-.42-.35L123,1.22a.72.72,0,0,1,.64-1.06l2.59.15a.72.72,0,0,1,.57,1.1l-.07.13a1.23,1.23,0,0,1-.53.62A3,3,0,0,1,124.87,2.51Z"/><path class="cls-1" d="M2.72,108.45a.72.72,0,0,1-.49-.19l-.59-.55-.93-.05a.72.72,0,0,1-.66-.55,2.2,2.2,0,0,1,.82-2.22l.09-.08a15.51,15.51,0,0,0,2.75-2.89,1.71,1.71,0,0,1,1-.62l.16,0a8.33,8.33,0,0,1,3.5-2.78l.16-.05a.72.72,0,0,1,.08-.48,1.58,1.58,0,0,1,1.43-.85,3.79,3.79,0,0,1,.74.09.79.79,0,0,1,.62.6h.23a1.57,1.57,0,0,0,.31,0,.72.72,0,0,1,.64-.42l.17,0h0a.89.89,0,0,0,.41-.19,2.38,2.38,0,0,1,1-.44,2.22,2.22,0,0,0,.69-.34,6.1,6.1,0,0,1,.59-.34,4.09,4.09,0,0,1,.55-.2,1.59,1.59,0,0,0,.42-.17,2.08,2.08,0,0,1,1.45-.47.53.53,0,0,0,.14-.08l.23-.14.21-.14a1.66,1.66,0,0,1,1-.39l.27,0a2.34,2.34,0,0,0,1.1-.4c.19-.11.39-.21.59-.3a24.75,24.75,0,0,1,2.62-1l1.06-.35.24-.06a7,7,0,0,1,2.44-.81A9.62,9.62,0,0,0,29,91.28a5.93,5.93,0,0,1,.82-.2,4,4,0,0,0,.85-.23,1.68,1.68,0,0,1,.7-.14l.45,0h.11a1.55,1.55,0,0,1,1-.47h.28a2.16,2.16,0,0,0,1-.38,6,6,0,0,1,.71-.36,3.7,3.7,0,0,1,1.21-.28l.21-.32a.72.72,0,0,1,.6-.32.71.71,0,0,1,.24,0,1.54,1.54,0,0,0,.51.09,3.25,3.25,0,0,0,1.1-.28,5.43,5.43,0,0,1,1.06-.31,3.44,3.44,0,0,0,1.77-.82,3.36,3.36,0,0,1,1.92-.86,3.55,3.55,0,0,0,.89-.22A4.37,4.37,0,0,1,45.8,86l.28,0a.66.66,0,0,0,.29-.11,7.89,7.89,0,0,1,3.1-1.14,11.34,11.34,0,0,0,1.64-.42,1.17,1.17,0,0,1,.41-.07h.21L52,84a.72.72,0,0,1,.33-.17l.32-.06.24,0a3,3,0,0,1,.39,0l.21,0a1.69,1.69,0,0,1,1-.29,1.3,1.3,0,0,1,.89.3.44.44,0,0,0,.33.15,2.21,2.21,0,0,0,.68-.19l.1,0a4,4,0,0,1,1.44-.24l.59,0,1.88-1a.72.72,0,0,1,.31-.08h0c.25,0,.44,0,.63,0l.48,0a.88.88,0,0,0,.75-.27A.72.72,0,0,1,63.1,82l1.25.07.41-.36a.72.72,0,0,1,.47-.18l.15,0a1.39,1.39,0,0,0,.29,0,1.58,1.58,0,0,0,1.09-.5.72.72,0,0,1,.39-.2c.58-.1,1.15-.16,1.72-.21a15.2,15.2,0,0,0,2.46-.38c.41-.11.82-.2,1.24-.29a12.1,12.1,0,0,0,2.25-.64,1.84,1.84,0,0,1,.73-.13h.13a4.44,4.44,0,0,1,.55.06,2.84,2.84,0,0,0,.38,0,2.4,2.4,0,0,1,1-.19h.23c.22,0,.44-.05.66-.07a2.17,2.17,0,0,0,1-.22,2.5,2.5,0,0,1,1.12-.29,1.59,1.59,0,0,0,.63-.13A3.13,3.13,0,0,1,82.81,78H83l.32,0a7.07,7.07,0,0,0,1.6-.26,10,10,0,0,1,1.57-.28l1.34-.08a15.76,15.76,0,0,0,4.31-.62,5.14,5.14,0,0,1,1.67-.19,6.9,6.9,0,0,0,.87,0A11.79,11.79,0,0,0,96,76.29l.31-.08C97,75,97.29,74.9,99,74a.71.71,0,0,1,.33-.08.72.72,0,0,1,.56.26l.05.06.18-.09a2.63,2.63,0,0,1,1.36-.39l.53,0h0L103.8,72a.72.72,0,0,1,.52-.22.7.7,0,0,1,.21,0,.72.72,0,0,1,.5.56,3.12,3.12,0,0,1-.49,2.51l.57,0a.72.72,0,0,1,.67.84h.18l1-.07c.54,0,1.08-.14,1.64-.24s1.21-.21,1.84-.26l1.82-.17c.81-.08,1.61-.16,2.43-.21.44,0,.88-.09,1.33-.14a15.08,15.08,0,0,1,2-.17,6.91,6.91,0,0,1,.74,0l.21,0a4.4,4.4,0,0,1,1.7.41A.82.82,0,0,0,121,75a4,4,0,0,0,1-.21l.3-.09a5.43,5.43,0,0,1,1.45-.17h.89l.39-.34a.72.72,0,0,1,.47-.18h.05c.32,0,.63,0,1,0a33.1,33.1,0,0,0,4.09-.35l.7-.09h.09a.73.73,0,0,1,.22,0l.19.09.06,0a8.51,8.51,0,0,1,2.4-.31,12.17,12.17,0,0,0,1.24-.08,11.35,11.35,0,0,1,1.51-.09c.68,0,1.35,0,2,.09s1.27.09,1.89.09h.36l1.08,0c.63,0,1.25-.06,1.88-.06a15.2,15.2,0,0,1,1.57.07,2.75,2.75,0,0,1,1.17-.24,7.13,7.13,0,0,1,.85.07c.19,0,.38,0,.56.05h.19a6.55,6.55,0,0,0,2.26-.45,13.39,13.39,0,0,1,1.94-.51,10,10,0,0,0,2-.56,1.61,1.61,0,0,1,.67-.12l.15.72v-.72h.12a3.81,3.81,0,0,1,.63,0,10.54,10.54,0,0,0,1.71.12c.54,0,1.07,0,1.6,0s1.11-.05,1.67-.05a13.22,13.22,0,0,1,1.39.07l.42,0a2.61,2.61,0,0,1,1.77.51s0,0,0,0h.11a2.18,2.18,0,0,1,1.06-.25h.5a2.57,2.57,0,0,1,1-.2h.57a2,2,0,0,1,1.08-.28l.42,0,.3,0a1.47,1.47,0,0,0,.4-.09,2.57,2.57,0,0,1,.8-.16,1.65,1.65,0,0,1,1.1.43h.27a2.07,2.07,0,0,1,1.24.36h.44l.31,0h.37a1.62,1.62,0,0,1,1.09.35,1.92,1.92,0,0,1,1-.26,4.4,4.4,0,0,1,.69.07l.39,0c1.38.06,2.77.15,4.15.23l3.41.2.41,0a1.87,1.87,0,0,0,.3,0c.07,0,.08,0,.11,0a.85.85,0,0,1,.65-.27,2,2,0,0,1,.5.08,4.72,4.72,0,0,1,.48.17,1.76,1.76,0,0,0,.45.14,1.31,1.31,0,0,0,.24-.07,2.21,2.21,0,0,1,.75-.15,1.58,1.58,0,0,1,.33,0l.73.14a6.86,6.86,0,0,1,1.74.45,2.17,2.17,0,0,0,.57.14l.38.07a2.17,2.17,0,0,0,.39,0,2.57,2.57,0,0,1,1.15.23,1.88,1.88,0,0,0,.27,0,3.21,3.21,0,0,1,.6-.08c.36,0,.73,0,1.09.05l1.49.09a2.94,2.94,0,0,1,1.38-.43,3.29,3.29,0,0,0,.5-.09,3.91,3.91,0,0,1,1.08-.19,2,2,0,0,1,1.21.4v0h.31c.41.05.82.09,1.24.12a11.39,11.39,0,0,1,3.05.53,4.5,4.5,0,0,0,1.35.19,4.82,4.82,0,0,1,2,.4,3.14,3.14,0,0,1,1-.16,7.48,7.48,0,0,1,1,.09,6.6,6.6,0,0,0,.79.08H214a2.62,2.62,0,0,1,1.63.46h.32a1.88,1.88,0,0,0,.37-.1,2.59,2.59,0,0,1,.83-.17,1.5,1.5,0,0,1,.91.3,1.06,1.06,0,0,0,.64.11,3.35,3.35,0,0,1,.79.08l.2.08a2.64,2.64,0,0,1,1.22-.31,2.81,2.81,0,0,1,.81.12.72.72,0,0,1,.51.73v.13l.12,0c.6.11,1.21.23,1.82.39a4.75,4.75,0,0,1,1,.43l.3.15a.72.72,0,0,1,.39.45,1.9,1.9,0,0,1-.7,2.35.72.72,0,0,1-.4.12l-1.85-.1c-1.56-.09-3.18-.18-4.79-.31a6.59,6.59,0,0,1-1.16-.23,4.87,4.87,0,0,0-1-.2h-.46l-.46,0a2.45,2.45,0,0,1-1.22-.28,1.78,1.78,0,0,1-.58.1,3,3,0,0,1-1.11-.27,2,2,0,0,0-.63-.18,6.83,6.83,0,0,1-.94.07,14.27,14.27,0,0,1-1.9-.17l-.24,0a10.24,10.24,0,0,1-1.07-.22,6.57,6.57,0,0,0-1.25-.22h-.16l-.75,0a3.07,3.07,0,0,1-1.32-.25,1.37,1.37,0,0,1-.49.09,2.1,2.1,0,0,1-.88-.24l-.21-.09-.08,0-.23.09-.21,0a.72.72,0,0,1-.22,0l-.3-.11a1.62,1.62,0,0,0-.33-.11l-2.66-.17-2.53-.16a3.79,3.79,0,0,1-.81-.18l-.26-.07a3.36,3.36,0,0,1-.84.13c-.6,0-1.18,0-1.75-.08l-.68,0-.57,0a7,7,0,0,1-1.48-.14h-.13a2.33,2.33,0,0,0-.36,0,3.81,3.81,0,0,1-.59.06,2,2,0,0,1-.74-.14,2.85,2.85,0,0,0-1-.11h-.71l-3.65-.22-.68,0c-.37,0-.73-.06-1.09-.06h-.27a8.7,8.7,0,0,1-1.09-.09,7.64,7.64,0,0,0-.92-.08,2,2,0,0,0-.88.18.72.72,0,0,1-.72-.06.36.36,0,0,0-.23-.06,2.62,2.62,0,0,0-.4,0,4.14,4.14,0,0,1-.64.06H175c-1.3-.14-2.74-.23-4.54-.28-2.08-.06-4.2-.07-6.25-.08L164,76l-.27.12a.71.71,0,0,1-.26,0,.73.73,0,0,1-.3-.06l-.28-.15a1.48,1.48,0,0,0-.22-.11c-2.33-.17-4.26-.28-6-.36h0a3.18,3.18,0,0,0-.64.08,5.87,5.87,0,0,1-.63.1c-.4,0-.79.09-1.18.16a13,13,0,0,1-2.32.15c-.36,0-.71,0-1.07,0h-.17c-.24,0-.48,0-.71,0a5.67,5.67,0,0,0-.58,0,1.5,1.5,0,0,0-.6.1,2.34,2.34,0,0,1-.92.16l-.48,0-.4,0a1.33,1.33,0,0,0-.48.07,4.84,4.84,0,0,1-1.74.23h-.14c-.24,0-.47,0-.71,0a3,3,0,0,0-.44.09,4.55,4.55,0,0,1-.63.13c-1,.1-1.92.17-2.88.23l-2,.14c-.46,0-.93.05-1.39.05s-1.21,0-1.81-.05-1.16-.05-1.74-.05h-.21a2.54,2.54,0,0,0-1.08.39.73.73,0,0,1-.35.09h0c-.25,0-.5,0-.75-.08a6,6,0,0,0-.81-.08,1.41,1.41,0,0,0-.4,0,4.5,4.5,0,0,1-1.32.18l-.68,0-.5,0a8.71,8.71,0,0,1-.89-.08,6.43,6.43,0,0,0-.79-.07,1.78,1.78,0,0,0-.37,0,7.57,7.57,0,0,1-1.56.15c-.5,0-1,0-1.48-.07s-.91-.07-1.37-.07h-.35c-.81,0-1.6.14-2.44.26l-.9.12a1.36,1.36,0,0,1-.84.27,2.94,2.94,0,0,1-.44,0l-.24,0a3.41,3.41,0,0,1-1.91.5,1.63,1.63,0,0,0-.37.16,2.76,2.76,0,0,1-.79.3l-1.17.21c-1,.18-2.08.37-3.14.5-.56.07-1.13.11-1.7.14a12.37,12.37,0,0,0-3.53.57.72.72,0,0,1-.25,0l-.19,0a1,1,0,0,0-.26,0,3.06,3.06,0,0,0-.95.24,4.27,4.27,0,0,1-1.45.32,2.48,2.48,0,0,1-.41,0l-.23.12-.3.15a6.91,6.91,0,0,1-2.84.7,2.41,2.41,0,0,0-.68.2l-.68.24a.71.71,0,0,1-.22,0H93.5a6.53,6.53,0,0,0-1.32.12l-.56.13a7.21,7.21,0,0,1-1.67.27h-.31a1.92,1.92,0,0,0-.58.14,3.05,3.05,0,0,1-1,.22,1.64,1.64,0,0,1-.82-.22,1.54,1.54,0,0,1-.43.06l-.3,0h-.08a1.62,1.62,0,0,1-.89.24l-.4,0-.21,0a1.88,1.88,0,0,1-1,.27l-.35,0h-.43a3.08,3.08,0,0,0-.7.11,9.12,9.12,0,0,1-1.85.31l-.37,0-1.45.13c-.89.07-1.8.15-2.69.29-.35.06-.7.15-1,.24a8.61,8.61,0,0,1-2.15.35,4.53,4.53,0,0,1-.62,0h0a1.8,1.8,0,0,0-.44.1l-.38.1a9.28,9.28,0,0,1-2,.21H69.1a6,6,0,0,0-.88.08,7.32,7.32,0,0,1-1.07.1,9.53,9.53,0,0,0-2.15.36l-.14,0c-.6.15-1.18.34-1.8.55l-.5.17a1.23,1.23,0,0,1-.68.28l-.77,0c-.56,0-1.12.07-1.68.07-.34,0-.67,0-1,0h-.16a4.28,4.28,0,0,0-.77.1,5.42,5.42,0,0,1-1,.12l-.38,0-.37,0a2,2,0,0,0-1.17.36.91.91,0,0,1-.52.15,2.16,2.16,0,0,1-.64-.13l-.2-.06-.06,0a2.67,2.67,0,0,1-1.22.35l-.3,0A16.24,16.24,0,0,1,49,88.5a18.93,18.93,0,0,0-2.68.68.71.71,0,0,1-.24,0h-.23l-.33,0a.9.9,0,0,0-.66.22.71.71,0,0,1-.49.19H44.2a3.58,3.58,0,0,0-1.67.6,8.5,8.5,0,0,1-1.12.54,15.5,15.5,0,0,0-2,1l-1,.54a4.85,4.85,0,0,1-.87.31,1.74,1.74,0,0,0-.9.43.71.71,0,0,1-.4.24,5.87,5.87,0,0,0-1.59.7,6.64,6.64,0,0,1-2.21.9,1.74,1.74,0,0,1-.38.42,6.3,6.3,0,0,1-2.44.95l-.65.16a10,10,0,0,0-2.52,1c-1.59.92-3.23,1.79-4.82,2.64l-.69.37a3,3,0,0,1-.64.23,1.75,1.75,0,0,0-.36.12A2.48,2.48,0,0,1,19,101a.85.85,0,0,0-.41.12,1.89,1.89,0,0,1-1.23.62,1.37,1.37,0,0,0-.32.08l-.45.26a4.73,4.73,0,0,1-1.16.56,4.46,4.46,0,0,0-1.22.66,7.71,7.71,0,0,1-1,.59,9.56,9.56,0,0,0-2,1.3c-.21.17-.43.32-.71.51l-.46.32a.72.72,0,0,1-.41.13L8.23,106l-1.5,1.12a.71.71,0,0,1-.23.11l-1.21.35a.72.72,0,0,1-.81-.3l-.09-.15a.71.71,0,0,1-.17.21l-1,.89A.71.71,0,0,1,2.72,108.45ZM85,80.71a8.92,8.92,0,0,1,1.79-.21,6.24,6.24,0,0,1,.77,0,5.16,5.16,0,0,0,.67,0,9.19,9.19,0,0,0,2.4-.39,10.54,10.54,0,0,1,1.31-.26l-.15,0-.23,0a4.63,4.63,0,0,0-.75.09l-.6.09H89.9a6,6,0,0,1-.62,0,4.19,4.19,0,0,0-.47,0,1.06,1.06,0,0,0-.43.08,4.78,4.78,0,0,1-1.39.28l-.55.06-1.19.21-.27,0Zm7.92-1-.34.14.61-.08-.12-.13Zm3.2-.4a6.37,6.37,0,0,0-1.21.23A8.16,8.16,0,0,0,96.11,79.31ZM79.39,93.14a.72.72,0,0,1-.52-.22l-.59-.62a.72.72,0,0,1-.2-.54l.06-.9a.72.72,0,0,1,.56-.66l2.78-.62.16,0a.72.72,0,0,1,.68,1,3.12,3.12,0,0,1-1.55,1.66,2.13,2.13,0,0,0-.77.62.72.72,0,0,1-.54.34Zm133.44-4.7a.72.72,0,0,1-.42-.13l-.3-.2a1.5,1.5,0,0,1-.53-.47c-.23-.37-.44-.75-.66-1.14l-.06-.11-1.28-.08a.72.72,0,0,1-.68-.67,1.81,1.81,0,0,1,0-.56L207.54,85a.72.72,0,0,1-.46-.2l-.89-.86a.72.72,0,0,1,0-1.05l1-.87a.72.72,0,0,1,.48-.18l1.24.07.45.06a2.24,2.24,0,0,0,.35,0,1.46,1.46,0,0,1,.64-.15A1.77,1.77,0,0,1,211,82l.13,0a4.47,4.47,0,0,0,.57-.14l.41-.12.18,0a.72.72,0,0,1,.61.33l.64,1a.72.72,0,0,1-.21,1,2.49,2.49,0,0,1-.4.21l.27.08a.72.72,0,0,1,.43,1l-.19.35.14,1.95a.72.72,0,0,1-.72.77Zm-17.72-3.16a.72.72,0,0,1-.72-.77l.09-1.48a.72.72,0,0,1,.25-.5l.36-.31a.72.72,0,0,1,.73-.13l.23.09a1.92,1.92,0,0,0,.33.12,3,3,0,0,0,.48,0,2.53,2.53,0,0,1,1.57-.5,4.22,4.22,0,0,1,.7.06.72.72,0,0,1,.6.75l0,.8a.72.72,0,0,1-.72.67h-.11l-.24,0a4,4,0,0,0-1.56.5,7.85,7.85,0,0,1-1.79.65ZM59.63,80H59.5a5.65,5.65,0,0,1-3.22-2.25l-.12-.13-2.11.8a.72.72,0,0,1-1-.72l.08-1.35a.72.72,0,0,1,.3-.54,1,1,0,0,1,0-.26l0-.1A3.87,3.87,0,0,1,54,74l.28-.42a8.21,8.21,0,0,1,1.14-1.48,9.75,9.75,0,0,0,2.05-3.35c.12-.3.23-.6.38-1l.18-.5a2.81,2.81,0,0,1,.44-1.51c.07-.14.14-.27.2-.41l-.16.06a1.77,1.77,0,0,1-1,.93c-.34.15-.46.22-.52.43a.72.72,0,0,1-.66.5h0a.72.72,0,0,1-.67-.45l-.18-.44-.19.07a10.15,10.15,0,0,1-3.58.61l-1.07.06c-.24,0-.47.06-.7.1l-.66.1c-.29,0-.59.05-.88.07l-.42,0a1.07,1.07,0,0,1-.24,0,.74.74,0,0,1-.58-.28h-.44a1.51,1.51,0,0,1-.91-.26.89.89,0,0,0-.34-.12l-1.31-.2c-.61-.09-1.22-.18-1.82-.29a3,3,0,0,1-1.51-.59,3,3,0,0,0-.91-.47,3.52,3.52,0,0,1-1.68-1.09h0l-.19,0a2.77,2.77,0,0,1-.56-.22A18.06,18.06,0,0,1,34,61.43a2.77,2.77,0,0,1-.34-.4,1.19,1.19,0,0,0-.18-.22,1.15,1.15,0,0,1-1-.89,3.31,3.31,0,0,0-.47-1,4.09,4.09,0,0,1-.71-1.71,1.81,1.81,0,0,0-.19-.46c-.06-.12-.11-.23-.16-.34a20.12,20.12,0,0,1-.61-2.79c0-.34,0-.67,0-1,0-.67-.06-1.33-.05-2,0-.42,0-.84.09-1.25a7.32,7.32,0,0,0,.05-1.71,5,5,0,0,1,.38-2.36,6.94,6.94,0,0,0,.28-1,8.27,8.27,0,0,1,.67-2,5.88,5.88,0,0,1,.31-.55,1.41,1.41,0,0,0,.33-.85.83.83,0,0,1,.3-.7l.3-.54c.39-.71.78-1.41,1.15-2.13a12.41,12.41,0,0,1,1.37-2.07A12.15,12.15,0,0,0,37,33.33a.72.72,0,0,1-.39-1,1.27,1.27,0,0,1,.23-.38.78.78,0,0,1,.39-.22l.21-.16a8.25,8.25,0,0,0,.88-.74,2.32,2.32,0,0,1,.74-.47c.24-.11.3-.15.31-.19a.72.72,0,0,1,.29-.41,6.14,6.14,0,0,0,1-1A5.23,5.23,0,0,1,43,27.12a6.9,6.9,0,0,1,.72-.72,5.74,5.74,0,0,0,.54-.54,7,7,0,0,1,1.85-1.43c.27-.17.55-.33.81-.52a.86.86,0,0,1,.43-.16,3.59,3.59,0,0,1,1.78-1.51,3.32,3.32,0,0,0,.59-.33,3.05,3.05,0,0,1,1.68-.61h.13a6.22,6.22,0,0,0,1.23-.69,1.26,1.26,0,0,1,.88-.83l.07,0a.72.72,0,0,1,.9-.14l.58.34.08,0a.72.72,0,0,1,.32-.07.73.73,0,0,1,.38.11c.26.16.53.3.8.45a5.19,5.19,0,0,1,2.17,1.72.7.7,0,0,1,.09.22l.36,1.5,0,0a.72.72,0,0,1,.24.58c0,.25,0,.49-.05.74,0,.53-.08,1-.08,1.54,0,.3,0,.59,0,.89a5.07,5.07,0,0,0,0,1.28,4.18,4.18,0,0,1-.19,1.78c-.05.21-.11.43-.15.64a.73.73,0,0,1-.17.35l-.66.76a1.07,1.07,0,0,1-.88.42,2.58,2.58,0,0,1-1.5-.65.72.72,0,0,1-.26-.6c0-.16,0-.33,0-.49a9.94,9.94,0,0,1,.11-1.3,1,1,0,0,0-.27-.83A8.74,8.74,0,0,1,54,26.73a8.76,8.76,0,0,1-3.61,2.09.72.72,0,0,1-.86-.39L49,27.22a.74.74,0,0,1,0,.21.72.72,0,0,1-.3.51,3.93,3.93,0,0,1-2.31.74h-.13l-2.21,2a.73.73,0,0,1-.33.17.72.72,0,0,1-.48.58l-.47.16,0,.29a.72.72,0,0,1-.71.6l-.64,0a.74.74,0,0,1-.08.19L39.8,35l0,0a.72.72,0,0,1-.09,1l-.89.78a.72.72,0,0,1,0,.7L38,38.75a.72.72,0,0,1-.53.32h-.07l-.16,0,0,0c-.35.42-.71.85-1.07,1.26a9.18,9.18,0,0,0-1.36,2.38c-.15.32-.29.65-.45,1a1.47,1.47,0,0,1-.61,1.21l-.15.14a12.49,12.49,0,0,0-.42,1.52,13.11,13.11,0,0,1-.5,1.75l.23-.33a1.91,1.91,0,0,0,.3-.52,1.41,1.41,0,0,1,1-1.13l.15-.07a1.78,1.78,0,0,1,1.59-.84,5,5,0,0,1,1.17.18.72.72,0,0,1,.26,1.28l-1.18.88.18.43.76-.12h.12a.72.72,0,0,1,.66,1,6.94,6.94,0,0,1-1.2,2.09l0,.23.41-.11.16,0h.07c.15,0,.22,0,.82.38a.72.72,0,0,1,.36.67l0,.52a.86.86,0,0,1-.22.53,1.08,1.08,0,0,1-.6.3.73.73,0,0,1-.29-.06l-.54-.21,0,.32a.72.72,0,0,1-.2.55l.28.71a.72.72,0,0,1-.14.76L35.7,56.9a.72.72,0,0,1-.53.23H35a1.56,1.56,0,0,1-1.16-1.55,1.49,1.49,0,0,0-.32-.54c-.1-.13-.21-.26-.29-.39a.72.72,0,0,1,0-.78,2.33,2.33,0,0,0,.23-1.17,6.65,6.65,0,0,1,.1-1.09.72.72,0,0,1,.45-.53l.12,0,0-.55-.74-.83-.43-.1a.7.7,0,0,1-.27-.12,7.51,7.51,0,0,1-.1,1.18,4.65,4.65,0,0,0-.07,1.17c0,.37.08.75.11,1.12A10.82,10.82,0,0,0,33,55.08l.16.55.08,0a.72.72,0,0,1,.5.73l-.05.86.22.26a3.65,3.65,0,0,1,.82,1.24,1,1,0,0,0,.23.19,2,2,0,0,1,.58.55,1.65,1.65,0,0,1,.87.67,1.43,1.43,0,0,0,.15.18,5.87,5.87,0,0,1,1.42.89l.13.1a2.82,2.82,0,0,1,.48.5c.17.21.24.28.29.28H39a.78.78,0,0,1,.72.45c0,.09.11.13.45.25a3,3,0,0,1,.67.3,3.85,3.85,0,0,0,.57.28,6,6,0,0,1,.72.35h.62a1.56,1.56,0,0,1,1.09.34s.1,0,.29.05a1.55,1.55,0,0,1,1,.39h.42a1.53,1.53,0,0,1,.84.21.4.4,0,0,0,.23.06,1.66,1.66,0,0,0,.3,0,4,4,0,0,1,.71-.09,1.63,1.63,0,0,1,.76.17,1.65,1.65,0,0,1,.64-.12,3.54,3.54,0,0,1,.59.06,2,2,0,0,0,.35,0h.29c.32,0,.64,0,1,.05l.26,0a3.5,3.5,0,0,1,2-.49h.26l-.16-.68a.72.72,0,0,1,.26-.73,1.3,1.3,0,0,1,.81-.29,1.72,1.72,0,0,1,.88.3,1.3,1.3,0,0,0,.21.11,3.41,3.41,0,0,1,1.37-.41h0v-.12a.72.72,0,0,1,.56-.66.94.94,0,0,0,.46-.24.72.72,0,0,1-.53-.74l0-.49a.72.72,0,0,1,.65-.67h.08a1,1,0,0,1,.28,0l.36-.92a.74.74,0,0,1,.16-.25l.67-.66c.67-.66,1.38-1.36,2.08-2.07a1.15,1.15,0,0,0,.26-.32,3,3,0,0,1,.58-1.17,1.63,1.63,0,0,0,.37-.73,2.74,2.74,0,0,1,.42-1.08,1.36,1.36,0,0,0,.27-.71s0-.05,0-.08l-.57,0a.72.72,0,0,1-.5-1.19,2,2,0,0,0,.63-1.47l-.33.1c-.15,0-.23.12-.42.36a3.44,3.44,0,0,1-.38.42,5.47,5.47,0,0,1-.73.53,5.24,5.24,0,0,0-.46.32,4.68,4.68,0,0,0-.43.41,3,3,0,0,1-1.3.92c-.08,0-.16.1-.3.28a1.91,1.91,0,0,1-.85.66,5.58,5.58,0,0,1-1.15,1,6.39,6.39,0,0,0-.66.51c-.37.35-.75.68-1.14,1l-.76.66c0,.09,0,.15-.06.21A.72.72,0,0,1,54,57l-1,.27a1.43,1.43,0,0,1-1.3,1.18.54.54,0,0,0-.31.39.72.72,0,0,1-.44.54l-1.41.57a.72.72,0,0,1-.88-.29l-.36-.58a.72.72,0,0,1,0-.67l.45-1a.72.72,0,0,1,.37-.37c.82-.36,1-.5,1.54-1.59a.72.72,0,0,1,.43-.36,4,4,0,0,0,1.62-1.25l.21-.22a6.7,6.7,0,0,1,1.52-1.12l.49-.3a1.53,1.53,0,0,1,1.28-1.36h.12a.72.72,0,0,1,.4.12l.16.11,0,0c.36-.32.73-.65,1.11-1,.22-.18.45-.34.68-.5s.4-.28.59-.43a3.81,3.81,0,0,0,.35-.34,4.64,4.64,0,0,1,.56-.52,4.26,4.26,0,0,1,.62-.37,1.72,1.72,0,0,0,.47-.29,4.93,4.93,0,0,1,1.58-1.24,3,3,0,0,0,1.25-1,.72.72,0,0,1,.54-.37c.25,0,.4-.21.69-.62a2.75,2.75,0,0,1,1.11-1,8.87,8.87,0,0,0,1.43-.85l.55-.37a.72.72,0,0,1,.68,0l1.74.79A.72.72,0,0,1,71.05,44l-.44.37a5.2,5.2,0,0,1-.53,1.77,5.87,5.87,0,0,0-.44,1.26,1,1,0,0,1-.15.37A8.7,8.7,0,0,1,69.15,50c-.1.42-.2.84-.27,1.29a.72.72,0,0,1-.31.49L68.3,52l0,.33a.72.72,0,0,1-.23.48l-.44.39a2.47,2.47,0,0,0-1,1.2.72.72,0,0,1-.58.54l0,.11a1.4,1.4,0,0,1-.62.85.57.57,0,0,0-.06.26,1.89,1.89,0,0,1-.26.89,10.46,10.46,0,0,0-.91,1.82c-.06.15-.12.29-.19.44l1-.72a3.26,3.26,0,0,0,.55-.62,3.37,3.37,0,0,1,1.36-1.2l.05-.3a.72.72,0,0,1,.71-.59l.61,0a.72.72,0,0,1,.52-.25h.59a.72.72,0,0,1,.72.68v.08a1.5,1.5,0,0,1,.55-.1,2.22,2.22,0,0,1,.67.12.72.72,0,0,1,.5.73s0,.77-.05.79l.3.17a.72.72,0,0,1,.26,1l-.56,1a.72.72,0,0,1-.89.31l-1.32-.53a.72.72,0,0,1-.45-.72,1.4,1.4,0,0,1,.29-.79l-.11-.12a.72.72,0,0,1-.12-.58L68.9,58c-.49.61-.95,1.19-1.45,1.73l-.08.08a2.83,2.83,0,0,1-1.36.93,3.06,3.06,0,0,0-.19.27,4.13,4.13,0,0,1-.33.45,1.39,1.39,0,0,1-1,.62c-.33,0-.55.21-.92.56a4,4,0,0,1-.91.7,2.81,2.81,0,0,0-1.05,1.41c-.24.5-.44,1-.65,1.54l-.14.36.35.45a.72.72,0,0,1,.11.69,6.52,6.52,0,0,1-1.58,2.58l.15.44a.72.72,0,0,1,0,.49l-.19.46c-.14.34-.28.69-.4,1l0,.05a3.88,3.88,0,0,1,.17.36.72.72,0,0,1-.17.8l-.49.46-.05.87a.72.72,0,0,1-.17.42,1,1,0,0,1-.24.83.69.69,0,0,0,.1.17c.14.14.29.29.43.44a2.24,2.24,0,0,0,1.61,1,.72.72,0,0,1,.31,1.34l-.84.49A.72.72,0,0,1,59.63,80Zm-2.51-53.1c0-.07,0-.52,0-.68l-.32.2v.1Zm-33.41,47a.72.72,0,0,1-.72-.77l.11-1.77a.72.72,0,0,1,.59-.67l1.86-.33h.13a.72.72,0,0,1,.58.3,1.51,1.51,0,0,0,.19.19,1.63,1.63,0,0,1,.5,2,.72.72,0,0,1-.66.42l-.95-.05L24,73.85A.73.73,0,0,1,23.71,73.91Zm126-10.22a.72.72,0,0,1-.28-.05l-1-.41a.72.72,0,0,1-.43-.79l.57-3.22-.3-.26a.72.72,0,0,1-.25-.59l0-.68a.72.72,0,0,1,.4-.6l.56-.28,0-.25a4,4,0,0,0,0-1.17,3.21,3.21,0,0,1,.05-1.29c0-.14.05-.27.07-.4l-.21-.15a.72.72,0,0,1-.29-.53,6.88,6.88,0,0,1,1.38-4.3c0-.1,0-.21,0-.33a4.15,4.15,0,0,0-.09-1.1,3.9,3.9,0,0,1,.46-2.53,2.94,2.94,0,0,0,.25-1,1.63,1.63,0,0,0-.46.5,2.2,2.2,0,0,1-1,.9,2.82,2.82,0,0,0-.41.24c-.31.24-.61.51-.91.78l-.4.36a.72.72,0,0,1-.88,0l-1.09-.75a.72.72,0,0,1-.19-1c.09-.13.17-.27.24-.41A2.48,2.48,0,0,1,147.19,43l0,0a1.58,1.58,0,0,1,.48-.37,1.32,1.32,0,0,0,.4-.41,2.57,2.57,0,0,1,1-.89,2.73,2.73,0,0,0,1-1,1.84,1.84,0,0,1,.84-.63.72.72,0,0,1-.14-.47l.07-1a.72.72,0,0,1,.37-.58,1.7,1.7,0,0,0,.28-.25,2.52,2.52,0,0,1,1-.68l0,0a1.8,1.8,0,0,0,.17-.41,8.52,8.52,0,0,1,.61-3.24c.12-.36.24-.72.34-1.08l.08-.31c.09-.32.18-.65.25-1a4.86,4.86,0,0,1,.2-.68,3.45,3.45,0,0,0,.15-.49c.06-.31.14-.61.22-.92a5.15,5.15,0,0,0,.26-1.68,1.18,1.18,0,0,1,.38-1c.21-.17.26-.41.34-.87a3.68,3.68,0,0,1,.3-1.06,3.68,3.68,0,0,0,.25-1,5.7,5.7,0,0,1,.28-1.14,7.21,7.21,0,0,0,.37-2.07l0-.53a.88.88,0,0,1,.09-.31.72.72,0,0,1-.06-.3,1,1,0,0,1,.19-.71,3.73,3.73,0,0,0,.86-2.37,15.82,15.82,0,0,1,.34-2.49l-.11,0a1.79,1.79,0,0,0-.71.48,4.12,4.12,0,0,1-.87.65,4.81,4.81,0,0,1-.83.31,3.32,3.32,0,0,0-.79.32.79.79,0,0,1-.22.31l-2.35,2-.11.09a12.46,12.46,0,0,0-.49,1.28,6.34,6.34,0,0,1-1.48,2.69.73.73,0,0,1-.28.17l-2.26.76a.71.71,0,0,1-.23,0,.72.72,0,0,1-.54-.25l-.72-.83a.72.72,0,0,1-.18-.52l.07-1.14a.72.72,0,0,1,.21-.46l.68-.69c.59-.6,1.2-1.22,1.84-1.81A7.76,7.76,0,0,0,150,15,11.06,11.06,0,0,1,151.69,13a20.84,20.84,0,0,0,2.54-3,4.64,4.64,0,0,1,1.12-1l.29-.21V8.69a.72.72,0,0,1,.27-.52l.21-.18a3.1,3.1,0,0,1,.84-.6,5,5,0,0,0,1.19-.84c.21-.18.42-.36.64-.53a5.69,5.69,0,0,1,1-.57l.31-.15a4,4,0,0,1,.43-.18,1.71,1.71,0,0,0,.33-.14,1.49,1.49,0,0,1,1.13-.5h.14a2.57,2.57,0,0,0,.39-.37l.13-.13A.71.71,0,0,1,163,3.8c.25-.06.49-.09.7-.12a2.16,2.16,0,0,0,.64-.15,10.12,10.12,0,0,1,2.41-1.05,12,12,0,0,0,1.6-.62A3.76,3.76,0,0,1,170,1.42h.25c.37,0,.74.05,1.1.06A7.59,7.59,0,0,1,174,1.9a7.43,7.43,0,0,1,2.34,1.61l.55.49a10.88,10.88,0,0,1,1.32,1.41l.38.45a.73.73,0,0,1,.13.2l.21.48c.13.29.23.52.31.76a2.21,2.21,0,0,0,.26.44A2.27,2.27,0,0,1,180,9.37a8.56,8.56,0,0,0,1,1.13.72.72,0,0,1,.23.66c0,.21-.09.42-.14.62a2.87,2.87,0,0,0-.13,1,2.21,2.21,0,0,0,.37.5c.14.16.29.33.42.52a.72.72,0,0,1-.58,1.14l-.78,0-.06.13a9.78,9.78,0,0,0-.51,1.23,2.17,2.17,0,0,0,0,.49,2.09,2.09,0,0,1-.32,1.26.83.83,0,0,0-.05.29,1.78,1.78,0,0,1-.46,1.18,4,4,0,0,0,0,.43,5,5,0,0,1,0,.56.72.72,0,0,1-.24.5,3.1,3.1,0,0,1-.29.22l-.08.05a8.92,8.92,0,0,1-1.58,3,10.13,10.13,0,0,0-1.16,1.91.71.71,0,0,1-.2.27l-.54.44a6.19,6.19,0,0,0-1,.92,4.65,4.65,0,0,1-1,.86,4.57,4.57,0,0,0-.54.42,8.86,8.86,0,0,1-1.2.92l-.24.17-1.23.83c-.52.35-1,.7-1.56,1.06a13.43,13.43,0,0,1-1.22.74,7.3,7.3,0,0,0-1.65,1.11,2.2,2.2,0,0,1-.67.42,1.8,1.8,0,0,0-.25.13,3,3,0,0,1-.56.31c-.35.16-.35.18-.36.25a.72.72,0,0,1-.47.58,5.74,5.74,0,0,1-.6.17,2.46,2.46,0,0,0-.58.18,3.21,3.21,0,0,1-1.43,1,2.52,2.52,0,0,0-.77.46A6.68,6.68,0,0,1,158,38.45c-.26.15-.53.29-.77.46-.57.38-1.12.78-1.68,1.19l-.33.24.09.23.31.19a12,12,0,0,0,1.16.67l.71.37a4.68,4.68,0,0,0,1.83.7,2.31,2.31,0,0,1,1.09.46,12.62,12.62,0,0,0,1.37.76c.42.22.85.43,1.24.68s1.1.64,1.66.94c.72.39,1.47.79,2.18,1.27a20.65,20.65,0,0,0,2.74,1.6,22.66,22.66,0,0,1,3.32,1.8l5.38-4.7a.72.72,0,0,1,.47-.18h.1l.31,0h.27a1.71,1.71,0,0,1,1.66.88.72.72,0,0,1-.09.81l-.33.39c-.26.31-.53.63-.81.94l-.3.36a3.87,3.87,0,0,1-1.17,1.1,1.35,1.35,0,0,0-.39.4,2.72,2.72,0,0,1-.73.71,6,6,0,0,0-.92.76l-.05.05.65-.14.15,0a.72.72,0,0,1,.72.68l0,.44.59.26a5.68,5.68,0,0,1,1.47.92,1.66,1.66,0,0,0,.73.41.44.44,0,0,0,.28-.13.87.87,0,0,1,.56-.19l.3,0,.24,0a.72.72,0,0,1,.65.52h0a.72.72,0,0,1,.39.69l0,.41.31.46,1.56-.21h.1a.72.72,0,0,1,.48.18,1.77,1.77,0,0,1,.39,2.53,5.33,5.33,0,0,0-.38.75c-.08.17-.16.35-.26.55a.72.72,0,0,1-.14.19l-1.37,1.36a.72.72,0,0,1-.51.21l-.61,0a.72.72,0,0,1-.68-.76l.05-.83-.36-.27-.75.8a.72.72,0,0,1-.53.23h0a.72.72,0,0,1-.53-.26c-.15-.18-.26-.24-.32-.24a.62.62,0,0,0-.33.19.72.72,0,0,1-.48.18h-.13a.72.72,0,0,1-.51-.38,5.92,5.92,0,0,0-1.2-1.45,9.5,9.5,0,0,1-1.17-1.3.72.72,0,0,1,.23-1l1.06-.61a1.46,1.46,0,0,0-1.07-.51,1.76,1.76,0,0,1-1.29-.63c-.26-.36-.46-.36-.54-.36a1.24,1.24,0,0,0-.52.15l-.24.35c-.26.38-.52.77-.78,1.17a3.45,3.45,0,0,1-.78.79c-.3.24-.48.4-.54.61a.72.72,0,0,1-.67.52c-.13,0-.2.07-.46.37a2.67,2.67,0,0,1-.83.72,4.61,4.61,0,0,0-1,.83c-.19.18-.39.38-.6.56a.72.72,0,0,1-.47.18H167a.72.72,0,0,1-.5-.4l-.59-1.27A.72.72,0,0,1,166,58l.28-.38.63-.84,2.25-2.91.07-.08,1.42-1.38a16.81,16.81,0,0,1-1.85-1,10.88,10.88,0,0,0-2.36-1.21,1.43,1.43,0,0,1-.56-.36l-.08-.07-.21-.15a13.79,13.79,0,0,0-3.51-2,3.68,3.68,0,0,1-1.11-.7l-.31-.24a2,2,0,0,1-1.25-.47,6.22,6.22,0,0,0-1.41-.8l-.21-.1c-.36-.17-.73-.31-1.1-.44l-.65-.25-.24-.11-.09,0a5.26,5.26,0,0,0-.69,2.43,5,5,0,0,1-.45,1.89,6.83,6.83,0,0,0-.4,2.53c0,.46,0,.93-.09,1.38a7.91,7.91,0,0,0-.07,1.2,4.87,4.87,0,0,1-.57,2.21A7.15,7.15,0,0,0,153,57a1.14,1.14,0,0,1-.47.61l-.61,3.08a.72.72,0,0,1-.37.5l-.17.09a2.89,2.89,0,0,1-1.27,2.25A.73.73,0,0,1,149.74,63.69Zm1.4-12.15,0-.13-.06.05Zm10.8-42.07a.72.72,0,0,1,.43.74c0,.23,0,.45-.05.67a4.69,4.69,0,0,1-.5,2.17,4.48,4.48,0,0,0-.69,2.54,1.51,1.51,0,0,1-.29.92l-.06.1c-.12.37-.25.75-.39,1.13a10,10,0,0,0-.81,3.6,1.5,1.5,0,0,1-.11.77A6.4,6.4,0,0,0,159,23.8a11.4,11.4,0,0,1-.29,1.29c-.3,1-.56,2-.82,2.94l-.16.61c-.06.24-.13.47-.21.7a6.66,6.66,0,0,0-.34,1.47,7.64,7.64,0,0,1-.4,1.73c-.07.22-.14.45-.2.68-.19.71-.38,1.42-.56,2.13l-.1.42a14.23,14.23,0,0,0,1.84-1.2c.41-.33.82-.68,1.22-1a20.5,20.5,0,0,1,3.4-2.54.72.72,0,0,1,.81.08l.12.1a10.22,10.22,0,0,0,1.83-1.37c.3-.26.6-.53.92-.77a9.76,9.76,0,0,1,1.21-.78l.5-.3a23.87,23.87,0,0,0,4.47-4.1.72.72,0,0,1,.56-.26l1,.06a3.07,3.07,0,0,0,1.07-1.6.72.72,0,0,1,.24-.38,3.42,3.42,0,0,0,.95-1.83,8.83,8.83,0,0,1,.43-1.22,13.94,13.94,0,0,0,.85-3l0-.12-.33,0a.72.72,0,0,1-.62-1.08l.32-.55c-.44-1.15-.67-2.06-.16-2.86.27-.43.17-.77-.07-1.43l0-.12-.63.18-.2,0a.72.72,0,0,1-.58-.3l-.74-1c-.27-.05-.54-.13-.81-.21a4.7,4.7,0,0,0-1.32-.26H172a1.86,1.86,0,0,1-1.09-.47,2.87,2.87,0,0,0-.26-.18.72.72,0,0,1-.15-1.13,2.35,2.35,0,0,1,1.72-.76,4.15,4.15,0,0,1,1.24.24,4.61,4.61,0,0,0,.51.14l.41-.27a4.08,4.08,0,0,0-.94-.67l-.5-.31-3.11-.19-.14.08a7.19,7.19,0,0,1-2.3.9l.06.07a.72.72,0,0,1,.15.66,2.31,2.31,0,0,1-2,1.67c-.76.16-1.51.38-2.23.61l-.63.19a6,6,0,0,1-.9.94ZM14.3,62.86a.72.72,0,0,1-.6-.32l-.2,0-.18,0a.73.73,0,0,1-.48-.41l-.69-1.58a.72.72,0,0,1-.05-.39.72.72,0,0,1-.07-.93.71.71,0,0,1,0-.53l-.13-.2a1,1,0,0,1-.48-.64,1,1,0,0,1,.21-.82,1.46,1.46,0,0,1-.47-1.15,1.15,1.15,0,0,1,.07-.29h0a.74.74,0,0,1-.26,0h0a.72.72,0,0,1-.8.15A2.86,2.86,0,0,0,9,55.53a2.16,2.16,0,0,0-.84.17.72.72,0,0,1-.62,0,2.09,2.09,0,0,0-1-.29A1.37,1.37,0,0,0,6,55.5a.71.71,0,0,1-.29.06.72.72,0,0,1-.54-.24L4.82,55h-.1a.72.72,0,0,1-.52-.24.87.87,0,0,1-.23-.6.78.78,0,0,1,.24-.56l0,0a1.58,1.58,0,0,1,1.11-1.11.72.72,0,0,1,.66.08l.18-.15a.72.72,0,0,1,.85,0l1.53-.51.1-.25a.72.72,0,0,1,.59-.44h.07a.72.72,0,0,1,.6.32l.14.21.15-.15a.72.72,0,0,1-.17-.48c0-.12,0-.6,0-.7a.71.71,0,0,1-.25-.07l0,.06a.72.72,0,0,1-.54.26h0a.72.72,0,0,1-.4-.12l-.2,0-.17,0A.72.72,0,0,1,8,50.12l-.41-.79a.72.72,0,0,1,0-.6l.41-1a.72.72,0,0,1,.4-.4L9.1,47a.73.73,0,0,1,0-.42l0-.08a.7.7,0,0,1-.13-.2l-.31-.71a.72.72,0,0,1,.09-.73A.72.72,0,0,1,9,43.75l1.13-.61a.72.72,0,0,1,.89.16,2.68,2.68,0,0,1,.83,1.37l.06,0a.72.72,0,0,1,.34,1.13l0,.06.19.3h0l.19,0a.72.72,0,0,1,.39.12l.09.06.29-.23a.72.72,0,0,1,.45-.16l.74,0,.21-.37a.72.72,0,0,1-.13-.63l.22-.82a1.09,1.09,0,0,1,.05-1,1.66,1.66,0,0,1,.14-1.87c0-.08,0-.19,0-.28s0-.42-.06-.67a.72.72,0,0,1,.13-.44l.75-1a.72.72,0,0,1,.52-.3h.07a.72.72,0,0,1,.5.2l.93.9a.72.72,0,0,1,0,1l0,.05.08.39a3.82,3.82,0,0,0,.85,2.14.72.72,0,0,1,.13.84l-.17.33a.67.67,0,0,1,.18.39H19a.75.75,0,0,1,.24,0,.73.73,0,0,1,.31-.12l1.76-.26.17,0h0a.72.72,0,0,1,.23,0l.75-.34A.72.72,0,0,1,22.8,44h.12a.72.72,0,0,1,.93-.22l.06,0a2.11,2.11,0,0,1,1.52-.53c.24,0,.48,0,.72,0l.16,0a.72.72,0,0,1,.47.24l.41.45a.72.72,0,0,1,.18.53l-.06.89a.72.72,0,0,1-.44.62,3.3,3.3,0,0,1-.71.19c-.49.09-.52.13-.57.27a.72.72,0,0,1-.52.48l-.16,0a.72.72,0,0,1-.52-.22h0l-.11.07a1.71,1.71,0,0,1-.91.34l-.18,0-.26,0a3.46,3.46,0,0,0-1.32.39l-.28.12a.73.73,0,0,1-.28.06h-.11a.72.72,0,0,1-.34.19l-.17,0a.72.72,0,0,1-.41-.13,4.8,4.8,0,0,1-.49.19l-.11,0a2.21,2.21,0,0,1-.3,1,1.4,1.4,0,0,0-.14.34c.12.39.21.79.29,1.2a.72.72,0,0,1,.94-.24l.32.17,1.57-.31.13-.29a.72.72,0,0,1,.66-.43h.07a.72.72,0,0,1,.63.56l0,.08.06-.05.26-.22a.72.72,0,0,1,.43-.14h0a.72.72,0,0,1,.58-.33h0a.72.72,0,0,1,.61.34l.08.14h.08a.72.72,0,0,1,.43.14l.54.41a.72.72,0,0,1,0,1.13l-1.31,1.07a.72.72,0,0,1-.46.16h0l-.33.25a.72.72,0,0,1-.44.15h0a.72.72,0,0,1-.43.31l-.18,0a.71.71,0,0,1-.37-.1l-.37-.22-.59.15-.11.26a.72.72,0,0,1-.65.43h0a.72.72,0,0,1-.57-.27.87.87,0,0,1-.33.06.82.82,0,0,1-.51-.17l-.39.17v0l.26.28a.72.72,0,0,1,.07.88l-.06.08a.72.72,0,0,1,.13.34.8.8,0,0,1-.05.39l.14.17a.72.72,0,0,1,.17.41.72.72,0,0,1,.25,1.1c-.35.43-.27.65-.09,1.14a3,3,0,0,1,.22.91.72.72,0,0,1-.22.55l-1,.92a.72.72,0,0,1-.5.2H19a.72.72,0,0,1-.52-.32L17.84,60a.72.72,0,0,1-.11-.18l0-.07a.72.72,0,0,1-.4-.65v-.56l-.44-.33A.72.72,0,0,1,16.93,57a.72.72,0,0,1,0-.62l-.08-.09a.72.72,0,0,1-.17-.62,2.71,2.71,0,0,0,0-1.29l-1.79.42s0,.1,0,.15a2.89,2.89,0,0,1-.07.6.72.72,0,0,1,.16.85.72.72,0,0,1,.2,1.06l.31.82a.72.72,0,0,1-.09.68,1.14,1.14,0,0,1,.05.93,1.84,1.84,0,0,1,.17.26,3.65,3.65,0,0,1,.25.46,2,2,0,0,1,.09,1c0,.08,0,.15,0,.22a.72.72,0,0,1-.49.67l-.85.29A.72.72,0,0,1,14.3,62.86Zm.44-11.54a.72.72,0,0,1,.36.1l.08,0h0a2.83,2.83,0,0,1,.58-.26.65.65,0,0,1,0-.21.82.82,0,0,1,.18-.46l-.29-.66a.74.74,0,0,1-.06-.27l-.1-.11h-.12a.72.72,0,0,1-.42-.14l-.19-.13a3.45,3.45,0,0,1-1,.25c-.4.06-.59.1-.69.23h0s0,.05.08.22a2.59,2.59,0,0,1,.12.47,5.14,5.14,0,0,0,.15.65L13.8,51h.14a.72.72,0,0,1,.63.37Zm61.82,8.16a1.08,1.08,0,0,1-.93-.35,1,1,0,0,1-.08-1,.68.68,0,0,1,.06-.16,3,3,0,0,1-.33-.39,1.69,1.69,0,0,0-.2-.24.72.72,0,0,1-.11-1l.09-.13L74.94,56a.79.79,0,0,1,0-.73.73.73,0,0,1,.59-.38l1.5,0a.72.72,0,0,1,.5,1.24l-.17.16A2,2,0,0,1,77.3,58a.7.7,0,0,1-.08.13l0,0a.72.72,0,0,1-.4,1.31ZM71.8,54a1.25,1.25,0,0,1-.59-.15.72.72,0,0,1-1-.58,2.43,2.43,0,0,1,.49-1.86.72.72,0,0,1,.62-.36h.13l.38.07.5-.75a.72.72,0,0,1,.59-.32h0a.72.72,0,0,1,.59.3c.38.53.64.61.84.61l.2,0,.15,0a.72.72,0,0,1,.72.77l0,.46a.77.77,0,0,1-.68.73H74.6c-.74,0-.74,0-1.7.68A2,2,0,0,1,71.8,54Zm28.51-8.08a.72.72,0,0,1-.39-.11l-.85-.54a.72.72,0,0,1-.32-.48c0-.19-.07-.37-.11-.56A12.35,12.35,0,0,1,98.42,43a2.92,2.92,0,0,1,.26-1.35,1.53,1.53,0,0,0,.17-.78.72.72,0,0,1,.29-.72.91.91,0,0,0,0-.32,1.69,1.69,0,0,1,.23-1.09,1.38,1.38,0,0,0,.18-.72,3.28,3.28,0,0,1,.07-.51.73.73,0,0,1,.08-.2l.08-.14-1.14-.07a.72.72,0,0,1-.65-.91c.37-1.34.51-1.63,1.36-2.16l-.1-.78a.72.72,0,0,1,.24-.63c2.23-1.94,2.93-3,3.09-5l-2.24.54-.17,0a.71.71,0,0,1-.39-.11.7.7,0,0,1-.21-.2l-1.4.73-.28.32a6,6,0,0,0-.76,1,3.52,3.52,0,0,1-2.06,1.65.72.72,0,0,1-.66-.09.72.72,0,0,1-.3-.6V29.61a.72.72,0,0,1,.22-.51c2.78-2.65,3.09-2.94,4-3.08l.06-.09a2.22,2.22,0,0,1,.89-.82,5.73,5.73,0,0,0,1.51-1.1,7.69,7.69,0,0,1,1.68-1.25,2.78,2.78,0,0,0,.77-.81l.32-.41.53-2a.72.72,0,0,1,.55-.52,1.57,1.57,0,0,1,.31,0,1.41,1.41,0,0,1,1.17.69.87.87,0,0,0,.1.13.66.66,0,0,1,.34.57v.13a3.12,3.12,0,0,0,1-.57,2.83,2.83,0,0,1,1.1-.63c.43-.16.55-.22.6-.39a.72.72,0,0,1,.68-.49h0a2.91,2.91,0,0,0,1.6-.7,6.82,6.82,0,0,1,1.4-.69,8.49,8.49,0,0,0,.81-.35,11.58,11.58,0,0,1,2.29-.94,3.28,3.28,0,0,0,.6-.27,3.13,3.13,0,0,1,1.49-.46h.08a3.52,3.52,0,0,1,1.27-.62,3.53,3.53,0,0,0,.63-.24,5.92,5.92,0,0,1,1.64-.54c.25-.06.5-.11.73-.18l.73-.19a5.75,5.75,0,0,0,1.47-.49.72.72,0,0,1,1.06.68l-.08,1.22a.72.72,0,0,1-.61.67,5.44,5.44,0,0,0-1.28.45,5.85,5.85,0,0,1-2.41.65h-.18a3,3,0,0,0-1.14.62,5.51,5.51,0,0,1-1.73.76,3.41,3.41,0,0,0-1.46.68.73.73,0,0,1-.4.2,9.76,9.76,0,0,0-3.37,1.38c-.59.33-1.21.68-1.85,1a12.58,12.58,0,0,0-1.51.83l-.59.36a2.91,2.91,0,0,0-1.29,1.91,1,1,0,0,1-.2.72,3.41,3.41,0,0,0-.57,2.25.72.72,0,0,1-.72.71h-.22c0,.29-.05.58-.07.89a10.6,10.6,0,0,1-.14,1.45,2.77,2.77,0,0,0,.5-.22,40.63,40.63,0,0,1,4.66-2.3l1.29-.53,1.76-.73a.74.74,0,0,1,.28-.06.72.72,0,0,1,.36.1l.83.48a.72.72,0,0,1,.36.67l0,.58a.72.72,0,0,1-.38.59L115,29a23.26,23.26,0,0,1-4,1.8l-.06,0a3.14,3.14,0,0,1-1.79.93,2.17,2.17,0,0,0-.84.39,5.7,5.7,0,0,1-.68.38l-.35.15a5.18,5.18,0,0,0-2.69,1.94c-.05.26-.1.52-.15.78a15.33,15.33,0,0,1-1.21,4.21.72.72,0,0,1-.62.4h0a.72.72,0,0,1-.62-.35h0a3,3,0,0,1-.23.57,3.82,3.82,0,0,0-.32,1.74c0,.2,0,.41,0,.61a.74.74,0,0,1,.47.72l-.08,1.35a.72.72,0,0,1-.28.53l-.73.55A.71.71,0,0,1,100.3,45.94ZM75.73,43.68a1.81,1.81,0,0,1-.55-.09.72.72,0,0,1-.46-.45l-.42-1.2a.72.72,0,0,1,.27-.83,1,1,0,0,0,.5-.93,1.67,1.67,0,0,1,.31-.94l.09-.16a10,10,0,0,0,.58-1.54,14.36,14.36,0,0,1,.49-1.37,5.09,5.09,0,0,1,.45-.77l.13-.21c.11-.55.26-1.1.4-1.63a9.47,9.47,0,0,0,.5-3.86.72.72,0,0,1,.14-.55L79,28a4.35,4.35,0,0,1,.71-2.31,8.08,8.08,0,0,0,.44-.9.72.72,0,0,1,.67-.46l1.22.07a.72.72,0,0,1,.68.76L82.65,27a.71.71,0,0,1-.05.23l-.3.71c-.25.59-.47,1.11-.67,1.63a6.35,6.35,0,0,1,.72,3.1l0,.07a3.19,3.19,0,0,1,.19.29.72.72,0,0,1,0,.75,2.91,2.91,0,0,1,.73,1,3.31,3.31,0,0,0,.16.29l.21.28,0-.28a.72.72,0,0,1,.25-.5l.42-.37a8.39,8.39,0,0,1,.48-2,7,7,0,0,0,.44-1.87,21.07,21.07,0,0,0,0-2.11c0-.46-.05-.92-.06-1.39a1.33,1.33,0,0,1-.32,0,1.27,1.27,0,0,1-1-.58.72.72,0,0,1,0-.9l.51-.59-.09-.38a.72.72,0,0,1,0-.41l.33-.92a.72.72,0,0,1,.35-.4l.45-.23.14-2.25a.72.72,0,0,1,.24-.5l.87-.76a.72.72,0,0,1,.95,0l.33.26a3.44,3.44,0,0,1,.94.94,2.55,2.55,0,0,0,.39.44,2.44,2.44,0,0,1,.89,1.59,2.91,2.91,0,0,1,0,.51l0,.18a.72.72,0,0,1-.72.67l-.81,0a.72.72,0,0,1-.61-.41c0,.18,0,.36,0,.54a3.61,3.61,0,0,1-.29,1.88,3,3,0,0,1,.06,1.55c-.08.53-.1.76.06,1a.72.72,0,0,1,.14.55,5.39,5.39,0,0,0,0,.7,4.05,4.05,0,0,1-.3,1.72l0,.2a5.65,5.65,0,0,1,.06,1.19,4.29,4.29,0,0,1-.25,1c0,.14-.09.28-.13.42s-.05.25-.08.37a4.08,4.08,0,0,1-.25.94,6.7,6.7,0,0,0-.38,1.7c0,.25-.07.5-.11.75a3.51,3.51,0,0,1-1.09,2.29.72.72,0,0,1-.75.11c-1.72-.75-2.85-2.13-4.15-5.11a.72.72,0,0,1-.05-.4l-.07-.11a2.2,2.2,0,0,0-.23.53,9,9,0,0,1-.78,1.91c-.14.27-.27.54-.4.83s-.21.5-.32.79l-.19.47a.71.71,0,0,1-.2.28l-.15.13-.6,3.09a.72.72,0,0,1-.27.43l-.17.16A1.83,1.83,0,0,1,75.73,43.68Zm33.74-3.33a.72.72,0,0,1-.72-.77l0-.41-.72,0a.72.72,0,0,1-.68-.76l.07-1.06a.72.72,0,0,1,.34-.57,3,3,0,0,1,1.55-.46,3.16,3.16,0,0,1,1.8.61.72.72,0,0,1,.3.45,2.23,2.23,0,0,1-.89,2.11,2.63,2.63,0,0,0-.46.53A.72.72,0,0,1,109.47,40.35Zm58.25-1.6a.72.72,0,0,1-.36-.1l-1.31-.76a.72.72,0,0,1-.27-1A2.32,2.32,0,0,1,168,35.67a5.29,5.29,0,0,1,.62,0,.72.72,0,0,1,.6.5l.41,1.33a.72.72,0,0,1-.53.91l-1.22.28Zm6.07-.73a.72.72,0,0,1-.47-.18l-.94-.82-.57-.14a.72.72,0,0,1-.46-1,2,2,0,0,1-.59-.21.72.72,0,0,1-.38-.61,1.4,1.4,0,0,1,1.36-1.5h.12l.19,0a.72.72,0,0,1,.5-.2l1.54.09a.72.72,0,0,1,.38.14,1.84,1.84,0,0,1,.56.79c.16.36.18.36.36.36a.72.72,0,0,1,.63,1l-.48,1a.72.72,0,0,1-.65.42h0a.72.72,0,0,1-.21.31l-.39.34A.72.72,0,0,1,173.79,38ZM30.22,37.67a.72.72,0,0,1-.36-.12l-1-.67a.72.72,0,0,1-.18-1l.79-1.09.1-.46a13.43,13.43,0,0,1,.45-1.7,2.16,2.16,0,0,1,.72-.88l.29-.26a.72.72,0,0,1,1,0l1,1a.72.72,0,0,1,.08,1l-.27.37a9.27,9.27,0,0,1-.71.88,8.19,8.19,0,0,1-.73.67l1,1.32a.72.72,0,0,1-.57,1.16Zm95.56-5.38a.72.72,0,0,1-.49-.19l-.89-.83a.72.72,0,0,1,0-1.09l.08-.07,0,0a.72.72,0,0,1-.09-.77l.25-.51c.18-.37.37-.74.54-1.12s.19-.49.28-.74.23-.63.37-.93.27-.54.42-.8a7.59,7.59,0,0,0,.43-.86,5.05,5.05,0,0,0,.19-.6h-.17a1.43,1.43,0,0,1-1-.43.72.72,0,0,1,.07-1.09l1.38-1a.91.91,0,0,1,.41-.85c.12-.07.21-.25.33-.52a2.2,2.2,0,0,1,1.42-1.41l.2,0,.5,0a.72.72,0,0,1,.49.24l.63.7a.72.72,0,0,1,.18.42c0,.28,0,.55.06.81,0,.55.08,1.08.16,1.6s.18,1,.31,1.56l.14.64,1,1,.47,0c.5,0,1,.07,1.44.07a11.57,11.57,0,0,0,1.46-.13l.33,0,.35,0h.7a1.08,1.08,0,0,0,.46-.08,2.11,2.11,0,0,1,.86-.16,5.85,5.85,0,0,1,.92.1l.33,0,.12-.05a2.12,2.12,0,0,1-.08-.46V24.5c0-.25,0-.27-.05-.31a2.7,2.7,0,0,1-.46-.82l-.09-.22a5.92,5.92,0,0,1-1.06,1.39.72.72,0,0,1-1.22-.56l.12-2a.72.72,0,0,1,.35-.58l.2-.12a4.16,4.16,0,0,1,.47-1.55,2.56,2.56,0,0,0,.34-1.1.72.72,0,0,1,.27-.58h0a2.1,2.1,0,0,0-.1-.2,1.63,1.63,0,0,1,0-1.51l-.06-.07a.72.72,0,0,1-.16-.34l-.27-1.57a.72.72,0,0,1,.05-.41,1.38,1.38,0,0,1,1.36-.85,4.57,4.57,0,0,1,.5,0l.22,0a.72.72,0,0,1,.62.46c0,.13.09.26.13.39a2,2,0,0,0,.22.54,2.12,2.12,0,0,0,.49.39l.34.24a.72.72,0,0,1,.28.56l0,1.33c0,1.25,0,2.48,0,3.71a3.12,3.12,0,0,1-.19.94l-.06.18a3.42,3.42,0,0,1,.39,1.95l.3.33a.72.72,0,0,1,.18.52l-.12,1.86a.72.72,0,0,1-.4.6l-.8.4a.72.72,0,0,1-.22.07c-.55.08-1.11.17-1.67.27a25.88,25.88,0,0,1-4.36.49,11.25,11.25,0,0,1-2.3-.22h-.05a.72.72,0,0,1-.6,0l-2.27-.89a.72.72,0,0,1-.29-.21l-.8-1-.15.1-.06.93a.72.72,0,0,1-.32.55l-.1.06-.17.31a9,9,0,0,0-.67,1.41,4.88,4.88,0,0,1-2,2.64A.72.72,0,0,1,125.77,32.3Zm-50.16-.1a2.88,2.88,0,0,1-2.45-1.1.72.72,0,0,1-.06-.77,1.49,1.49,0,0,1,1.43-.82H75c.17,0,.18,0,.22-.08a.72.72,0,0,1,.62-.35h0a.72.72,0,0,1,.62.35l.5.82A.72.72,0,0,1,77,31l-.49.83a.72.72,0,0,1-.58.35Zm-40.7-3.07a.72.72,0,0,1-.58-.36l-.71-1.22a.72.72,0,0,1,0-.71l.34-.63a.72.72,0,0,1,.5-.36l2.95-.54h.13a.71.71,0,0,1,.4.12,1.58,1.58,0,0,1,.48,2.11.72.72,0,0,1-1,.33l-.07,0,0,.72a.72.72,0,0,1-.72.67Zm134.72-4a.71.71,0,0,1-.37-.1.72.72,0,0,1-.33-.78l.58-2.54a.73.73,0,0,1,.23-.38l.45-.39a.72.72,0,0,1,1.19.49l0,.28.11,0a.72.72,0,0,1,.42.6l0,.6a.72.72,0,0,1-.25.6L170.11,25A.72.72,0,0,1,169.63,25.14ZM24.24,23.54a.72.72,0,0,1-.65-.54l-.4-1.5a.72.72,0,0,1,.2-.7l.9-.86a.72.72,0,0,1,.5-.2.73.73,0,0,1,.21,0,.72.72,0,0,1,.49.55,3.42,3.42,0,0,0,.24.66A2.77,2.77,0,0,1,26,23.11a.72.72,0,0,1-.68.49Zm147.88-3.25a.72.72,0,0,1-.72-.77l.07-1a.72.72,0,0,1,.3-.54l-.1-.11a.69.69,0,0,1-.24,0,.72.72,0,0,1-.46-.54l-.3-1.89a.72.72,0,0,1,.36-.74l.87-.49a.72.72,0,0,1,1.07.58l.12,1.91a3,3,0,0,1,.81-.82.72.72,0,0,1,.86.06l.18.16a4.72,4.72,0,0,0,.38.32,2.78,2.78,0,0,0,.32.19l.2.11a.72.72,0,0,1,.36.67l0,.77a.72.72,0,0,1-.15.39l-.85,1.11a.72.72,0,0,1-.94.18l-.58-.34a.72.72,0,0,1-.36.39l-.85.41A.72.72,0,0,1,172.12,20.29ZM116.83,4.95a.72.72,0,0,1-.48-.22l-.49-.51a.72.72,0,0,1-.06-.92L116,3l-.34-1.13a.72.72,0,0,1,.12-.64l.7-.93a.72.72,0,0,1,.58-.29h0a1.46,1.46,0,0,1,1.35,1.07,1.27,1.27,0,0,0,.08.18.7.7,0,0,1,.1.92h.17l.91-.83a.72.72,0,0,1,.49-.19h.11a.72.72,0,0,1,.51.35l.74,1.28a.72.72,0,0,1-.13.89l-.45.43a.72.72,0,0,1-.49.2h-.12a.73.73,0,0,1-.16.21l-.47.41a.72.72,0,0,1-.47.18Zm8-2.44a3.31,3.31,0,0,1-1-.16.72.72,0,0,1-.42-.35L123,1.22a.72.72,0,0,1,.64-1.06l2.59.15a.72.72,0,0,1,.57,1.1l-.07.13a1.23,1.23,0,0,1-.53.62A3,3,0,0,1,124.87,2.51Z"/></g></g></svg>