<svg xmlns="http://www.w3.org/2000/svg" viewBox="0 0 43 27.21"><defs><style>.cls-1{fill:#fff;}</style></defs><title>logo</title><g id="Layer_2" data-name="Layer 2"><g id="Layer_2-2" data-name="Layer 2"><path class="cls-1" d="M5,22.83l.65.08c.29,0,.32.28.32.43v.77h-3v-.77c0-.15,0-.4.32-.43l.65-.08v-.66H0v.66l.65.08a.38.38,0,0,1,.33.43v2.53c0,.16,0,.4-.33.43L0,26.38V27H3.9v-.66l-.65-.08c-.29,0-.32-.27-.32-.43V25.1h3v.77c0,.16,0,.4-.32.43L5,26.38V27h3.9v-.66l-.65-.08c-.29,0-.33-.27-.33-.43V23.34a.38.38,0,0,1,.33-.43l.65-.08v-.66H5Z"/><path class="cls-1" d="M30.64,26.11H29v-3h1.64c1,0,1.29.45,1.29,1.5s-.33,1.5-1.29,1.5M31,22.17H26.17v.66l.58.06a.35.35,0,0,1,.34.4v2.58c0,.16,0,.4-.32.43l-.66.08V27H31c1.75,0,3.19-.7,3.19-2.43S32.74,22.17,31,22.17"/><path class="cls-1" d="M36.91,24.69l.92-1.5,1,1.5Zm5.47,1.62a.64.64,0,0,1-.5-.38L39.63,22.5c-.16-.25-.27-.33-.51-.33H35.41v.66l.89.1a.26.26,0,0,1,.15.41L34.79,26a.46.46,0,0,1-.34.27l-.66.07V27h3.12v-.66l-.54-.05c-.23,0-.35-.19-.24-.37l.25-.41h3l.22.34c.19.29-.05.41-.26.44l-.56.05V27H43v-.66Z"/><path class="cls-1" d="M22.69,22.83l.65.08c.29,0,.32.28.32.43v2.44l-2.57-3.4c-.12-.16-.22-.21-.5-.21H17.24v.66l.65.08c.3,0,.33.28.33.43v2.53c0,.16,0,.4-.33.43l-.65.08V27h3.12v-.66l-.65-.08c-.29,0-.32-.27-.32-.43V23.43L22,26.84a.52.52,0,0,0,.5.2h2.37v-3.7c0-.15,0-.4.32-.43l.66-.08v-.66H22.69Z"/><path class="cls-1" d="M13,26.28c-1.22,0-1.74-.51-1.74-1.67s.52-1.68,1.74-1.68,1.74.52,1.74,1.68-.51,1.67-1.74,1.67M13,22c-3.17,0-4,1.39-4,2.61s.82,2.6,4,2.6,4-1.39,4-2.6S16.21,22,13,22"/><path class="cls-1" d="M26.91,1.61C26.37,4,26.16,5.1,25.72,6.84a13.48,13.48,0,0,1-1.3,3.95,2.54,2.54,0,0,1-1.85,1,9.86,9.86,0,0,1-1,.05,10.1,10.1,0,0,1-1.05-.05,2.54,2.54,0,0,1-1.84-1,13.44,13.44,0,0,1-1.31-3.95C16.9,5.1,16.69,4,16.15,1.61l-.77,0c-.33,0-.58.05-.85.09,0,0,.31,4.93.45,7s.4,5.9.64,8.69a10.9,10.9,0,0,0,1.2.12L18,17.6a17.23,17.23,0,0,1,1.18-3.67,1.57,1.57,0,0,1,1.25-.7,6.85,6.85,0,0,1,1.14-.07h0a6.75,6.75,0,0,1,1.13.07,1.6,1.6,0,0,1,1.26.7A17.23,17.23,0,0,1,25.1,17.6l1.13-.05a10.9,10.9,0,0,0,1.2-.12c.24-2.79.5-6.49.65-8.69s.45-7,.45-7c-.28,0-.53-.06-.85-.09l-.77,0"/><path class="cls-1" d="M32,9.77a25.53,25.53,0,0,1-.73,5.08,4.17,4.17,0,0,1-1.13,2,5,5,0,0,1-2.68,1,47.68,47.68,0,0,1-5.9.29,47.68,47.68,0,0,1-5.9-.29,5,5,0,0,1-2.69-1,4.25,4.25,0,0,1-1.13-2,25.72,25.72,0,0,1-.72-5.08,32.64,32.64,0,0,1,.08-5.26c.25-2,1.22-2.94,3.3-3.31A30.42,30.42,0,0,1,18,.84c1-.06,2.63-.1,3.54-.09s2.55,0,3.54.09a30.42,30.42,0,0,1,3.52.36c2.08.37,3.05,1.35,3.3,3.31A32.64,32.64,0,0,1,32,9.77m1.15-5.26C32.8,1.39,30.71.72,28.88.42A33.78,33.78,0,0,0,25.26.09C24.34,0,22.17,0,21.53,0S18.72,0,17.8.09a33.55,33.55,0,0,0-3.62.33c-1.83.3-3.92,1-4.24,4.09a27.87,27.87,0,0,0-.09,3.17,38.66,38.66,0,0,0,.29,4.25,21.6,21.6,0,0,0,.67,3.53,3.94,3.94,0,0,0,1.39,2.16,6.41,6.41,0,0,0,2.72,1,48.71,48.71,0,0,0,6.61.35,48.71,48.71,0,0,0,6.61-.35,6.41,6.41,0,0,0,2.72-1,4,4,0,0,0,1.38-2.16,20.72,20.72,0,0,0,.68-3.53c.09-.93.26-2.27.29-4.25a30.41,30.41,0,0,0-.09-3.17"/></g></g></svg>